<svg width="1440" height="655" viewBox="0 0 1440 655" fill="none" xmlns="http://www.w3.org/2000/svg">
<path d="M-285 131.962L1467.18 34V619.41H1407.42V239.183C1362 110.509 1246.57 141.507 1215.5 239.461V619.41H1090.69L1082.32 239.461C1033.32 132.24 894.896 164.058 882.126 249.037V619.41H745.111V249.037C703.963 159.337 551.905 162.287 531.331 249.037V619.41H381.929V260.627C344.008 174.705 222.368 200.349 200.259 269.462V619.41H70V283.605C70 274.358 67.7664 264.954 61.2922 258.351C23.0435 219.346 -64.7242 226.854 -104.372 257.713C-112.921 264.367 -116.153 275.32 -116.153 286.154V619.41H-285V131.962Z" fill="#44B5C5"/>
<path d="M70 619.41H198.464L265.5 652.5H127L70 619.41Z" fill="#21393F"/>
<path d="M381.929 619.41H531.331L602 652H443L381.929 619.41Z" fill="#21393F"/>
<path d="M745.055 619.41H882.126L950.5 652H798.5L745.055 619.41Z" fill="#21393F"/>
<path d="M1090.69 619.41H1215.5L1269 653.481L1139 652L1090.69 619.41Z" fill="#21393F"/>
<path d="M1407.42 619.41H1518.2L1527.76 654.514H1419L1407.42 619.41Z" fill="#21393F"/>
<path d="M-7.5 98L1439 17" stroke="#44B5C5" stroke-width="10"/>
</svg>
