<svg width="598" height="426" viewBox="0 0 598 426" fill="none" xmlns="http://www.w3.org/2000/svg">
<path fill-rule="evenodd" clip-rule="evenodd" d="M0 253.071L164.557 132.051L213.498 168.044L80.8599 265.591L93.6272 274.98L226.266 177.433L329.114 253.071L164.557 374.092L0 253.071ZM239.033 233.771L106.395 331.318L119.162 340.707L251.8 243.16L239.033 233.771Z" fill="#C4C4C4"/>
<mask id="mask0_1931_553" style="mask-type:alpha" maskUnits="userSpaceOnUse" x="0" y="132" width="330" height="243">
<path fill-rule="evenodd" clip-rule="evenodd" d="M0 253.071L164.557 132.051L213.498 168.044L80.8599 265.591L93.6272 274.98L226.266 177.433L329.114 253.071L164.557 374.092L0 253.071ZM239.033 233.771L106.395 331.318L119.162 340.707L251.8 243.16L239.033 233.771Z" fill="#C4C4C4"/>
</mask>
<g mask="url(#mask0_1931_553)">
<path d="M-24.0742 256.724L165.01 126.887V208.773L93.7897 260.413L93.7897 351.889L-24.0742 256.724Z" fill="#D66440"/>
<path d="M80.7494 265.577L225.195 175.945L226.198 257.093L80.2478 353.364L80.7494 265.577Z" fill="#6AD8D7"/>
<path d="M291.901 221.683L164.508 127.624V309.471L223.691 270.003L291.901 221.683Z" fill="#E9A98D"/>
<path d="M225.697 258.568V158.977L341.555 264.101L286.886 300.987L225.697 341.192V258.568Z" fill="#6AD8D7"/>
<path d="M93.7896 274.798L226.198 175.576V253.773L93.7896 349.307L93.7896 274.798Z" fill="#44B5C5"/>
<path d="M113.35 345.25L251.777 243.076V316.11L113.35 406.111L113.35 345.25Z" fill="#393744"/>
</g>
<path fill-rule="evenodd" clip-rule="evenodd" d="M346.117 -2.0503e-05L181.561 121.021L346.117 242.042L510.674 121.021L346.117 -2.0503e-05ZM361.722 99.1119L256.746 176.315L270.223 186.226L375.199 109.023L361.722 99.1119Z" fill="#E9A98D"/>
<mask id="mask1_1931_553" style="mask-type:alpha" maskUnits="userSpaceOnUse" x="181" y="0" width="330" height="243">
<path fill-rule="evenodd" clip-rule="evenodd" d="M346.117 -2.0503e-05L181.561 121.021L346.117 242.042L510.674 121.021L346.117 -2.0503e-05ZM361.722 99.1119L256.746 176.315L270.223 186.226L375.199 109.023L361.722 99.1119Z" fill="#C4C4C4"/>
</mask>
<g mask="url(#mask1_1931_553)">
<path d="M258.298 189.592L375.158 109.182V232.38L345.066 243.076L258.298 189.592Z" fill="#44B5C5"/>
<path d="M180.056 120.616L346.068 -3.6886V113.608L256.793 175.944L180.056 120.616Z" fill="#D66440"/>
</g>
<path d="M243.6 424.757L257.803 414.311L234.523 397.191L262.341 376.733L285.62 393.853L299.739 383.47L240.91 340.205L226.791 350.588L248.894 366.844L221.076 387.302L198.974 371.046L184.771 381.492L243.6 424.757Z" fill="#191826"/>
<path d="M310.614 375.349L325.069 364.718L311.706 345.001L327.59 333.32L355.156 342.591L369.611 331.96L288.09 305.259L273.047 316.323L310.614 375.349ZM316.58 326.83L302.714 337.028L296.999 324.914C295.906 322.875 292.713 321.268 290.528 319.661L292.797 317.992C294.982 319.599 297.167 321.947 300.024 322.689L316.58 326.83Z" fill="#191826"/>
<path d="M411.406 303.2C431.24 288.614 430.736 276.87 418.13 265.498L404.095 275.82C406.196 278.972 410.23 283.793 397.203 293.373C387.791 300.295 375.352 302.891 362.914 293.744C350.392 284.534 354.09 275.387 363.587 268.403C375.689 259.502 382.076 262.469 386.362 264.138L400.397 253.816C388.715 246.214 370.478 243.062 349.468 258.514C331.399 271.802 331.231 291.209 348.627 304.127C366.276 316.983 393.001 316.736 411.406 303.2Z" fill="#191826"/>
<path d="M430.813 225.884C430.477 228.48 432.578 231.385 433.755 233.734L430.729 234.599C429.469 232.189 428.628 228.975 426.107 227.12L410.391 215.562L396.776 225.575L455.606 268.84L469.22 258.827L447.117 242.572L448.378 232.621L496.03 239.111L513.594 226.193L451.235 218.776L452.412 184.659L434.259 198.009L430.813 225.884Z" fill="#191826"/>
<path d="M526.38 140.52C510.497 142.683 501.084 147.01 492.848 153.067C476.544 165.057 473.35 178.408 482.006 184.774C500.496 198.371 536.801 171.423 545.374 177.728C548.483 180.015 546.971 184.218 540.751 188.791C530.162 196.579 524.447 197.197 515.455 197.877L514.867 211.413C532.599 210.98 541.088 207.828 551.341 200.287C570.166 186.443 574.116 172.042 563.779 164.439C541.928 148.369 504.109 177.913 496.966 172.66C494.529 170.867 496.209 167.282 500.243 164.316C508.227 158.444 515.875 155.045 526.38 154.117V140.52Z" fill="#191826"/>
<path d="M325.914 411.709L330.659 408.22L325.791 400.903L332.128 396.243L342.322 399.642L347.067 396.153L317.342 386.449L312.291 390.164L325.914 411.709ZM328.363 394.149L322.853 398.201L320.22 392.978C319.883 392.28 318.75 391.717 318.016 391.177L318.781 390.614C319.516 391.154 320.281 391.987 321.23 392.235L328.363 394.149ZM351.927 390.867C351.009 390.192 349.356 389.832 348.192 389.426L348.682 388.706C349.846 389.111 351.254 389.922 352.539 389.922C354.805 389.967 357.193 389.426 359.244 387.918C363.591 384.721 362.948 379.61 358.754 376.301C354.315 372.856 347.55 372.609 342.958 375.986C340.937 377.472 340.049 379.16 340.141 380.849C340.141 381.794 341.305 382.83 341.886 383.663L340.907 384.023C340.356 383.168 339.835 381.974 338.917 381.299L337.815 380.488L333.56 383.663L356.519 400.548L360.774 397.374L351.927 390.867ZM346.264 379.408C348.835 377.517 352.05 377.674 354.376 379.385C356.703 381.096 357.131 383.618 354.56 385.509C351.988 387.4 348.59 387.062 346.264 385.351C343.937 383.64 343.692 381.299 346.264 379.408ZM360.207 365.416C359.871 366.789 360.942 368.478 361.616 369.784L360.636 370.054C359.963 368.748 359.105 367.082 357.758 366.091L357.575 365.956L353.289 369.108L368.595 380.365L372.881 377.213L366.759 372.71C362.503 369.581 365.228 365.506 369.146 362.624L365.167 359.697C362.32 361.791 360.728 363.322 360.207 365.416ZM366.102 356.984L370.693 353.607L366.408 350.455L361.816 353.832L366.102 356.984ZM383.428 369.456L387.684 366.327L372.377 355.07L368.122 358.199L383.428 369.456ZM387.193 361.239C389.489 362.928 392.979 362.433 396.591 359.776L399.01 357.997L395.03 355.071L393.254 356.376C391.816 357.435 390.867 357.592 389.581 356.647L373.019 344.467L368.703 347.641L387.193 361.239ZM405.169 337.573C403.577 340.184 403.638 342.346 406.547 344.484C410.251 347.209 415.455 346.578 420.598 342.796C425.802 338.969 426.629 335.029 422.771 332.192C419.771 329.986 417.077 329.986 413.741 331.179C413.465 331.291 413.159 331.472 412.914 331.652C412.332 332.079 411.812 332.642 411.292 333.025L410.496 332.485C410.986 332.124 411.659 331.764 412.21 331.359C412.516 331.134 412.792 330.886 412.945 330.639C414.23 328.387 414.077 326.293 411.812 324.627C408.598 322.263 402.904 322.939 398.465 326.203C394.026 329.468 393.046 333.655 396.23 335.997C398.526 337.685 401.312 337.753 404.281 336.92C405.292 336.627 406.087 335.727 406.853 335.164L407.588 335.749C407.098 336.109 406.394 336.447 405.843 336.852C405.567 337.055 405.292 337.303 405.169 337.573ZM406.577 332.214C404.404 333.813 402.169 334.106 400.608 332.957C399.077 331.832 399.475 330.368 401.802 328.657C404.098 326.969 406.118 326.654 407.618 327.757C409.21 328.927 408.781 330.594 406.577 332.214ZM417.292 340.274C414.567 342.278 412.088 342.301 410.496 341.13C408.812 339.892 409.118 338.136 411.812 336.154C414.475 334.196 416.741 334.016 418.394 335.231C420.047 336.447 420.016 338.271 417.292 340.274ZM424.764 328.79L433.397 322.442L429.723 319.74L421.09 326.089L424.764 328.79ZM435.687 309.68C436.085 308.802 435.35 307.677 434.983 306.776L436.024 306.551C436.391 307.452 436.697 308.577 437.616 309.253L451.453 319.429L456.045 316.052L434.616 300.292L429.167 304.3C431.218 305.808 431.034 308.33 428.799 309.973L432.932 313.012C434.065 312.179 435.105 310.919 435.687 309.68ZM450.114 304.654C456.481 309.337 464.471 310.575 470.655 306.027C476.839 301.479 475.155 295.603 468.788 290.921C462.42 286.238 454.461 285.022 448.277 289.57C442.093 294.118 443.746 299.971 450.114 304.654ZM454.889 301.187C451.4 298.62 449.593 295.356 452.869 292.947C456.175 290.515 460.583 291.866 464.073 294.433C467.532 296.977 469.43 300.264 466.124 302.695C462.849 305.104 458.349 303.731 454.889 301.187ZM481.607 297.253C482.249 296.78 482.28 295.947 482.433 295.294L483.505 295.451C483.351 296.104 483.137 296.847 483.26 297.478C483.351 297.996 483.198 298.603 482.372 299.211L484.209 300.562C486.658 298.761 486.596 296.42 484.637 294.979L481.147 292.412L477.015 295.451L480.535 298.041L481.607 297.253ZM497.114 277.653C497.145 275.514 497.145 271.551 496.992 267.747C496.869 262.614 488.206 260.205 482.91 264.099C476.053 269.143 479.206 274.613 482.328 276.91L486.92 273.533C485.696 272.632 483.461 270.268 485.849 268.512C487.869 267.026 491.941 267.049 491.482 273.645C491.053 279.994 491.145 284.024 491.145 284.024L495.369 287.131L511.043 275.604L506.512 272.272L498.584 278.103C497.696 278.756 497.267 279.927 496.778 280.782L495.798 280.467C496.288 279.611 497.114 278.553 497.114 277.653ZM502.251 266.31C508.618 270.993 516.608 272.231 522.792 267.684C528.976 263.136 527.292 257.26 520.925 252.577C514.557 247.894 506.598 246.678 500.414 251.226C494.23 255.774 495.884 261.628 502.251 266.31ZM507.027 262.843C503.537 260.277 501.731 257.012 505.006 254.603C508.312 252.172 512.721 253.523 516.21 256.089C519.67 258.633 521.568 261.92 518.261 264.352C514.986 266.761 510.486 265.387 507.027 262.843ZM533.407 250.962C533.438 248.823 533.438 244.861 533.285 241.056C533.162 235.923 524.499 233.514 519.203 237.408C512.346 242.452 515.499 247.922 518.621 250.219L523.213 246.842C521.989 245.941 519.754 243.577 522.142 241.821C524.162 240.335 528.234 240.358 527.774 246.954C527.346 253.303 527.438 257.333 527.438 257.333L531.662 260.44L547.336 248.913L542.805 245.581L534.876 251.412C533.989 252.065 533.56 253.236 533.07 254.091L532.091 253.776C532.581 252.92 533.407 251.862 533.407 250.962ZM551.524 237.638C551.554 235.499 551.554 231.537 551.401 227.732C551.279 222.599 542.615 220.19 537.319 224.085C530.462 229.128 533.615 234.599 536.738 236.895L541.33 233.518C540.105 232.618 537.87 230.254 540.258 228.498C542.279 227.012 546.35 227.034 545.891 233.631C545.462 239.98 545.554 244.01 545.554 244.01L549.779 247.116L565.452 235.589L560.922 232.257L552.993 238.088C552.105 238.741 551.677 239.912 551.187 240.768L550.207 240.452C550.697 239.597 551.524 238.539 551.524 237.638Z" fill="#D66440"/>
</svg>
