<svg width="607" height="457" viewBox="0 0 607 457" fill="none" xmlns="http://www.w3.org/2000/svg">
<g clip-path="url(#clip0_1820_583)">
<path fill-rule="evenodd" clip-rule="evenodd" d="M0 253.071L164.557 132.051L213.498 168.044L80.8599 265.591L93.6272 274.98L226.266 177.433L329.114 253.071L164.557 374.092L0 253.071ZM239.033 233.771L106.395 331.318L119.162 340.707L251.8 243.16L239.033 233.771Z" fill="#C4C4C4"/>
<mask id="mask0_1820_583" style="mask-type:alpha" maskUnits="userSpaceOnUse" x="0" y="132" width="330" height="243">
<path fill-rule="evenodd" clip-rule="evenodd" d="M0 253.071L164.557 132.051L213.498 168.044L80.8599 265.591L93.6272 274.98L226.266 177.433L329.114 253.071L164.557 374.092L0 253.071ZM239.033 233.771L106.395 331.318L119.162 340.707L251.8 243.16L239.033 233.771Z" fill="#C4C4C4"/>
</mask>
<g mask="url(#mask0_1820_583)">
<path d="M-24.0742 256.724L165.01 126.887V208.773L93.7897 260.413L93.7897 351.889L-24.0742 256.724Z" fill="#D66440"/>
<path d="M80.7494 265.577L225.195 175.945L226.198 257.093L80.2478 353.364L80.7494 265.577Z" fill="#6AD8D7"/>
<path d="M291.901 221.683L164.508 127.624V309.471L223.691 270.003L291.901 221.683Z" fill="#E9A98D"/>
<path d="M225.697 258.568V158.977L341.555 264.101L286.886 300.987L225.697 341.192V258.568Z" fill="#6AD8D7"/>
<path d="M93.7896 274.798L226.198 175.576V253.773L93.7896 349.307L93.7896 274.798Z" fill="#44B5C5"/>
<path d="M113.35 345.25L251.777 243.076V316.11L113.35 406.111L113.35 345.25Z" fill="#393744"/>
</g>
<path fill-rule="evenodd" clip-rule="evenodd" d="M346.117 -2.0503e-05L181.561 121.021L346.117 242.042L510.674 121.021L346.117 -2.0503e-05ZM361.722 99.1119L256.746 176.315L270.223 186.226L375.199 109.023L361.722 99.1119Z" fill="#E9A98D"/>
<mask id="mask1_1820_583" style="mask-type:alpha" maskUnits="userSpaceOnUse" x="181" y="0" width="330" height="243">
<path fill-rule="evenodd" clip-rule="evenodd" d="M346.117 -2.0503e-05L181.561 121.021L346.117 242.042L510.674 121.021L346.117 -2.0503e-05ZM361.722 99.1119L256.746 176.315L270.223 186.226L375.199 109.023L361.722 99.1119Z" fill="#C4C4C4"/>
</mask>
<g mask="url(#mask1_1820_583)">
<path d="M258.298 189.592L375.158 109.182V232.38L345.066 243.076L258.298 189.592Z" fill="#44B5C5"/>
<path d="M180.056 120.616L346.068 -3.6886V113.608L256.793 175.944L180.056 120.616Z" fill="#D66440"/>
</g>
<path d="M243.6 424.757L257.803 414.311L234.523 397.191L262.341 376.733L285.62 393.853L299.739 383.47L240.91 340.205L226.791 350.588L248.894 366.844L221.076 387.302L198.974 371.046L184.771 381.492L243.6 424.757Z" fill="#191826"/>
<path d="M310.614 375.349L325.069 364.718L311.706 345.001L327.59 333.32L355.156 342.591L369.611 331.96L288.09 305.259L273.047 316.323L310.614 375.349ZM316.58 326.83L302.714 337.028L296.999 324.914C295.906 322.875 292.713 321.268 290.528 319.661L292.797 317.992C294.982 319.599 297.167 321.947 300.024 322.689L316.58 326.83Z" fill="#191826"/>
<path d="M411.406 303.2C431.24 288.614 430.736 276.87 418.13 265.498L404.095 275.82C406.196 278.972 410.23 283.793 397.203 293.373C387.791 300.295 375.352 302.891 362.914 293.744C350.392 284.534 354.09 275.387 363.587 268.403C375.689 259.502 382.076 262.469 386.362 264.138L400.397 253.816C388.715 246.214 370.478 243.062 349.468 258.514C331.399 271.802 331.231 291.209 348.627 304.127C366.276 316.983 393.001 316.736 411.406 303.2Z" fill="#191826"/>
<path d="M430.813 225.884C430.477 228.48 432.578 231.385 433.755 233.734L430.729 234.599C429.469 232.189 428.628 228.975 426.107 227.12L410.391 215.562L396.776 225.575L455.606 268.84L469.22 258.827L447.117 242.572L448.378 232.621L496.03 239.111L513.594 226.193L451.235 218.776L452.412 184.659L434.259 198.009L430.813 225.884Z" fill="#191826"/>
<path d="M526.38 140.52C510.497 142.683 501.084 147.01 492.848 153.067C476.544 165.057 473.35 178.408 482.006 184.774C500.496 198.371 536.801 171.423 545.374 177.728C548.483 180.015 546.971 184.218 540.751 188.791C530.162 196.579 524.447 197.197 515.455 197.877L514.867 211.413C532.599 210.98 541.088 207.828 551.341 200.287C570.166 186.443 574.116 172.042 563.779 164.439C541.928 148.369 504.109 177.913 496.966 172.66C494.529 170.867 496.209 167.282 500.243 164.316C508.227 158.444 515.875 155.045 526.38 154.117V140.52Z" fill="#191826"/>
<path d="M275.649 429.699L271.21 426.434L255.965 437.646L277.393 453.406L281.985 450.029L274.302 444.378L283.271 437.781L278.832 434.517L269.863 441.113L264.995 437.534L275.649 429.699ZM305.118 433.736C310.139 430.044 309.22 425.902 308.087 424.393L303.159 428.018C303.434 428.671 302.975 430.044 301.108 431.418C298.2 433.556 294.985 433.219 293.485 432.115L306.373 422.637C306.159 422.435 305.394 421.917 305.057 421.669C300.832 418.517 293.638 418.27 288.067 422.367C282.679 426.329 282.342 431.665 286.903 435.02C291.465 438.374 298.628 438.509 305.118 433.736ZM290.822 430.157C289.046 428.851 289.077 426.442 291.465 424.686C293.822 422.952 296.7 422.952 298.659 424.393L290.822 430.157ZM297.983 405.619L293.666 408.748L315.861 425.07L320.177 421.941L319.075 421.131C318.157 420.455 316.534 420.072 315.371 419.667L315.861 418.947C317.024 419.352 318.402 420.23 319.687 420.23C321.983 420.298 324.279 419.645 326.33 418.136C330.892 414.782 330.555 409.761 325.871 406.542C321.402 403.435 314.453 402.962 310.075 406.182C308.054 407.667 307.32 409.424 307.35 411.112C307.35 412.058 308.452 413.093 309.003 413.949L308.054 414.286C307.503 413.431 306.983 412.238 306.065 411.562L297.983 405.619ZM321.677 415.705C319.106 417.596 315.891 417.438 313.565 415.727C311.238 414.016 310.81 411.495 313.381 409.604C315.953 407.712 319.351 408.05 321.677 409.761C324.004 411.472 324.249 413.814 321.677 415.705ZM327.444 395.479C327.107 396.853 328.178 398.541 328.852 399.847L327.872 400.117C327.199 398.811 326.341 397.145 324.995 396.155L324.811 396.02L320.525 399.172L335.831 410.428L340.117 407.276L333.995 402.774C329.739 399.644 332.464 395.569 336.382 392.688L332.403 389.761C329.556 391.855 327.964 393.386 327.444 395.479ZM359.94 391.392C359.971 390.469 358.991 389.434 358.471 388.6L359.45 388.285C359.971 389.118 360.399 390.289 361.256 390.964L361.777 391.347L366.063 388.195L350.756 376.938L346.47 380.09L354.246 385.809C357.185 387.97 357.062 389.996 354.828 391.64C352.777 393.148 350.236 393.441 347.052 391.1L339.277 385.381L334.991 388.533L345.491 396.255C348.95 398.799 353.726 397.944 356.818 395.67C358.96 394.094 359.909 393.126 359.94 391.392ZM379.298 376.21C379.206 375.242 378.043 374.251 377.431 373.396L378.38 373.058C378.992 373.869 379.543 375.084 380.461 375.76L381.716 376.683L386.002 373.531L370.696 362.274L366.41 365.426L367.573 366.282C368.492 366.957 370.114 367.34 371.247 367.767L370.757 368.488C369.594 368.038 368.247 367.182 366.931 367.16C364.635 367.092 362.369 367.722 360.349 369.208C355.849 372.518 356.094 377.426 360.655 380.78C365.216 384.135 372.104 384.473 376.604 381.163C378.655 379.655 379.451 377.944 379.298 376.21ZM364.941 377.628C362.614 375.917 362.492 373.486 364.635 371.91C367.114 370.086 370.145 370.379 372.471 372.09C374.737 373.801 375.074 376.435 372.931 378.011C370.788 379.587 367.237 379.317 364.941 377.628ZM380.687 356.322C380.35 357.696 381.422 359.384 382.095 360.69L381.115 360.96C380.442 359.654 379.585 357.988 378.238 356.998L378.054 356.863L373.768 360.015L389.075 371.271L393.361 368.119L387.238 363.617C382.983 360.487 385.707 356.412 389.626 353.531L385.646 350.604C382.799 352.698 381.207 354.229 380.687 356.322ZM393.285 345.661L387.928 349.601L409.938 354.802L410.673 356.648C411.377 358.426 411.561 359.687 409.724 361.038L407.153 362.929L411.438 366.081L416.122 362.636C418.632 360.79 418.235 358.111 416.673 354.892C416.183 353.811 415.847 352.933 415.357 351.897L407.704 335.057L402.347 338.997L406.357 347.125C407.03 348.52 408.806 349.826 410.183 350.839L409.418 351.402C408.04 350.389 406.234 349.106 404.367 348.588L393.285 345.661ZM424.179 324.112C424.577 323.234 423.842 322.108 423.475 321.208L424.515 320.982C424.883 321.883 425.189 323.009 426.107 323.684L439.944 333.86L444.536 330.483L423.107 314.724L417.658 318.731C419.709 320.239 419.525 322.761 417.291 324.404L421.423 327.444C422.556 326.611 423.597 325.35 424.179 324.112ZM445.738 313.704C444.146 316.316 444.207 318.477 447.116 320.616C450.82 323.34 456.024 322.71 461.167 318.928C466.371 315.1 467.198 311.16 463.34 308.324C460.34 306.117 457.646 306.117 454.31 307.311C454.034 307.423 453.728 307.603 453.483 307.783C452.901 308.211 452.381 308.774 451.861 309.157L451.065 308.616C451.554 308.256 452.228 307.896 452.779 307.491C453.085 307.266 453.361 307.018 453.514 306.77C454.799 304.519 454.646 302.425 452.381 300.759C449.167 298.395 443.473 299.071 439.034 302.335C434.595 305.6 433.615 309.787 436.799 312.129C439.095 313.817 441.881 313.885 444.85 313.052C445.861 312.759 446.656 311.858 447.422 311.296L448.156 311.881C447.667 312.241 446.963 312.579 446.412 312.984C446.136 313.187 445.861 313.434 445.738 313.704ZM447.146 308.346C444.973 309.945 442.738 310.237 441.177 309.089C439.646 307.963 440.044 306.5 442.371 304.789C444.667 303.101 446.687 302.785 448.187 303.889C449.779 305.059 449.35 306.725 447.146 308.346ZM457.861 316.406C455.136 318.41 452.657 318.432 451.065 317.262C449.381 316.023 449.687 314.267 452.381 312.286C455.044 310.327 457.31 310.147 458.963 311.363C460.616 312.579 460.585 314.402 457.861 316.406ZM465.333 304.922L473.966 298.573L470.292 295.872L461.659 302.221L465.333 304.922ZM486.144 291.688C486.175 289.549 486.175 285.587 486.021 281.782C485.899 276.649 477.236 274.24 471.94 278.135C465.082 283.178 468.236 288.649 471.358 290.945L475.95 287.568C474.725 286.668 472.491 284.304 474.878 282.548C476.899 281.062 480.97 281.084 480.511 287.681C480.083 294.03 480.174 298.06 480.174 298.06L484.399 301.166L500.073 289.64L495.542 286.307L487.613 292.139C486.726 292.791 486.297 293.962 485.807 294.818L484.828 294.502C485.317 293.647 486.144 292.589 486.144 291.688ZM491.281 280.346C497.648 285.029 505.638 286.267 511.822 281.719C518.006 277.172 516.322 271.295 509.954 266.613C503.587 261.93 495.628 260.714 489.444 265.262C483.26 269.81 484.913 275.663 491.281 280.346ZM496.056 276.879C492.566 274.312 490.76 271.048 494.036 268.639C497.342 266.207 501.75 267.558 505.24 270.125C508.699 272.669 510.597 275.956 507.291 278.387C504.016 280.796 499.515 279.423 496.056 276.879ZM522.773 272.945C523.416 272.472 523.447 271.639 523.6 270.986L524.671 271.143C524.518 271.796 524.304 272.539 524.427 273.17C524.518 273.688 524.365 274.295 523.539 274.903L525.376 276.254C527.825 274.453 527.763 272.112 525.804 270.671L522.314 268.104L518.182 271.143L521.702 273.733L522.773 272.945ZM538.281 253.345C538.312 251.206 538.312 247.244 538.159 243.439C538.036 238.306 529.373 235.897 524.077 239.791C517.22 244.835 520.373 250.305 523.495 252.602L528.087 249.225C526.863 248.324 524.628 245.96 527.016 244.204C529.036 242.718 533.108 242.741 532.648 249.337C532.22 255.686 532.312 259.716 532.312 259.716L536.536 262.823L552.21 251.296L547.679 247.964L539.751 253.795C538.863 254.448 538.434 255.619 537.944 256.474L536.965 256.159C537.455 255.303 538.281 254.245 538.281 253.345ZM543.418 242.002C549.785 246.685 557.775 247.923 563.959 243.376C570.143 238.828 568.459 232.952 562.092 228.269C555.724 223.586 547.765 222.371 541.581 226.918C535.397 231.466 537.05 237.32 543.418 242.002ZM548.193 238.535C544.704 235.969 542.897 232.704 546.173 230.295C549.479 227.864 553.887 229.215 557.377 231.781C560.836 234.325 562.734 237.612 559.428 240.044C556.153 242.453 551.653 241.079 548.193 238.535ZM574.574 226.654C574.605 224.515 574.605 220.553 574.451 216.748C574.329 211.615 565.666 209.206 560.37 213.101C553.512 218.144 556.666 223.614 559.788 225.911L564.38 222.534C563.155 221.633 560.921 219.269 563.308 217.513C565.329 216.027 569.4 216.05 568.941 222.646C568.513 228.995 568.604 233.025 568.604 233.025L572.829 236.132L588.503 224.605L583.972 221.273L576.043 227.104C575.156 227.757 574.727 228.928 574.237 229.783L573.258 229.468C573.747 228.612 574.574 227.554 574.574 226.654ZM592.69 213.33C592.721 211.191 592.721 207.229 592.568 203.424C592.446 198.291 583.782 195.882 578.486 199.777C571.629 204.82 574.782 210.291 577.904 212.587L582.496 209.21C581.272 208.31 579.037 205.946 581.425 204.19C583.445 202.704 587.517 202.726 587.058 209.323C586.629 215.672 586.721 219.702 586.721 219.702L590.945 222.808L606.619 211.281L602.089 207.949L594.16 213.781C593.272 214.433 592.843 215.604 592.354 216.46L591.374 216.144C591.864 215.289 592.69 214.231 592.69 213.33Z" fill="#D66440"/>
</g>
<defs>
<clipPath id="clip0_1820_583">
<rect width="607" height="457" fill="white"/>
</clipPath>
</defs>
</svg>
