<svg width="565" height="462" viewBox="0 0 565 462" fill="none" xmlns="http://www.w3.org/2000/svg">
<ellipse cx="294" cy="194.316" rx="250" ry="154.659" fill="#97FF73"/>
<ellipse cx="277" cy="165.565" rx="246" ry="165.565" fill="#EEE972"/>
<path d="M124.634 77.3988V81.9984H106.147V77.3988H124.634ZM106.88 59.059V101.715H101.489V59.059H106.88ZM129.409 59.059V101.715H124.018V59.059H129.409ZM142.909 87.389V84.3715C142.909 81.9105 143.222 79.7523 143.847 77.8969C144.472 76.0219 145.341 74.4594 146.454 73.2094C147.567 71.9594 148.866 71.0219 150.351 70.3969C151.835 69.7523 153.427 69.4301 155.126 69.4301C156.864 69.4301 158.476 69.7523 159.96 70.3969C161.444 71.0219 162.743 71.9594 163.856 73.2094C164.989 74.4594 165.868 76.0219 166.493 77.8969C167.118 79.7523 167.431 81.9105 167.431 84.3715V87.389C167.431 89.85 167.118 92.0179 166.493 93.8929C165.868 95.7484 164.999 97.3011 163.886 98.5511C162.772 99.8011 161.474 100.739 159.989 101.364C158.505 101.989 156.903 102.301 155.185 102.301C153.466 102.301 151.864 101.989 150.38 101.364C148.895 100.739 147.587 99.8011 146.454 98.5511C145.341 97.3011 144.472 95.7484 143.847 93.8929C143.222 92.0179 142.909 89.85 142.909 87.389ZM148.095 84.3715V87.389C148.095 89.1273 148.27 90.6508 148.622 91.9594C148.974 93.2679 149.472 94.3617 150.116 95.2406C150.761 96.1195 151.513 96.7836 152.372 97.2328C153.231 97.6625 154.169 97.8773 155.185 97.8773C156.356 97.8773 157.382 97.6625 158.261 97.2328C159.159 96.7836 159.901 96.1195 160.487 95.2406C161.073 94.3617 161.513 93.2679 161.806 91.9594C162.099 90.6508 162.245 89.1273 162.245 87.389V84.3715C162.245 82.6332 162.069 81.1195 161.718 79.8304C161.366 78.5219 160.868 77.4281 160.224 76.5492C159.579 75.6508 158.817 74.9867 157.938 74.557C157.079 74.1078 156.142 73.8832 155.126 73.8832C154.13 73.8832 153.202 74.1078 152.343 74.557C151.483 74.9867 150.731 75.6508 150.087 76.5492C149.462 77.4281 148.974 78.5219 148.622 79.8304C148.27 81.1195 148.095 82.6332 148.095 84.3715ZM186.614 96.0902L193.616 70.016H196.985L196.604 75.2015L189.573 101.715H186.321L186.614 96.0902ZM182.806 70.016L188.694 96.3832L188.841 101.715H185.413L177.679 70.016H182.806ZM202.991 96.1781L208.558 70.016H213.655L205.921 101.715H202.552L202.991 96.1781ZM197.718 70.016L204.544 95.6508L205.013 101.715H201.79L194.524 75.1429L194.143 70.016H197.718ZM244.903 56.7152H250.089V95.5629L249.649 101.715H244.903V56.7152ZM267.872 84.4301V87.389C267.872 89.889 267.638 92.0765 267.169 93.9515C266.72 95.807 266.046 97.3597 265.147 98.6097C264.249 99.8402 263.155 100.768 261.866 101.393C260.577 101.998 259.102 102.301 257.442 102.301C255.802 102.301 254.386 101.969 253.194 101.305C252.003 100.641 251.007 99.684 250.206 98.434C249.405 97.184 248.77 95.6703 248.302 93.8929C247.852 92.1156 247.54 90.1136 247.364 87.8871V83.932C247.54 81.6859 247.852 79.6742 248.302 77.8969C248.751 76.1 249.376 74.5765 250.177 73.3265C250.977 72.057 251.974 71.0902 253.165 70.4261C254.356 69.7621 255.772 69.4301 257.413 69.4301C259.093 69.4301 260.577 69.723 261.866 70.309C263.175 70.8949 264.268 71.8031 265.147 73.0336C266.046 74.2445 266.72 75.7972 267.169 77.6918C267.638 79.5668 267.872 81.8129 267.872 84.4301ZM262.686 87.389V84.4301C262.686 82.6722 262.569 81.139 262.335 79.8304C262.12 78.5219 261.759 77.4379 261.251 76.5785C260.743 75.7191 260.06 75.0746 259.2 74.6449C258.36 74.2152 257.315 74.0004 256.065 74.0004C255.011 74.0004 254.083 74.2152 253.282 74.6449C252.501 75.0746 251.827 75.6605 251.261 76.4027C250.694 77.1254 250.226 77.9554 249.854 78.8929C249.483 79.8109 249.21 80.7679 249.034 81.764V90.0844C249.288 91.3539 249.688 92.5746 250.235 93.7465C250.802 94.8988 251.563 95.8461 252.52 96.5883C253.477 97.3304 254.669 97.7015 256.095 97.7015C257.286 97.7015 258.292 97.4965 259.112 97.0863C259.952 96.6761 260.636 96.0511 261.163 95.2113C261.69 94.3519 262.071 93.2777 262.306 91.9886C262.56 90.6801 262.686 89.1469 262.686 87.389ZM286.06 70.016V101.715H280.903V70.016H286.06ZM280.61 61.6078C280.61 60.7289 280.854 59.9867 281.343 59.3812C281.831 58.7758 282.563 58.473 283.54 58.473C284.517 58.473 285.249 58.7758 285.737 59.3812C286.245 59.9867 286.499 60.7289 286.499 61.6078C286.499 62.4476 286.245 63.1703 285.737 63.7758C285.249 64.3617 284.517 64.6547 283.54 64.6547C282.563 64.6547 281.831 64.3617 281.343 63.7758C280.854 63.1703 280.61 62.4476 280.61 61.6078ZM317.431 70.016H322.089V101.979C322.089 104.772 321.601 107.077 320.624 108.893C319.667 110.709 318.329 112.047 316.61 112.907C314.892 113.786 312.909 114.225 310.663 114.225C309.862 114.225 308.856 114.078 307.645 113.786C306.435 113.493 305.224 113.043 304.013 112.438C302.802 111.852 301.806 111.11 301.024 110.211L303.163 106.608C304.276 107.741 305.458 108.551 306.708 109.039C307.958 109.528 309.149 109.772 310.282 109.772C311.63 109.772 312.802 109.528 313.798 109.039C314.794 108.551 315.565 107.75 316.112 106.637C316.659 105.543 316.933 104.078 316.933 102.243V76.9886L317.431 70.016ZM299.208 87.389V84.4301C299.208 81.8129 299.452 79.5668 299.94 77.6918C300.429 75.7972 301.132 74.2445 302.05 73.0336C302.987 71.8031 304.11 70.8949 305.419 70.309C306.727 69.723 308.192 69.4301 309.813 69.4301C311.454 69.4301 312.87 69.7621 314.061 70.4261C315.253 71.0902 316.239 72.057 317.02 73.3265C317.821 74.5765 318.446 76.1 318.895 77.8969C319.364 79.6742 319.686 81.6859 319.862 83.932V87.8871C319.686 90.1136 319.364 92.1156 318.895 93.8929C318.446 95.6703 317.811 97.184 316.991 98.434C316.19 99.684 315.194 100.641 314.003 101.305C312.811 101.969 311.395 102.301 309.755 102.301C308.153 102.301 306.708 101.998 305.419 101.393C304.13 100.768 303.017 99.8402 302.079 98.6097C301.161 97.3597 300.448 95.807 299.94 93.9515C299.452 92.0765 299.208 89.889 299.208 87.389ZM304.393 84.4301V87.389C304.393 89.1469 304.52 90.6801 304.774 91.9886C305.028 93.2777 305.419 94.3519 305.946 95.2113C306.493 96.0511 307.186 96.6761 308.026 97.0863C308.886 97.4965 309.911 97.7015 311.102 97.7015C312.548 97.7015 313.729 97.35 314.647 96.6469C315.565 95.9437 316.298 95.016 316.845 93.8636C317.411 92.6918 317.86 91.432 318.192 90.0844V81.764C317.997 80.7679 317.714 79.8109 317.343 78.8929C316.991 77.9554 316.532 77.1254 315.966 76.4027C315.399 75.6605 314.716 75.0746 313.915 74.6449C313.134 74.2152 312.216 74.0004 311.161 74.0004C309.97 74.0004 308.944 74.2152 308.085 74.6449C307.226 75.0746 306.522 75.7191 305.976 76.5785C305.429 77.4379 305.028 78.5219 304.774 79.8304C304.52 81.139 304.393 82.6722 304.393 84.4301ZM366.608 97.8773C367.643 97.8773 368.581 97.6722 369.421 97.2621C370.28 96.8324 370.983 96.1683 371.53 95.2699C372.077 94.3519 372.39 93.1605 372.468 91.6957H377.331C377.253 93.8051 376.716 95.6605 375.72 97.2621C374.743 98.8441 373.454 100.084 371.852 100.983C370.27 101.862 368.522 102.301 366.608 102.301C364.558 102.301 362.77 101.969 361.247 101.305C359.743 100.641 358.493 99.684 357.497 98.434C356.52 97.1644 355.788 95.6312 355.3 93.8344C354.811 92.0179 354.567 89.9574 354.567 87.6527V84.0785C354.567 81.7738 354.811 79.723 355.3 77.9261C355.788 76.1097 356.52 74.5765 357.497 73.3265C358.493 72.057 359.743 71.0902 361.247 70.4261C362.77 69.7621 364.558 69.4301 366.608 69.4301C368.757 69.4301 370.612 69.889 372.175 70.807C373.757 71.7054 374.987 73.014 375.866 74.7328C376.765 76.432 377.253 78.4926 377.331 80.9144H372.468C372.39 79.3519 372.106 78.0531 371.618 77.0179C371.13 75.9633 370.466 75.182 369.626 74.6742C368.786 74.1469 367.78 73.8832 366.608 73.8832C365.241 73.8832 364.108 74.1273 363.21 74.6156C362.331 75.0844 361.638 75.7679 361.13 76.6664C360.622 77.5648 360.261 78.639 360.046 79.889C359.851 81.139 359.753 82.5355 359.753 84.0785V87.6527C359.753 89.1957 359.851 90.6019 360.046 91.8715C360.261 93.1215 360.612 94.1957 361.101 95.0941C361.608 95.9926 362.311 96.6859 363.21 97.1742C364.108 97.6429 365.241 97.8773 366.608 97.8773ZM404.864 96.2953V79.098C404.864 77.848 404.669 76.8422 404.278 76.0804C403.907 75.3187 403.341 74.7621 402.579 74.4105C401.837 74.059 400.899 73.8832 399.767 73.8832C398.673 73.8832 397.726 74.1078 396.925 74.557C396.143 75.0062 395.538 75.6019 395.108 76.3441C394.698 77.0863 394.493 77.9066 394.493 78.8051H389.308C389.308 77.6722 389.552 76.5492 390.04 75.4359C390.548 74.3226 391.27 73.3168 392.208 72.4183C393.145 71.5004 394.268 70.7777 395.577 70.2504C396.905 69.7035 398.39 69.4301 400.03 69.4301C401.983 69.4301 403.712 69.7523 405.216 70.3969C406.72 71.0219 407.901 72.0472 408.761 73.473C409.62 74.8988 410.05 76.7933 410.05 79.1566V94.8011C410.05 95.8558 410.128 96.9789 410.284 98.1703C410.46 99.3617 410.704 100.387 411.017 101.246V101.715H405.655C405.401 101.09 405.206 100.26 405.069 99.225C404.933 98.1703 404.864 97.1937 404.864 96.2953ZM405.685 82.4965L405.743 86.3051H402.14C400.909 86.3051 399.786 86.4418 398.77 86.7152C397.774 86.9886 396.915 87.389 396.192 87.9164C395.47 88.4242 394.913 89.059 394.522 89.8207C394.151 90.5824 393.966 91.4515 393.966 92.4281C393.966 93.6976 394.142 94.7133 394.493 95.475C394.845 96.2172 395.372 96.7543 396.075 97.0863C396.778 97.4183 397.667 97.5844 398.741 97.5844C400.05 97.5844 401.202 97.2816 402.198 96.6761C403.194 96.0707 403.966 95.3383 404.513 94.4789C405.079 93.6195 405.343 92.8187 405.304 92.0765L406.446 94.5082C406.368 95.2699 406.114 96.1 405.685 96.9984C405.274 97.8773 404.698 98.7269 403.956 99.5472C403.214 100.348 402.335 101.012 401.319 101.539C400.323 102.047 399.2 102.301 397.95 102.301C396.114 102.301 394.503 101.95 393.116 101.246C391.749 100.543 390.685 99.5082 389.923 98.141C389.161 96.7738 388.78 95.0844 388.78 93.0726C388.78 91.5492 389.044 90.1429 389.571 88.8539C390.099 87.5648 390.88 86.4515 391.915 85.514C392.95 84.557 394.249 83.8148 395.811 83.2875C397.393 82.7601 399.22 82.4965 401.29 82.4965H405.685ZM429.292 76.7836V101.715H424.106V70.016H428.999L429.292 76.7836ZM428.032 84.6644L425.923 84.5765C425.903 82.4086 426.147 80.4066 426.655 78.5707C427.183 76.7152 427.925 75.1039 428.882 73.7367C429.858 72.3695 431.02 71.3148 432.368 70.5726C433.716 69.8109 435.21 69.4301 436.851 69.4301C438.14 69.4301 439.311 69.6449 440.366 70.0746C441.421 70.4847 442.319 71.1488 443.061 72.0668C443.804 72.9847 444.37 74.1761 444.761 75.641C445.171 77.0863 445.376 78.8539 445.376 80.9437V101.715H440.19V80.8851C440.19 79.225 440.005 77.8969 439.634 76.9008C439.282 75.8851 438.735 75.1527 437.993 74.7035C437.27 74.2347 436.352 74.0004 435.239 74.0004C434.224 74.0004 433.276 74.2836 432.397 74.85C431.518 75.4164 430.747 76.1976 430.083 77.1937C429.438 78.1898 428.931 79.3324 428.56 80.6215C428.208 81.891 428.032 83.2386 428.032 84.6644ZM152.413 152.016V156.176H137.618V152.016H152.413ZM142.452 144.311H147.638V175.864C147.638 176.938 147.765 177.748 148.018 178.295C148.292 178.842 148.634 179.203 149.044 179.379C149.454 179.555 149.893 179.643 150.362 179.643C150.714 179.643 151.104 179.604 151.534 179.526C151.964 179.428 152.257 179.35 152.413 179.291L152.384 183.715C152.032 183.852 151.563 183.979 150.977 184.096C150.392 184.233 149.649 184.301 148.751 184.301C147.638 184.301 146.602 184.037 145.645 183.51C144.688 182.983 143.917 182.104 143.331 180.873C142.745 179.623 142.452 177.944 142.452 175.834V144.311ZM175.933 184.301C174.038 184.301 172.329 184.018 170.806 183.452C169.282 182.885 167.983 182.026 166.909 180.873C165.835 179.702 165.015 178.227 164.448 176.45C163.882 174.672 163.599 172.573 163.599 170.151V166.577C163.599 163.784 163.921 161.42 164.565 159.487C165.229 157.553 166.118 156 167.231 154.828C168.345 153.637 169.604 152.778 171.011 152.25C172.417 151.703 173.862 151.43 175.347 151.43C177.339 151.43 179.038 151.752 180.444 152.397C181.851 153.041 182.993 153.998 183.872 155.268C184.751 156.537 185.395 158.1 185.806 159.955C186.235 161.811 186.45 163.95 186.45 166.371V169.389H166.645V164.965H181.265V164.233C181.186 162.592 180.962 161.147 180.591 159.897C180.239 158.647 179.653 157.67 178.833 156.967C178.013 156.245 176.851 155.883 175.347 155.883C174.39 155.883 173.501 156.049 172.681 156.381C171.88 156.694 171.186 157.25 170.601 158.051C170.034 158.832 169.585 159.916 169.253 161.303C168.94 162.69 168.784 164.448 168.784 166.577V170.151C168.784 171.85 168.94 173.315 169.253 174.545C169.585 175.756 170.063 176.762 170.688 177.563C171.333 178.344 172.114 178.93 173.032 179.321C173.97 179.692 175.034 179.877 176.226 179.877C177.964 179.877 179.399 179.545 180.532 178.881C181.665 178.198 182.651 177.328 183.491 176.274L186.216 179.526C185.649 180.327 184.907 181.098 183.989 181.84C183.091 182.563 181.977 183.159 180.649 183.627C179.341 184.077 177.768 184.301 175.933 184.301ZM214.247 178.295V161.098C214.247 159.848 214.052 158.842 213.661 158.08C213.29 157.319 212.724 156.762 211.962 156.411C211.22 156.059 210.282 155.883 209.149 155.883C208.056 155.883 207.108 156.108 206.308 156.557C205.526 157.006 204.921 157.602 204.491 158.344C204.081 159.086 203.876 159.907 203.876 160.805H198.69C198.69 159.672 198.935 158.549 199.423 157.436C199.931 156.323 200.653 155.317 201.591 154.418C202.528 153.5 203.651 152.778 204.96 152.25C206.288 151.703 207.772 151.43 209.413 151.43C211.366 151.43 213.095 151.752 214.599 152.397C216.102 153.022 217.284 154.047 218.143 155.473C219.003 156.899 219.433 158.793 219.433 161.157V176.801C219.433 177.856 219.511 178.979 219.667 180.17C219.843 181.362 220.087 182.387 220.399 183.246V183.715H215.038C214.784 183.09 214.589 182.26 214.452 181.225C214.315 180.17 214.247 179.194 214.247 178.295ZM215.067 164.496L215.126 168.305H211.522C210.292 168.305 209.169 168.442 208.153 168.715C207.157 168.989 206.298 169.389 205.575 169.916C204.852 170.424 204.296 171.059 203.905 171.821C203.534 172.582 203.349 173.452 203.349 174.428C203.349 175.698 203.524 176.713 203.876 177.475C204.227 178.217 204.755 178.754 205.458 179.086C206.161 179.418 207.05 179.584 208.124 179.584C209.433 179.584 210.585 179.282 211.581 178.676C212.577 178.071 213.349 177.338 213.895 176.479C214.462 175.62 214.726 174.819 214.686 174.077L215.829 176.508C215.751 177.27 215.497 178.1 215.067 178.998C214.657 179.877 214.081 180.727 213.339 181.547C212.597 182.348 211.718 183.012 210.702 183.539C209.706 184.047 208.583 184.301 207.333 184.301C205.497 184.301 203.886 183.95 202.499 183.246C201.132 182.543 200.067 181.508 199.306 180.141C198.544 178.774 198.163 177.084 198.163 175.073C198.163 173.549 198.427 172.143 198.954 170.854C199.481 169.565 200.263 168.452 201.298 167.514C202.333 166.557 203.632 165.815 205.194 165.287C206.776 164.76 208.602 164.496 210.673 164.496H215.067ZM238.675 158.315V183.715H233.518V152.016H238.382L238.675 158.315ZM237.62 166.664L235.218 166.577C235.198 164.409 235.413 162.407 235.862 160.571C236.311 158.715 236.985 157.104 237.884 155.737C238.802 154.37 239.944 153.315 241.311 152.573C242.698 151.811 244.31 151.43 246.145 151.43C247.356 151.43 248.479 151.645 249.515 152.075C250.569 152.485 251.487 153.139 252.268 154.037C253.05 154.936 253.655 156.088 254.085 157.495C254.534 158.901 254.759 160.6 254.759 162.592V183.715H249.573V162.856C249.573 161.196 249.349 159.868 248.899 158.871C248.47 157.875 247.854 157.153 247.054 156.703C246.253 156.235 245.296 156 244.183 156C242.913 156 241.849 156.284 240.989 156.85C240.149 157.416 239.476 158.198 238.968 159.194C238.479 160.19 238.128 161.332 237.913 162.621C237.718 163.891 237.62 165.239 237.62 166.664ZM254.7 163.676L251.243 164.789C251.224 163.051 251.438 161.381 251.888 159.78C252.337 158.178 253.001 156.752 253.88 155.502C254.778 154.252 255.892 153.266 257.22 152.543C258.548 151.801 260.091 151.43 261.849 151.43C263.294 151.43 264.573 151.655 265.686 152.104C266.8 152.553 267.737 153.246 268.499 154.184C269.28 155.102 269.866 156.284 270.257 157.729C270.647 159.174 270.843 160.893 270.843 162.885V183.715H265.657V162.827C265.657 161.049 265.433 159.672 264.983 158.696C264.554 157.7 263.938 157.006 263.138 156.616C262.337 156.205 261.38 156 260.267 156C259.368 156 258.567 156.205 257.864 156.616C257.181 157.026 256.604 157.592 256.136 158.315C255.667 159.018 255.306 159.828 255.052 160.746C254.817 161.664 254.7 162.641 254.7 163.676ZM300.046 175.6C300.046 174.799 299.851 174.096 299.46 173.491C299.069 172.885 298.425 172.299 297.526 171.733C296.647 171.166 295.456 170.561 293.952 169.916C292.487 169.311 291.169 168.715 289.997 168.129C288.845 167.524 287.868 166.87 287.067 166.166C286.267 165.463 285.651 164.653 285.222 163.735C284.811 162.797 284.606 161.694 284.606 160.424C284.606 159.155 284.841 157.983 285.31 156.909C285.798 155.815 286.481 154.858 287.36 154.037C288.239 153.217 289.294 152.582 290.524 152.133C291.755 151.664 293.132 151.43 294.655 151.43C296.823 151.43 298.669 151.85 300.192 152.69C301.716 153.53 302.878 154.682 303.679 156.147C304.499 157.592 304.909 159.223 304.909 161.039H299.753C299.753 160.161 299.558 159.33 299.167 158.549C298.776 157.768 298.2 157.133 297.438 156.645C296.677 156.137 295.749 155.883 294.655 155.883C293.503 155.883 292.565 156.088 291.843 156.498C291.12 156.909 290.593 157.446 290.261 158.11C289.948 158.754 289.792 159.467 289.792 160.248C289.792 160.834 289.87 161.342 290.026 161.772C290.202 162.182 290.495 162.573 290.905 162.944C291.315 163.295 291.872 163.666 292.575 164.057C293.298 164.428 294.216 164.858 295.329 165.346C297.477 166.186 299.284 167.036 300.749 167.895C302.214 168.754 303.327 169.76 304.089 170.912C304.851 172.065 305.231 173.491 305.231 175.19C305.231 176.577 304.977 177.836 304.47 178.969C303.981 180.082 303.278 181.039 302.36 181.84C301.442 182.641 300.339 183.256 299.05 183.686C297.78 184.096 296.354 184.301 294.772 184.301C292.39 184.301 290.368 183.832 288.708 182.895C287.067 181.938 285.817 180.698 284.958 179.174C284.118 177.631 283.698 175.981 283.698 174.223H288.884C288.942 175.707 289.274 176.86 289.88 177.68C290.505 178.5 291.257 179.067 292.136 179.379C293.015 179.692 293.893 179.848 294.772 179.848C295.925 179.848 296.892 179.682 297.673 179.35C298.454 178.998 299.04 178.5 299.431 177.856C299.841 177.211 300.046 176.459 300.046 175.6ZM337.798 138.715H342.983V177.563L342.544 183.715H337.798V138.715ZM360.767 166.43V169.389C360.767 171.889 360.532 174.077 360.063 175.952C359.614 177.807 358.94 179.36 358.042 180.61C357.143 181.84 356.05 182.768 354.761 183.393C353.472 183.998 351.997 184.301 350.337 184.301C348.696 184.301 347.28 183.969 346.089 183.305C344.897 182.641 343.901 181.684 343.101 180.434C342.3 179.184 341.665 177.67 341.196 175.893C340.747 174.116 340.435 172.114 340.259 169.887V165.932C340.435 163.686 340.747 161.674 341.196 159.897C341.645 158.1 342.27 156.577 343.071 155.327C343.872 154.057 344.868 153.09 346.06 152.426C347.251 151.762 348.667 151.43 350.308 151.43C351.987 151.43 353.472 151.723 354.761 152.309C356.069 152.895 357.163 153.803 358.042 155.034C358.94 156.245 359.614 157.797 360.063 159.692C360.532 161.567 360.767 163.813 360.767 166.43ZM355.581 169.389V166.43C355.581 164.672 355.464 163.139 355.229 161.83C355.015 160.522 354.653 159.438 354.145 158.578C353.638 157.719 352.954 157.075 352.095 156.645C351.255 156.215 350.21 156 348.96 156C347.905 156 346.977 156.215 346.177 156.645C345.395 157.075 344.722 157.661 344.155 158.403C343.589 159.125 343.12 159.955 342.749 160.893C342.378 161.811 342.104 162.768 341.929 163.764V172.084C342.183 173.354 342.583 174.575 343.13 175.746C343.696 176.899 344.458 177.846 345.415 178.588C346.372 179.33 347.563 179.702 348.989 179.702C350.181 179.702 351.186 179.496 352.007 179.086C352.847 178.676 353.53 178.051 354.058 177.211C354.585 176.352 354.966 175.278 355.2 173.989C355.454 172.68 355.581 171.147 355.581 169.389ZM384.726 184.301C382.831 184.301 381.122 184.018 379.599 183.452C378.075 182.885 376.776 182.026 375.702 180.873C374.628 179.702 373.808 178.227 373.241 176.45C372.675 174.672 372.392 172.573 372.392 170.151V166.577C372.392 163.784 372.714 161.42 373.358 159.487C374.022 157.553 374.911 156 376.024 154.828C377.138 153.637 378.397 152.778 379.804 152.25C381.21 151.703 382.655 151.43 384.14 151.43C386.132 151.43 387.831 151.752 389.237 152.397C390.643 153.041 391.786 153.998 392.665 155.268C393.544 156.537 394.188 158.1 394.599 159.955C395.028 161.811 395.243 163.95 395.243 166.371V169.389H375.438V164.965H390.058V164.233C389.979 162.592 389.755 161.147 389.384 159.897C389.032 158.647 388.446 157.67 387.626 156.967C386.806 156.245 385.643 155.883 384.14 155.883C383.183 155.883 382.294 156.049 381.474 156.381C380.673 156.694 379.979 157.25 379.393 158.051C378.827 158.832 378.378 159.916 378.046 161.303C377.733 162.69 377.577 164.448 377.577 166.577V170.151C377.577 171.85 377.733 173.315 378.046 174.545C378.378 175.756 378.856 176.762 379.481 177.563C380.126 178.344 380.907 178.93 381.825 179.321C382.763 179.692 383.827 179.877 385.018 179.877C386.757 179.877 388.192 179.545 389.325 178.881C390.458 178.198 391.444 177.328 392.284 176.274L395.009 179.526C394.442 180.327 393.7 181.098 392.782 181.84C391.884 182.563 390.77 183.159 389.442 183.627C388.134 184.077 386.561 184.301 384.726 184.301ZM418.001 171.703H412.815C412.835 169.828 412.981 168.295 413.255 167.104C413.528 165.893 413.977 164.789 414.602 163.793C415.227 162.797 416.067 161.664 417.122 160.395C417.825 159.477 418.489 158.618 419.114 157.817C419.759 156.996 420.276 156.118 420.667 155.18C421.058 154.223 421.253 153.08 421.253 151.752C421.253 150.405 421.058 149.243 420.667 148.266C420.296 147.289 419.739 146.537 418.997 146.01C418.274 145.483 417.386 145.219 416.331 145.219C415.491 145.219 414.671 145.424 413.87 145.834C413.089 146.245 412.435 146.879 411.907 147.739C411.399 148.578 411.145 149.682 411.145 151.049H405.96C405.999 148.842 406.468 146.948 407.366 145.366C408.284 143.784 409.515 142.573 411.058 141.733C412.62 140.893 414.378 140.473 416.331 140.473C418.46 140.473 420.276 140.922 421.78 141.821C423.284 142.719 424.427 144.008 425.208 145.688C426.009 147.348 426.409 149.321 426.409 151.606C426.409 153.364 426.087 154.985 425.442 156.469C424.817 157.934 424.026 159.311 423.069 160.6C422.112 161.889 421.126 163.12 420.11 164.291C419.27 165.287 418.704 166.411 418.411 167.661C418.138 168.911 418.001 170.258 418.001 171.703ZM412.698 180.991C412.698 180.112 412.942 179.37 413.431 178.764C413.938 178.159 414.671 177.856 415.628 177.856C416.604 177.856 417.337 178.159 417.825 178.764C418.333 179.37 418.587 180.112 418.587 180.991C418.587 181.83 418.333 182.553 417.825 183.159C417.337 183.764 416.604 184.067 415.628 184.067C414.671 184.067 413.938 183.764 413.431 183.159C412.942 182.553 412.698 181.83 412.698 180.991Z" fill="#63438C"/>
<path d="M99.8458 222.267V243.595H96.1983V222.267H99.8458ZM106.54 222.267V225.196H89.5626V222.267H106.54ZM114.582 243.888C113.41 243.888 112.351 243.697 111.403 243.316C110.466 242.926 109.665 242.384 109.001 241.69C108.347 240.997 107.844 240.182 107.492 239.244C107.141 238.307 106.965 237.296 106.965 236.212V235.626C106.965 234.386 107.146 233.263 107.507 232.257C107.868 231.251 108.371 230.392 109.016 229.679C109.66 228.956 110.422 228.404 111.301 228.023C112.18 227.643 113.132 227.452 114.157 227.452C115.29 227.452 116.281 227.643 117.131 228.023C117.981 228.404 118.684 228.941 119.24 229.635C119.807 230.318 120.227 231.134 120.5 232.081C120.783 233.028 120.925 234.073 120.925 235.216V236.725H108.679V234.19H117.439V233.912C117.419 233.277 117.292 232.682 117.058 232.125C116.833 231.568 116.486 231.119 116.018 230.777C115.549 230.436 114.924 230.265 114.143 230.265C113.557 230.265 113.034 230.392 112.575 230.646C112.126 230.89 111.75 231.246 111.447 231.715C111.145 232.184 110.91 232.75 110.744 233.414C110.588 234.068 110.51 234.806 110.51 235.626V236.212C110.51 236.905 110.603 237.55 110.788 238.146C110.983 238.732 111.267 239.244 111.638 239.684C112.009 240.123 112.458 240.47 112.985 240.724C113.513 240.968 114.113 241.09 114.787 241.09C115.637 241.09 116.394 240.919 117.058 240.577C117.722 240.235 118.298 239.752 118.786 239.127L120.647 240.929C120.305 241.427 119.86 241.905 119.314 242.364C118.767 242.814 118.098 243.18 117.307 243.463C116.525 243.746 115.617 243.888 114.582 243.888ZM132.614 240.416V232.857C132.614 232.291 132.512 231.803 132.307 231.393C132.102 230.982 131.789 230.665 131.369 230.44C130.959 230.216 130.441 230.104 129.816 230.104C129.24 230.104 128.742 230.201 128.322 230.397C127.902 230.592 127.575 230.856 127.341 231.188C127.107 231.52 126.989 231.896 126.989 232.315H123.474C123.474 231.69 123.625 231.085 123.928 230.499C124.231 229.913 124.67 229.391 125.246 228.932C125.822 228.473 126.511 228.111 127.312 227.848C128.112 227.584 129.011 227.452 130.007 227.452C131.198 227.452 132.253 227.652 133.171 228.053C134.099 228.453 134.826 229.059 135.354 229.869C135.891 230.67 136.159 231.676 136.159 232.887V239.933C136.159 240.655 136.208 241.305 136.306 241.881C136.413 242.447 136.565 242.94 136.76 243.36V243.595H133.142C132.976 243.214 132.844 242.731 132.746 242.145C132.658 241.549 132.614 240.973 132.614 240.416ZM133.127 233.956L133.156 236.139H130.622C129.968 236.139 129.392 236.202 128.894 236.329C128.396 236.446 127.981 236.622 127.648 236.857C127.316 237.091 127.067 237.374 126.901 237.706C126.735 238.038 126.652 238.414 126.652 238.834C126.652 239.254 126.75 239.64 126.945 239.991C127.141 240.333 127.424 240.602 127.795 240.797C128.176 240.992 128.635 241.09 129.172 241.09C129.895 241.09 130.524 240.943 131.062 240.65C131.608 240.348 132.038 239.982 132.351 239.552C132.663 239.112 132.829 238.697 132.849 238.307L133.991 239.874C133.874 240.274 133.674 240.704 133.391 241.163C133.107 241.622 132.736 242.062 132.277 242.482C131.828 242.892 131.286 243.229 130.651 243.492C130.026 243.756 129.304 243.888 128.483 243.888C127.448 243.888 126.525 243.683 125.715 243.273C124.904 242.853 124.27 242.291 123.811 241.588C123.352 240.875 123.122 240.069 123.122 239.171C123.122 238.331 123.278 237.589 123.591 236.944C123.913 236.29 124.382 235.743 124.997 235.304C125.622 234.864 126.384 234.532 127.282 234.308C128.181 234.073 129.206 233.956 130.358 233.956H133.127ZM143.381 230.968V243.595H139.851V227.745H143.176L143.381 230.968ZM142.81 235.084L141.608 235.069C141.608 233.976 141.745 232.965 142.019 232.037C142.292 231.109 142.692 230.304 143.22 229.62C143.747 228.927 144.401 228.395 145.183 228.023C145.974 227.643 146.887 227.452 147.922 227.452C148.645 227.452 149.304 227.56 149.899 227.774C150.505 227.98 151.027 228.307 151.467 228.756C151.916 229.205 152.258 229.781 152.492 230.484C152.736 231.188 152.858 232.037 152.858 233.033V243.595H149.328V233.341C149.328 232.569 149.211 231.964 148.977 231.524C148.752 231.085 148.425 230.773 147.995 230.587C147.575 230.392 147.072 230.294 146.486 230.294C145.822 230.294 145.256 230.421 144.787 230.675C144.328 230.929 143.952 231.275 143.659 231.715C143.366 232.154 143.151 232.662 143.015 233.238C142.878 233.815 142.81 234.43 142.81 235.084ZM152.639 234.147L150.983 234.513C150.983 233.556 151.115 232.652 151.379 231.803C151.652 230.943 152.048 230.191 152.565 229.547C153.093 228.893 153.742 228.38 154.514 228.009C155.285 227.638 156.169 227.452 157.165 227.452C157.976 227.452 158.698 227.565 159.333 227.789C159.978 228.004 160.524 228.346 160.974 228.815C161.423 229.283 161.765 229.894 161.999 230.646C162.233 231.388 162.351 232.286 162.351 233.341V243.595H158.806V233.326C158.806 232.525 158.689 231.905 158.454 231.466C158.23 231.026 157.907 230.724 157.487 230.558C157.067 230.382 156.565 230.294 155.979 230.294C155.432 230.294 154.948 230.397 154.528 230.602C154.118 230.797 153.772 231.075 153.488 231.437C153.205 231.788 152.99 232.193 152.844 232.652C152.707 233.111 152.639 233.609 152.639 234.147ZM174.875 239.303C174.875 238.951 174.787 238.634 174.611 238.351C174.436 238.058 174.099 237.794 173.601 237.56C173.112 237.325 172.39 237.11 171.433 236.915C170.593 236.73 169.821 236.51 169.118 236.256C168.425 235.992 167.829 235.675 167.331 235.304C166.833 234.933 166.447 234.493 166.174 233.985C165.9 233.478 165.764 232.892 165.764 232.228C165.764 231.583 165.905 230.973 166.189 230.397C166.472 229.82 166.877 229.313 167.404 228.873C167.932 228.434 168.571 228.087 169.323 227.833C170.085 227.579 170.935 227.452 171.872 227.452C173.2 227.452 174.338 227.677 175.285 228.126C176.242 228.565 176.975 229.166 177.482 229.928C177.99 230.68 178.244 231.529 178.244 232.477H174.714C174.714 232.057 174.607 231.666 174.392 231.305C174.187 230.934 173.874 230.636 173.454 230.411C173.034 230.177 172.507 230.06 171.872 230.06C171.267 230.06 170.764 230.157 170.363 230.353C169.973 230.538 169.68 230.782 169.484 231.085C169.299 231.388 169.206 231.72 169.206 232.081C169.206 232.345 169.255 232.584 169.353 232.799C169.46 233.004 169.636 233.194 169.88 233.37C170.124 233.536 170.456 233.692 170.876 233.839C171.306 233.985 171.843 234.127 172.487 234.264C173.698 234.518 174.738 234.845 175.607 235.245C176.486 235.636 177.16 236.144 177.629 236.769C178.098 237.384 178.332 238.165 178.332 239.112C178.332 239.815 178.181 240.46 177.878 241.046C177.585 241.622 177.155 242.125 176.589 242.555C176.023 242.975 175.344 243.302 174.553 243.536C173.772 243.771 172.893 243.888 171.916 243.888C170.481 243.888 169.265 243.634 168.269 243.126C167.273 242.608 166.516 241.949 165.998 241.148C165.49 240.338 165.236 239.498 165.236 238.629H168.649C168.689 239.283 168.869 239.806 169.191 240.196C169.523 240.577 169.934 240.856 170.422 241.031C170.92 241.197 171.433 241.28 171.96 241.28C172.595 241.28 173.127 241.197 173.557 241.031C173.986 240.856 174.314 240.621 174.538 240.328C174.763 240.025 174.875 239.684 174.875 239.303ZM197.829 240.416V232.857C197.829 232.291 197.727 231.803 197.522 231.393C197.316 230.982 197.004 230.665 196.584 230.44C196.174 230.216 195.656 230.104 195.031 230.104C194.455 230.104 193.957 230.201 193.537 230.397C193.117 230.592 192.79 230.856 192.556 231.188C192.321 231.52 192.204 231.896 192.204 232.315H188.689C188.689 231.69 188.84 231.085 189.143 230.499C189.445 229.913 189.885 229.391 190.461 228.932C191.037 228.473 191.726 228.111 192.526 227.848C193.327 227.584 194.226 227.452 195.222 227.452C196.413 227.452 197.468 227.652 198.386 228.053C199.314 228.453 200.041 229.059 200.568 229.869C201.106 230.67 201.374 231.676 201.374 232.887V239.933C201.374 240.655 201.423 241.305 201.521 241.881C201.628 242.447 201.779 242.94 201.975 243.36V243.595H198.357C198.19 243.214 198.059 242.731 197.961 242.145C197.873 241.549 197.829 240.973 197.829 240.416ZM198.342 233.956L198.371 236.139H195.837C195.183 236.139 194.607 236.202 194.108 236.329C193.61 236.446 193.195 236.622 192.863 236.857C192.531 237.091 192.282 237.374 192.116 237.706C191.95 238.038 191.867 238.414 191.867 238.834C191.867 239.254 191.965 239.64 192.16 239.991C192.356 240.333 192.639 240.602 193.01 240.797C193.391 240.992 193.85 241.09 194.387 241.09C195.109 241.09 195.739 240.943 196.276 240.65C196.823 240.348 197.253 239.982 197.565 239.552C197.878 239.112 198.044 238.697 198.064 238.307L199.206 239.874C199.089 240.274 198.889 240.704 198.606 241.163C198.322 241.622 197.951 242.062 197.492 242.482C197.043 242.892 196.501 243.229 195.866 243.492C195.241 243.756 194.519 243.888 193.698 243.888C192.663 243.888 191.74 243.683 190.93 243.273C190.119 242.853 189.484 242.291 189.025 241.588C188.566 240.875 188.337 240.069 188.337 239.171C188.337 238.331 188.493 237.589 188.806 236.944C189.128 236.29 189.597 235.743 190.212 235.304C190.837 234.864 191.599 234.532 192.497 234.308C193.396 234.073 194.421 233.956 195.573 233.956H198.342ZM212.331 227.745V230.323H203.396V227.745H212.331ZM205.974 223.863H209.504V239.215C209.504 239.703 209.572 240.079 209.709 240.343C209.856 240.597 210.056 240.768 210.31 240.856C210.564 240.943 210.861 240.987 211.203 240.987C211.447 240.987 211.682 240.973 211.906 240.943C212.131 240.914 212.312 240.885 212.448 240.856L212.463 243.551C212.17 243.639 211.828 243.717 211.438 243.785C211.057 243.854 210.617 243.888 210.119 243.888C209.309 243.888 208.591 243.746 207.966 243.463C207.341 243.17 206.853 242.696 206.501 242.042C206.149 241.388 205.974 240.519 205.974 239.435V223.863ZM234.099 238.102C234.099 237.662 234.03 237.272 233.894 236.93C233.767 236.588 233.537 236.275 233.205 235.992C232.873 235.709 232.404 235.436 231.799 235.172C231.203 234.898 230.441 234.62 229.514 234.337C228.498 234.024 227.561 233.678 226.701 233.297C225.852 232.906 225.109 232.457 224.475 231.949C223.84 231.432 223.347 230.841 222.995 230.177C222.644 229.503 222.468 228.727 222.468 227.848C222.468 226.979 222.648 226.188 223.01 225.475C223.381 224.762 223.903 224.147 224.577 223.629C225.261 223.102 226.066 222.696 226.994 222.413C227.922 222.12 228.947 221.974 230.07 221.974C231.652 221.974 233.015 222.267 234.157 222.853C235.31 223.439 236.193 224.225 236.809 225.211C237.434 226.197 237.746 227.286 237.746 228.478H234.099C234.099 227.774 233.947 227.154 233.645 226.617C233.352 226.07 232.902 225.641 232.297 225.328C231.701 225.016 230.944 224.859 230.026 224.859C229.157 224.859 228.435 224.991 227.858 225.255C227.282 225.519 226.853 225.875 226.569 226.324C226.286 226.773 226.145 227.281 226.145 227.848C226.145 228.248 226.237 228.614 226.423 228.946C226.608 229.269 226.892 229.571 227.273 229.855C227.653 230.128 228.132 230.387 228.708 230.631C229.284 230.875 229.963 231.109 230.744 231.334C231.926 231.686 232.956 232.076 233.835 232.506C234.714 232.926 235.446 233.404 236.032 233.941C236.618 234.479 237.058 235.089 237.351 235.773C237.644 236.446 237.79 237.213 237.79 238.072C237.79 238.971 237.609 239.781 237.248 240.504C236.887 241.217 236.369 241.827 235.695 242.335C235.031 242.833 234.231 243.219 233.293 243.492C232.365 243.756 231.33 243.888 230.188 243.888C229.162 243.888 228.151 243.751 227.155 243.478C226.169 243.204 225.271 242.789 224.46 242.232C223.649 241.666 223.005 240.963 222.526 240.123C222.048 239.273 221.809 238.282 221.809 237.149H225.485C225.485 237.843 225.603 238.434 225.837 238.922C226.081 239.41 226.418 239.811 226.848 240.123C227.277 240.426 227.775 240.65 228.342 240.797C228.918 240.943 229.533 241.017 230.188 241.017C231.047 241.017 231.765 240.895 232.341 240.65C232.927 240.406 233.366 240.065 233.659 239.625C233.952 239.186 234.099 238.678 234.099 238.102ZM247.238 243.595H242.683L242.712 240.68H247.238C248.557 240.68 249.66 240.392 250.549 239.815C251.447 239.239 252.121 238.414 252.57 237.34C253.029 236.266 253.259 234.986 253.259 233.502V232.345C253.259 231.192 253.127 230.172 252.863 229.283C252.609 228.395 252.229 227.648 251.721 227.042C251.223 226.437 250.607 225.978 249.875 225.665C249.152 225.353 248.317 225.196 247.37 225.196H242.595V222.267H247.37C248.786 222.267 250.08 222.506 251.252 222.984C252.424 223.453 253.435 224.132 254.284 225.021C255.144 225.909 255.803 226.974 256.262 228.214C256.721 229.454 256.95 230.841 256.95 232.374V233.502C256.95 235.035 256.721 236.422 256.262 237.662C255.803 238.902 255.144 239.967 254.284 240.856C253.425 241.734 252.399 242.413 251.208 242.892C250.026 243.36 248.703 243.595 247.238 243.595ZM244.719 222.267V243.595H241.042V222.267H244.719ZM282.204 231.173V234.088H270.881V231.173H282.204ZM271.789 222.267V243.595H268.112V222.267H271.789ZM285.031 222.267V243.595H281.369V222.267H285.031ZM297.995 240.416V232.857C297.995 232.291 297.893 231.803 297.688 231.393C297.482 230.982 297.17 230.665 296.75 230.44C296.34 230.216 295.822 230.104 295.197 230.104C294.621 230.104 294.123 230.201 293.703 230.397C293.283 230.592 292.956 230.856 292.722 231.188C292.487 231.52 292.37 231.896 292.37 232.315H288.855C288.855 231.69 289.006 231.085 289.309 230.499C289.611 229.913 290.051 229.391 290.627 228.932C291.203 228.473 291.892 228.111 292.692 227.848C293.493 227.584 294.392 227.452 295.388 227.452C296.579 227.452 297.634 227.652 298.552 228.053C299.48 228.453 300.207 229.059 300.734 229.869C301.272 230.67 301.54 231.676 301.54 232.887V239.933C301.54 240.655 301.589 241.305 301.687 241.881C301.794 242.447 301.945 242.94 302.141 243.36V243.595H298.523C298.357 243.214 298.225 242.731 298.127 242.145C298.039 241.549 297.995 240.973 297.995 240.416ZM298.508 233.956L298.537 236.139H296.003C295.349 236.139 294.773 236.202 294.274 236.329C293.776 236.446 293.361 236.622 293.029 236.857C292.697 237.091 292.448 237.374 292.282 237.706C292.116 238.038 292.033 238.414 292.033 238.834C292.033 239.254 292.131 239.64 292.326 239.991C292.522 240.333 292.805 240.602 293.176 240.797C293.557 240.992 294.016 241.09 294.553 241.09C295.275 241.09 295.905 240.943 296.442 240.65C296.989 240.348 297.419 239.982 297.732 239.552C298.044 239.112 298.21 238.697 298.23 238.307L299.372 239.874C299.255 240.274 299.055 240.704 298.772 241.163C298.488 241.622 298.117 242.062 297.658 242.482C297.209 242.892 296.667 243.229 296.032 243.492C295.407 243.756 294.685 243.888 293.864 243.888C292.829 243.888 291.906 243.683 291.096 243.273C290.285 242.853 289.65 242.291 289.191 241.588C288.732 240.875 288.503 240.069 288.503 239.171C288.503 238.331 288.659 237.589 288.972 236.944C289.294 236.29 289.763 235.743 290.378 235.304C291.003 234.864 291.765 234.532 292.663 234.308C293.562 234.073 294.587 233.956 295.739 233.956H298.508ZM311.706 241.075C312.282 241.075 312.8 240.963 313.259 240.738C313.728 240.504 314.104 240.182 314.387 239.772C314.68 239.361 314.841 238.888 314.87 238.351H318.195C318.176 239.376 317.873 240.309 317.287 241.148C316.701 241.988 315.925 242.657 314.958 243.155C313.991 243.644 312.922 243.888 311.75 243.888C310.539 243.888 309.484 243.683 308.586 243.273C307.688 242.853 306.94 242.276 306.345 241.544C305.749 240.812 305.3 239.967 304.997 239.01C304.704 238.053 304.558 237.027 304.558 235.934V235.421C304.558 234.327 304.704 233.302 304.997 232.345C305.3 231.378 305.749 230.528 306.345 229.796C306.94 229.064 307.688 228.492 308.586 228.082C309.484 227.662 310.534 227.452 311.735 227.452C313.005 227.452 314.118 227.706 315.075 228.214C316.032 228.712 316.784 229.41 317.331 230.309C317.888 231.197 318.176 232.232 318.195 233.414H314.87C314.841 232.828 314.694 232.301 314.431 231.832C314.177 231.354 313.815 230.973 313.347 230.69C312.888 230.406 312.336 230.265 311.691 230.265C310.979 230.265 310.388 230.411 309.919 230.704C309.45 230.987 309.084 231.378 308.82 231.876C308.557 232.364 308.366 232.916 308.249 233.531C308.142 234.137 308.088 234.767 308.088 235.421V235.934C308.088 236.588 308.142 237.223 308.249 237.838C308.357 238.453 308.542 239.005 308.806 239.493C309.079 239.972 309.45 240.357 309.919 240.65C310.388 240.934 310.983 241.075 311.706 241.075ZM324.465 221.095V243.595H320.92V221.095H324.465ZM334.309 227.745L327.409 235.392L323.63 239.259L322.707 236.271L325.564 232.74L330.046 227.745H334.309ZM330.808 243.595L325.666 236.153L327.893 233.678L334.895 243.595H330.808ZM345.441 239.303C345.441 238.951 345.354 238.634 345.178 238.351C345.002 238.058 344.665 237.794 344.167 237.56C343.679 237.325 342.956 237.11 341.999 236.915C341.159 236.73 340.388 236.51 339.685 236.256C338.991 235.992 338.396 235.675 337.898 235.304C337.399 234.933 337.014 234.493 336.74 233.985C336.467 233.478 336.33 232.892 336.33 232.228C336.33 231.583 336.472 230.973 336.755 230.397C337.038 229.82 337.443 229.313 337.971 228.873C338.498 228.434 339.138 228.087 339.89 227.833C340.651 227.579 341.501 227.452 342.439 227.452C343.767 227.452 344.904 227.677 345.852 228.126C346.809 228.565 347.541 229.166 348.049 229.928C348.557 230.68 348.811 231.529 348.811 232.477H345.28C345.28 232.057 345.173 231.666 344.958 231.305C344.753 230.934 344.44 230.636 344.021 230.411C343.601 230.177 343.073 230.06 342.439 230.06C341.833 230.06 341.33 230.157 340.93 230.353C340.539 230.538 340.246 230.782 340.051 231.085C339.865 231.388 339.773 231.72 339.773 232.081C339.773 232.345 339.821 232.584 339.919 232.799C340.026 233.004 340.202 233.194 340.446 233.37C340.69 233.536 341.023 233.692 341.442 233.839C341.872 233.985 342.409 234.127 343.054 234.264C344.265 234.518 345.305 234.845 346.174 235.245C347.053 235.636 347.727 236.144 348.195 236.769C348.664 237.384 348.898 238.165 348.898 239.112C348.898 239.815 348.747 240.46 348.444 241.046C348.151 241.622 347.722 242.125 347.155 242.555C346.589 242.975 345.91 243.302 345.119 243.536C344.338 243.771 343.459 243.888 342.482 243.888C341.047 243.888 339.831 243.634 338.835 243.126C337.839 242.608 337.082 241.949 336.565 241.148C336.057 240.338 335.803 239.498 335.803 238.629H339.216C339.255 239.283 339.436 239.806 339.758 240.196C340.09 240.577 340.5 240.856 340.988 241.031C341.486 241.197 341.999 241.28 342.526 241.28C343.161 241.28 343.693 241.197 344.123 241.031C344.553 240.856 344.88 240.621 345.105 240.328C345.329 240.025 345.441 239.684 345.441 239.303ZM365.935 241.075C366.511 241.075 367.028 240.963 367.487 240.738C367.956 240.504 368.332 240.182 368.615 239.772C368.908 239.361 369.069 238.888 369.099 238.351H372.424C372.404 239.376 372.102 240.309 371.516 241.148C370.93 241.988 370.153 242.657 369.187 243.155C368.22 243.644 367.15 243.888 365.979 243.888C364.768 243.888 363.713 243.683 362.815 243.273C361.916 242.853 361.169 242.276 360.573 241.544C359.978 240.812 359.528 239.967 359.226 239.01C358.933 238.053 358.786 237.027 358.786 235.934V235.421C358.786 234.327 358.933 233.302 359.226 232.345C359.528 231.378 359.978 230.528 360.573 229.796C361.169 229.064 361.916 228.492 362.815 228.082C363.713 227.662 364.763 227.452 365.964 227.452C367.233 227.452 368.347 227.706 369.304 228.214C370.261 228.712 371.013 229.41 371.56 230.309C372.116 231.197 372.404 232.232 372.424 233.414H369.099C369.069 232.828 368.923 232.301 368.659 231.832C368.405 231.354 368.044 230.973 367.575 230.69C367.116 230.406 366.565 230.265 365.92 230.265C365.207 230.265 364.616 230.411 364.148 230.704C363.679 230.987 363.313 231.378 363.049 231.876C362.785 232.364 362.595 232.916 362.478 233.531C362.37 234.137 362.316 234.767 362.316 235.421V235.934C362.316 236.588 362.37 237.223 362.478 237.838C362.585 238.453 362.771 239.005 363.034 239.493C363.308 239.972 363.679 240.357 364.148 240.65C364.616 240.934 365.212 241.075 365.935 241.075ZM384.069 240.416V232.857C384.069 232.291 383.967 231.803 383.762 231.393C383.557 230.982 383.244 230.665 382.824 230.44C382.414 230.216 381.897 230.104 381.272 230.104C380.695 230.104 380.197 230.201 379.777 230.397C379.357 230.592 379.03 230.856 378.796 231.188C378.562 231.52 378.444 231.896 378.444 232.315H374.929C374.929 231.69 375.08 231.085 375.383 230.499C375.686 229.913 376.125 229.391 376.701 228.932C377.277 228.473 377.966 228.111 378.767 227.848C379.567 227.584 380.466 227.452 381.462 227.452C382.653 227.452 383.708 227.652 384.626 228.053C385.554 228.453 386.281 229.059 386.809 229.869C387.346 230.67 387.614 231.676 387.614 232.887V239.933C387.614 240.655 387.663 241.305 387.761 241.881C387.868 242.447 388.02 242.94 388.215 243.36V243.595H384.597C384.431 243.214 384.299 242.731 384.201 242.145C384.113 241.549 384.069 240.973 384.069 240.416ZM384.582 233.956L384.611 236.139H382.077C381.423 236.139 380.847 236.202 380.349 236.329C379.851 236.446 379.436 236.622 379.104 236.857C378.772 237.091 378.523 237.374 378.357 237.706C378.19 238.038 378.107 238.414 378.107 238.834C378.107 239.254 378.205 239.64 378.4 239.991C378.596 240.333 378.879 240.602 379.25 240.797C379.631 240.992 380.09 241.09 380.627 241.09C381.35 241.09 381.98 240.943 382.517 240.65C383.064 240.348 383.493 239.982 383.806 239.552C384.118 239.112 384.284 238.697 384.304 238.307L385.446 239.874C385.329 240.274 385.129 240.704 384.846 241.163C384.563 241.622 384.191 242.062 383.732 242.482C383.283 242.892 382.741 243.229 382.107 243.492C381.482 243.756 380.759 243.888 379.939 243.888C378.903 243.888 377.981 243.683 377.17 243.273C376.359 242.853 375.725 242.291 375.266 241.588C374.807 240.875 374.577 240.069 374.577 239.171C374.577 238.331 374.733 237.589 375.046 236.944C375.368 236.29 375.837 235.743 376.452 235.304C377.077 234.864 377.839 234.532 378.737 234.308C379.636 234.073 380.661 233.956 381.814 233.956H384.582ZM394.807 231.129V243.595H391.276V227.745H394.602L394.807 231.129ZM394.177 235.084L393.034 235.069C393.044 233.946 393.2 232.916 393.503 231.979C393.815 231.041 394.245 230.235 394.792 229.562C395.349 228.888 396.013 228.37 396.784 228.009C397.556 227.638 398.415 227.452 399.362 227.452C400.124 227.452 400.813 227.56 401.428 227.774C402.053 227.98 402.585 228.316 403.024 228.785C403.474 229.254 403.815 229.864 404.05 230.616C404.284 231.358 404.401 232.272 404.401 233.356V243.595H400.857V233.341C400.857 232.579 400.744 231.979 400.52 231.539C400.305 231.09 399.987 230.773 399.567 230.587C399.157 230.392 398.645 230.294 398.029 230.294C397.424 230.294 396.882 230.421 396.403 230.675C395.925 230.929 395.52 231.275 395.188 231.715C394.865 232.154 394.616 232.662 394.44 233.238C394.265 233.815 394.177 234.43 394.177 235.084ZM418.962 221.095V243.595H415.446V221.095H418.962ZM418.347 235.084L417.204 235.069C417.214 233.976 417.365 232.965 417.658 232.037C417.961 231.109 418.381 230.304 418.918 229.62C419.465 228.927 420.119 228.395 420.881 228.023C421.643 227.643 422.487 227.452 423.415 227.452C424.196 227.452 424.899 227.56 425.524 227.774C426.159 227.989 426.706 228.336 427.165 228.815C427.624 229.283 427.971 229.898 428.205 230.66C428.449 231.412 428.571 232.33 428.571 233.414V243.595H425.026V233.385C425.026 232.623 424.914 232.018 424.69 231.568C424.475 231.119 424.157 230.797 423.737 230.602C423.317 230.397 422.805 230.294 422.199 230.294C421.565 230.294 421.003 230.421 420.515 230.675C420.036 230.929 419.636 231.275 419.314 231.715C418.991 232.154 418.747 232.662 418.581 233.238C418.425 233.815 418.347 234.43 418.347 235.084ZM441.081 240.416V232.857C441.081 232.291 440.979 231.803 440.773 231.393C440.568 230.982 440.256 230.665 439.836 230.44C439.426 230.216 438.908 230.104 438.283 230.104C437.707 230.104 437.209 230.201 436.789 230.397C436.369 230.592 436.042 230.856 435.808 231.188C435.573 231.52 435.456 231.896 435.456 232.315H431.94C431.94 231.69 432.092 231.085 432.395 230.499C432.697 229.913 433.137 229.391 433.713 228.932C434.289 228.473 434.978 228.111 435.778 227.848C436.579 227.584 437.478 227.452 438.474 227.452C439.665 227.452 440.72 227.652 441.638 228.053C442.565 228.453 443.293 229.059 443.82 229.869C444.357 230.67 444.626 231.676 444.626 232.887V239.933C444.626 240.655 444.675 241.305 444.773 241.881C444.88 242.447 445.031 242.94 445.227 243.36V243.595H441.608C441.442 243.214 441.311 242.731 441.213 242.145C441.125 241.549 441.081 240.973 441.081 240.416ZM441.594 233.956L441.623 236.139H439.089C438.435 236.139 437.858 236.202 437.36 236.329C436.862 236.446 436.447 236.622 436.115 236.857C435.783 237.091 435.534 237.374 435.368 237.706C435.202 238.038 435.119 238.414 435.119 238.834C435.119 239.254 435.217 239.64 435.412 239.991C435.607 240.333 435.891 240.602 436.262 240.797C436.643 240.992 437.102 241.09 437.639 241.09C438.361 241.09 438.991 240.943 439.528 240.65C440.075 240.348 440.505 239.982 440.817 239.552C441.13 239.112 441.296 238.697 441.315 238.307L442.458 239.874C442.341 240.274 442.141 240.704 441.857 241.163C441.574 241.622 441.203 242.062 440.744 242.482C440.295 242.892 439.753 243.229 439.118 243.492C438.493 243.756 437.771 243.888 436.95 243.888C435.915 243.888 434.992 243.683 434.182 243.273C433.371 242.853 432.736 242.291 432.277 241.588C431.818 240.875 431.589 240.069 431.589 239.171C431.589 238.331 431.745 237.589 432.058 236.944C432.38 236.29 432.849 235.743 433.464 235.304C434.089 234.864 434.851 234.532 435.749 234.308C436.648 234.073 437.673 233.956 438.825 233.956H441.594ZM453.239 240.797L457.121 227.745H460.783L455.275 243.595H452.99L453.239 240.797ZM450.266 227.745L454.221 240.856L454.411 243.595H452.126L446.589 227.745H450.266ZM469.748 243.888C468.576 243.888 467.517 243.697 466.569 243.316C465.632 242.926 464.831 242.384 464.167 241.69C463.513 240.997 463.01 240.182 462.658 239.244C462.307 238.307 462.131 237.296 462.131 236.212V235.626C462.131 234.386 462.312 233.263 462.673 232.257C463.034 231.251 463.537 230.392 464.182 229.679C464.826 228.956 465.588 228.404 466.467 228.023C467.346 227.643 468.298 227.452 469.323 227.452C470.456 227.452 471.447 227.643 472.297 228.023C473.147 228.404 473.85 228.941 474.406 229.635C474.973 230.318 475.393 231.134 475.666 232.081C475.949 233.028 476.091 234.073 476.091 235.216V236.725H463.845V234.19H472.605V233.912C472.585 233.277 472.458 232.682 472.224 232.125C471.999 231.568 471.652 231.119 471.184 230.777C470.715 230.436 470.09 230.265 469.309 230.265C468.723 230.265 468.2 230.392 467.741 230.646C467.292 230.89 466.916 231.246 466.613 231.715C466.311 232.184 466.076 232.75 465.91 233.414C465.754 234.068 465.676 234.806 465.676 235.626V236.212C465.676 236.905 465.769 237.55 465.954 238.146C466.149 238.732 466.433 239.244 466.804 239.684C467.175 240.123 467.624 240.47 468.151 240.724C468.679 240.968 469.279 241.09 469.953 241.09C470.803 241.09 471.56 240.919 472.224 240.577C472.888 240.235 473.464 239.752 473.952 239.127L475.813 240.929C475.471 241.427 475.026 241.905 474.48 242.364C473.933 242.814 473.264 243.18 472.473 243.463C471.691 243.746 470.783 243.888 469.748 243.888ZM198.737 274.859V262.745H202.282V278.595H198.942L198.737 274.859ZM199.235 271.564L200.422 271.534C200.422 272.599 200.305 273.58 200.07 274.479C199.836 275.367 199.475 276.144 198.986 276.808C198.498 277.462 197.873 277.975 197.111 278.346C196.35 278.707 195.437 278.888 194.372 278.888C193.601 278.888 192.893 278.775 192.248 278.551C191.604 278.326 191.047 277.98 190.578 277.511C190.119 277.042 189.763 276.432 189.509 275.68C189.255 274.928 189.128 274.029 189.128 272.984V262.745H192.658V273.014C192.658 273.59 192.727 274.073 192.863 274.464C193 274.845 193.186 275.152 193.42 275.387C193.654 275.621 193.928 275.787 194.24 275.885C194.553 275.982 194.885 276.031 195.236 276.031C196.242 276.031 197.033 275.836 197.609 275.445C198.195 275.045 198.61 274.508 198.855 273.834C199.108 273.16 199.235 272.403 199.235 271.564ZM209.445 265.792V284.689H205.915V262.745H209.167L209.445 265.792ZM219.773 270.523V270.831C219.773 271.983 219.636 273.053 219.362 274.039C219.099 275.016 218.703 275.87 218.176 276.603C217.658 277.325 217.019 277.887 216.257 278.287C215.495 278.688 214.616 278.888 213.62 278.888C212.634 278.888 211.77 278.707 211.027 278.346C210.295 277.975 209.675 277.452 209.167 276.778C208.659 276.105 208.249 275.314 207.937 274.405C207.634 273.487 207.419 272.482 207.292 271.388V270.201C207.419 269.039 207.634 267.984 207.937 267.037C208.249 266.09 208.659 265.274 209.167 264.591C209.675 263.907 210.295 263.38 211.027 263.009C211.76 262.638 212.614 262.452 213.591 262.452C214.587 262.452 215.471 262.648 216.242 263.038C217.014 263.419 217.663 263.966 218.19 264.679C218.718 265.382 219.113 266.232 219.377 267.228C219.641 268.214 219.773 269.313 219.773 270.523ZM216.242 270.831V270.523C216.242 269.791 216.174 269.112 216.037 268.487C215.9 267.853 215.686 267.296 215.393 266.817C215.1 266.339 214.724 265.968 214.265 265.704C213.815 265.431 213.273 265.294 212.639 265.294C212.014 265.294 211.477 265.401 211.027 265.616C210.578 265.821 210.202 266.109 209.899 266.481C209.597 266.852 209.362 267.286 209.196 267.784C209.03 268.273 208.913 268.805 208.845 269.381V272.223C208.962 272.926 209.162 273.57 209.445 274.156C209.729 274.742 210.129 275.211 210.647 275.563C211.174 275.904 211.848 276.075 212.668 276.075C213.303 276.075 213.845 275.939 214.294 275.665C214.743 275.392 215.109 275.016 215.393 274.537C215.686 274.049 215.9 273.487 216.037 272.853C216.174 272.218 216.242 271.544 216.242 270.831ZM237.512 262.745V265.323H228.576V262.745H237.512ZM231.154 258.863H234.685V274.215C234.685 274.703 234.753 275.079 234.89 275.343C235.036 275.597 235.236 275.768 235.49 275.856C235.744 275.943 236.042 275.987 236.384 275.987C236.628 275.987 236.862 275.973 237.087 275.943C237.312 275.914 237.492 275.885 237.629 275.856L237.644 278.551C237.351 278.639 237.009 278.717 236.618 278.785C236.237 278.854 235.798 278.888 235.3 278.888C234.489 278.888 233.772 278.746 233.147 278.463C232.522 278.17 232.033 277.696 231.682 277.042C231.33 276.388 231.154 275.519 231.154 274.435V258.863ZM239.211 270.846V270.509C239.211 269.366 239.377 268.307 239.709 267.33C240.041 266.344 240.52 265.489 241.145 264.767C241.779 264.034 242.551 263.468 243.459 263.067C244.377 262.657 245.412 262.452 246.565 262.452C247.727 262.452 248.762 262.657 249.67 263.067C250.588 263.468 251.364 264.034 251.999 264.767C252.634 265.489 253.117 266.344 253.449 267.33C253.781 268.307 253.947 269.366 253.947 270.509V270.846C253.947 271.988 253.781 273.048 253.449 274.024C253.117 275.001 252.634 275.856 251.999 276.588C251.364 277.311 250.593 277.877 249.685 278.287C248.776 278.688 247.746 278.888 246.594 278.888C245.432 278.888 244.392 278.688 243.474 278.287C242.565 277.877 241.794 277.311 241.159 276.588C240.524 275.856 240.041 275.001 239.709 274.024C239.377 273.048 239.211 271.988 239.211 270.846ZM242.741 270.509V270.846C242.741 271.559 242.815 272.232 242.961 272.867C243.107 273.502 243.337 274.059 243.649 274.537C243.962 275.016 244.362 275.392 244.851 275.665C245.339 275.939 245.92 276.075 246.594 276.075C247.248 276.075 247.815 275.939 248.293 275.665C248.781 275.392 249.182 275.016 249.494 274.537C249.807 274.059 250.036 273.502 250.183 272.867C250.339 272.232 250.417 271.559 250.417 270.846V270.509C250.417 269.806 250.339 269.142 250.183 268.517C250.036 267.882 249.802 267.32 249.48 266.832C249.167 266.344 248.767 265.963 248.278 265.69C247.8 265.406 247.229 265.265 246.565 265.265C245.9 265.265 245.324 265.406 244.836 265.69C244.357 265.963 243.962 266.344 243.649 266.832C243.337 267.32 243.107 267.882 242.961 268.517C242.815 269.142 242.741 269.806 242.741 270.509ZM278.864 270.992V273.805H263.483L263.366 271.681L272.565 257.267H275.393L272.331 262.511L267.043 270.992H278.864ZM276.198 257.267V278.595H272.668V257.267H276.198ZM292.443 265.792V284.689H288.913V262.745H292.165L292.443 265.792ZM302.771 270.523V270.831C302.771 271.983 302.634 273.053 302.36 274.039C302.097 275.016 301.701 275.87 301.174 276.603C300.656 277.325 300.017 277.887 299.255 278.287C298.493 278.688 297.614 278.888 296.618 278.888C295.632 278.888 294.768 278.707 294.025 278.346C293.293 277.975 292.673 277.452 292.165 276.778C291.657 276.105 291.247 275.314 290.935 274.405C290.632 273.487 290.417 272.482 290.29 271.388V270.201C290.417 269.039 290.632 267.984 290.935 267.037C291.247 266.09 291.657 265.274 292.165 264.591C292.673 263.907 293.293 263.38 294.025 263.009C294.758 262.638 295.612 262.452 296.589 262.452C297.585 262.452 298.469 262.648 299.24 263.038C300.012 263.419 300.661 263.966 301.189 264.679C301.716 265.382 302.111 266.232 302.375 267.228C302.639 268.214 302.771 269.313 302.771 270.523ZM299.24 270.831V270.523C299.24 269.791 299.172 269.112 299.035 268.487C298.898 267.853 298.684 267.296 298.391 266.817C298.098 266.339 297.722 265.968 297.263 265.704C296.814 265.431 296.272 265.294 295.637 265.294C295.012 265.294 294.475 265.401 294.025 265.616C293.576 265.821 293.2 266.109 292.898 266.481C292.595 266.852 292.36 267.286 292.194 267.784C292.028 268.273 291.911 268.805 291.843 269.381V272.223C291.96 272.926 292.16 273.57 292.443 274.156C292.727 274.742 293.127 275.211 293.645 275.563C294.172 275.904 294.846 276.075 295.666 276.075C296.301 276.075 296.843 275.939 297.292 275.665C297.741 275.392 298.107 275.016 298.391 274.537C298.684 274.049 298.898 273.487 299.035 272.853C299.172 272.218 299.24 271.544 299.24 270.831ZM312.761 278.888C311.589 278.888 310.529 278.697 309.582 278.316C308.645 277.926 307.844 277.384 307.18 276.69C306.525 275.997 306.023 275.182 305.671 274.244C305.319 273.307 305.144 272.296 305.144 271.212V270.626C305.144 269.386 305.324 268.263 305.686 267.257C306.047 266.251 306.55 265.392 307.194 264.679C307.839 263.956 308.601 263.404 309.48 263.023C310.358 262.643 311.311 262.452 312.336 262.452C313.469 262.452 314.46 262.643 315.31 263.023C316.159 263.404 316.862 263.941 317.419 264.635C317.985 265.318 318.405 266.134 318.679 267.081C318.962 268.028 319.104 269.073 319.104 270.216V271.725H306.857V269.19H315.617V268.912C315.598 268.277 315.471 267.682 315.236 267.125C315.012 266.568 314.665 266.119 314.196 265.777C313.728 265.436 313.103 265.265 312.321 265.265C311.735 265.265 311.213 265.392 310.754 265.646C310.305 265.89 309.929 266.246 309.626 266.715C309.323 267.184 309.089 267.75 308.923 268.414C308.767 269.068 308.689 269.806 308.689 270.626V271.212C308.689 271.905 308.781 272.55 308.967 273.146C309.162 273.732 309.445 274.244 309.816 274.684C310.188 275.123 310.637 275.47 311.164 275.724C311.691 275.968 312.292 276.09 312.966 276.09C313.815 276.09 314.572 275.919 315.236 275.577C315.9 275.235 316.477 274.752 316.965 274.127L318.825 275.929C318.483 276.427 318.039 276.905 317.492 277.364C316.945 277.814 316.276 278.18 315.485 278.463C314.704 278.746 313.796 278.888 312.761 278.888ZM321.184 270.846V270.509C321.184 269.366 321.35 268.307 321.682 267.33C322.014 266.344 322.492 265.489 323.117 264.767C323.752 264.034 324.523 263.468 325.432 263.067C326.35 262.657 327.385 262.452 328.537 262.452C329.699 262.452 330.734 262.657 331.643 263.067C332.561 263.468 333.337 264.034 333.972 264.767C334.607 265.489 335.09 266.344 335.422 267.33C335.754 268.307 335.92 269.366 335.92 270.509V270.846C335.92 271.988 335.754 273.048 335.422 274.024C335.09 275.001 334.607 275.856 333.972 276.588C333.337 277.311 332.565 277.877 331.657 278.287C330.749 278.688 329.719 278.888 328.566 278.888C327.404 278.888 326.364 278.688 325.446 278.287C324.538 277.877 323.767 277.311 323.132 276.588C322.497 275.856 322.014 275.001 321.682 274.024C321.35 273.048 321.184 271.988 321.184 270.846ZM324.714 270.509V270.846C324.714 271.559 324.787 272.232 324.934 272.867C325.08 273.502 325.31 274.059 325.622 274.537C325.935 275.016 326.335 275.392 326.823 275.665C327.312 275.939 327.893 276.075 328.566 276.075C329.221 276.075 329.787 275.939 330.266 275.665C330.754 275.392 331.154 275.016 331.467 274.537C331.779 274.059 332.009 273.502 332.155 272.867C332.312 272.232 332.39 271.559 332.39 270.846V270.509C332.39 269.806 332.312 269.142 332.155 268.517C332.009 267.882 331.774 267.32 331.452 266.832C331.14 266.344 330.739 265.963 330.251 265.69C329.773 265.406 329.201 265.265 328.537 265.265C327.873 265.265 327.297 265.406 326.809 265.69C326.33 265.963 325.935 266.344 325.622 266.832C325.31 267.32 325.08 267.882 324.934 268.517C324.787 269.142 324.714 269.806 324.714 270.509ZM342.424 265.792V284.689H338.894V262.745H342.146L342.424 265.792ZM352.751 270.523V270.831C352.751 271.983 352.614 273.053 352.341 274.039C352.077 275.016 351.682 275.87 351.154 276.603C350.637 277.325 349.997 277.887 349.235 278.287C348.474 278.688 347.595 278.888 346.599 278.888C345.612 278.888 344.748 278.707 344.006 278.346C343.273 277.975 342.653 277.452 342.146 276.778C341.638 276.105 341.228 275.314 340.915 274.405C340.612 273.487 340.398 272.482 340.271 271.388V270.201C340.398 269.039 340.612 267.984 340.915 267.037C341.228 266.09 341.638 265.274 342.146 264.591C342.653 263.907 343.273 263.38 344.006 263.009C344.738 262.638 345.593 262.452 346.569 262.452C347.565 262.452 348.449 262.648 349.221 263.038C349.992 263.419 350.642 263.966 351.169 264.679C351.696 265.382 352.092 266.232 352.356 267.228C352.619 268.214 352.751 269.313 352.751 270.523ZM349.221 270.831V270.523C349.221 269.791 349.152 269.112 349.016 268.487C348.879 267.853 348.664 267.296 348.371 266.817C348.078 266.339 347.702 265.968 347.243 265.704C346.794 265.431 346.252 265.294 345.617 265.294C344.992 265.294 344.455 265.401 344.006 265.616C343.557 265.821 343.181 266.109 342.878 266.481C342.575 266.852 342.341 267.286 342.175 267.784C342.009 268.273 341.892 268.805 341.823 269.381V272.223C341.94 272.926 342.141 273.57 342.424 274.156C342.707 274.742 343.107 275.211 343.625 275.563C344.152 275.904 344.826 276.075 345.647 276.075C346.281 276.075 346.823 275.939 347.273 275.665C347.722 275.392 348.088 275.016 348.371 274.537C348.664 274.049 348.879 273.487 349.016 272.853C349.152 272.218 349.221 271.544 349.221 270.831ZM359.533 256.095V278.595H355.988V256.095H359.533ZM370.388 278.888C369.216 278.888 368.156 278.697 367.209 278.316C366.272 277.926 365.471 277.384 364.807 276.69C364.152 275.997 363.649 275.182 363.298 274.244C362.946 273.307 362.771 272.296 362.771 271.212V270.626C362.771 269.386 362.951 268.263 363.313 267.257C363.674 266.251 364.177 265.392 364.821 264.679C365.466 263.956 366.228 263.404 367.107 263.023C367.985 262.643 368.938 262.452 369.963 262.452C371.096 262.452 372.087 262.643 372.937 263.023C373.786 263.404 374.489 263.941 375.046 264.635C375.612 265.318 376.032 266.134 376.306 267.081C376.589 268.028 376.731 269.073 376.731 270.216V271.725H364.484V269.19H373.244V268.912C373.225 268.277 373.098 267.682 372.863 267.125C372.639 266.568 372.292 266.119 371.823 265.777C371.355 265.436 370.73 265.265 369.948 265.265C369.362 265.265 368.84 265.392 368.381 265.646C367.932 265.89 367.556 266.246 367.253 266.715C366.95 267.184 366.716 267.75 366.55 268.414C366.394 269.068 366.315 269.806 366.315 270.626V271.212C366.315 271.905 366.408 272.55 366.594 273.146C366.789 273.732 367.072 274.244 367.443 274.684C367.815 275.123 368.264 275.47 368.791 275.724C369.318 275.968 369.919 276.09 370.593 276.09C371.442 276.09 372.199 275.919 372.863 275.577C373.527 275.235 374.104 274.752 374.592 274.127L376.452 275.929C376.11 276.427 375.666 276.905 375.119 277.364C374.572 277.814 373.903 278.18 373.112 278.463C372.331 278.746 371.423 278.888 370.388 278.888ZM379.631 276.837C379.631 276.29 379.816 275.831 380.188 275.46C380.559 275.079 381.062 274.889 381.696 274.889C382.341 274.889 382.844 275.079 383.205 275.46C383.576 275.831 383.762 276.29 383.762 276.837C383.762 277.384 383.576 277.843 383.205 278.214C382.844 278.585 382.341 278.771 381.696 278.771C381.062 278.771 380.559 278.585 380.188 278.214C379.816 277.843 379.631 277.384 379.631 276.837Z" fill="black"/>
</svg>
