<svg width="597" height="467" viewBox="0 0 597 467" fill="none" xmlns="http://www.w3.org/2000/svg">
<ellipse cx="312.5" cy="231.5" rx="284.5" ry="202.5" fill="#97FF73"/>
<ellipse cx="286" cy="204" rx="281" ry="204" fill="#EEE972"/>
<path d="M168.993 52.5972V95.2534H163.602V52.5972H168.993ZM199.046 87.1382C199.046 86.3374 198.85 85.6343 198.46 85.0288C198.069 84.4233 197.425 83.8374 196.526 83.271C195.647 82.7046 194.456 82.0991 192.952 81.4546C191.487 80.8491 190.169 80.2534 188.997 79.6675C187.844 79.062 186.868 78.4077 186.067 77.7046C185.266 77.0015 184.651 76.1909 184.221 75.2729C183.811 74.3354 183.606 73.2319 183.606 71.9624C183.606 70.6929 183.841 69.521 184.309 68.4468C184.798 67.353 185.481 66.396 186.36 65.5757C187.239 64.7554 188.294 64.1206 189.524 63.6714C190.755 63.2026 192.132 62.9683 193.655 62.9683C195.823 62.9683 197.669 63.3882 199.192 64.228C200.716 65.0679 201.878 66.2202 202.678 67.6851C203.499 69.1304 203.909 70.7612 203.909 72.5776H198.753C198.753 71.6987 198.557 70.8687 198.167 70.0874C197.776 69.3062 197.2 68.6714 196.438 68.1831C195.676 67.6753 194.749 67.4214 193.655 67.4214C192.503 67.4214 191.565 67.6265 190.842 68.0366C190.12 68.4468 189.592 68.9839 189.26 69.6479C188.948 70.2925 188.792 71.0054 188.792 71.7866C188.792 72.3726 188.87 72.8804 189.026 73.3101C189.202 73.7202 189.495 74.1108 189.905 74.4819C190.315 74.8335 190.872 75.2046 191.575 75.5952C192.298 75.9663 193.216 76.396 194.329 76.8843C196.477 77.7241 198.284 78.5737 199.749 79.4331C201.214 80.2925 202.327 81.2983 203.089 82.4507C203.85 83.603 204.231 85.0288 204.231 86.728C204.231 88.1147 203.977 89.3745 203.469 90.5073C202.981 91.6206 202.278 92.5776 201.36 93.3784C200.442 94.1792 199.339 94.7944 198.05 95.2241C196.78 95.6343 195.354 95.8394 193.772 95.8394C191.389 95.8394 189.368 95.3706 187.708 94.4331C186.067 93.4761 184.817 92.2358 183.958 90.7124C183.118 89.1694 182.698 87.519 182.698 85.7612H187.884C187.942 87.2456 188.274 88.3979 188.88 89.2183C189.505 90.0386 190.257 90.605 191.135 90.9175C192.014 91.23 192.893 91.3862 193.772 91.3862C194.925 91.3862 195.891 91.2202 196.673 90.8882C197.454 90.5366 198.04 90.0386 198.43 89.394C198.841 88.7495 199.046 87.9976 199.046 87.1382ZM248.37 63.5542V67.7144H233.575V63.5542H248.37ZM238.409 55.8491H243.594V87.4019C243.594 88.4761 243.721 89.2866 243.975 89.8335C244.249 90.3804 244.591 90.7417 245.001 90.9175C245.411 91.0933 245.85 91.1812 246.319 91.1812C246.671 91.1812 247.061 91.1421 247.491 91.064C247.921 90.9663 248.214 90.8882 248.37 90.8296L248.341 95.2534C247.989 95.3901 247.52 95.5171 246.934 95.6343C246.348 95.771 245.606 95.8394 244.708 95.8394C243.594 95.8394 242.559 95.5757 241.602 95.0483C240.645 94.521 239.874 93.6421 239.288 92.4116C238.702 91.1616 238.409 89.4819 238.409 87.3726V55.8491ZM265.737 50.2534V95.2534H260.551V50.2534H265.737ZM264.477 78.2026L262.368 78.1147C262.348 75.9468 262.592 73.9448 263.1 72.1089C263.628 70.2534 264.37 68.6421 265.327 67.2749C266.303 65.9077 267.466 64.853 268.813 64.1108C270.161 63.3491 271.655 62.9683 273.296 62.9683C274.585 62.9683 275.757 63.1831 276.811 63.6128C277.866 64.0229 278.764 64.687 279.507 65.605C280.249 66.5229 280.815 67.7144 281.206 69.1792C281.616 70.6245 281.821 72.3921 281.821 74.4819V95.2534H276.635V74.4233C276.635 72.7632 276.45 71.4351 276.079 70.439C275.727 69.4233 275.18 68.6909 274.438 68.2417C273.716 67.7729 272.798 67.5386 271.684 67.5386C270.669 67.5386 269.721 67.8218 268.842 68.3882C267.964 68.9546 267.192 69.7358 266.528 70.7319C265.884 71.728 265.376 72.8706 265.005 74.1597C264.653 75.4292 264.477 76.7769 264.477 78.2026ZM306.893 95.8394C304.999 95.8394 303.29 95.5562 301.766 94.9897C300.243 94.4233 298.944 93.564 297.87 92.4116C296.796 91.2397 295.975 89.7651 295.409 87.9878C294.842 86.2104 294.559 84.1108 294.559 81.689V78.1147C294.559 75.3218 294.882 72.9585 295.526 71.0249C296.19 69.0913 297.079 67.5386 298.192 66.3667C299.305 65.1753 300.565 64.3159 301.971 63.7886C303.378 63.2417 304.823 62.9683 306.307 62.9683C308.3 62.9683 309.999 63.2905 311.405 63.9351C312.811 64.5796 313.954 65.5366 314.833 66.8062C315.712 68.0757 316.356 69.6382 316.766 71.4937C317.196 73.3491 317.411 75.4878 317.411 77.9097V80.9272H297.606V76.5034H312.225V75.771C312.147 74.1304 311.923 72.6851 311.551 71.4351C311.2 70.1851 310.614 69.2085 309.794 68.5054C308.973 67.7827 307.811 67.4214 306.307 67.4214C305.35 67.4214 304.462 67.5874 303.641 67.9194C302.841 68.2319 302.147 68.7886 301.561 69.5894C300.995 70.3706 300.546 71.4546 300.214 72.8413C299.901 74.228 299.745 75.9858 299.745 78.1147V81.689C299.745 83.3882 299.901 84.853 300.214 86.0835C300.546 87.2944 301.024 88.3003 301.649 89.1011C302.294 89.8823 303.075 90.4683 303.993 90.8589C304.93 91.23 305.995 91.4155 307.186 91.4155C308.925 91.4155 310.36 91.0835 311.493 90.4194C312.626 89.7358 313.612 88.8667 314.452 87.812L317.176 91.064C316.61 91.8647 315.868 92.6362 314.95 93.3784C314.051 94.1011 312.938 94.6968 311.61 95.1655C310.301 95.6147 308.729 95.8394 306.893 95.8394ZM334.866 68.5347V95.2534H329.68V63.5542H334.69L334.866 68.5347ZM342.747 63.3784L342.776 68.4175C342.346 68.3198 341.956 68.2612 341.604 68.2417C341.272 68.2026 340.882 68.1831 340.432 68.1831C339.456 68.1831 338.596 68.3784 337.854 68.769C337.132 69.1597 336.507 69.7065 335.979 70.4097C335.452 71.1128 335.032 71.9526 334.719 72.9292C334.407 73.8862 334.192 74.9409 334.075 76.0933L332.727 76.9722C332.727 75.0581 332.874 73.2612 333.167 71.5815C333.479 69.9019 333.958 68.4175 334.602 67.1284C335.247 65.8198 336.067 64.8042 337.063 64.0815C338.079 63.3394 339.29 62.9683 340.696 62.9683C341.009 62.9683 341.389 63.0171 341.839 63.1147C342.307 63.1929 342.61 63.2808 342.747 63.3784ZM364.714 95.8394C362.819 95.8394 361.11 95.5562 359.587 94.9897C358.063 94.4233 356.764 93.564 355.69 92.4116C354.616 91.2397 353.796 89.7651 353.229 87.9878C352.663 86.2104 352.38 84.1108 352.38 81.689V78.1147C352.38 75.3218 352.702 72.9585 353.346 71.0249C354.01 69.0913 354.899 67.5386 356.012 66.3667C357.126 65.1753 358.385 64.3159 359.792 63.7886C361.198 63.2417 362.643 62.9683 364.128 62.9683C366.12 62.9683 367.819 63.2905 369.225 63.9351C370.632 64.5796 371.774 65.5366 372.653 66.8062C373.532 68.0757 374.176 69.6382 374.587 71.4937C375.016 73.3491 375.231 75.4878 375.231 77.9097V80.9272H355.426V76.5034H370.046V75.771C369.967 74.1304 369.743 72.6851 369.372 71.4351C369.02 70.1851 368.434 69.2085 367.614 68.5054C366.794 67.7827 365.632 67.4214 364.128 67.4214C363.171 67.4214 362.282 67.5874 361.462 67.9194C360.661 68.2319 359.967 68.7886 359.382 69.5894C358.815 70.3706 358.366 71.4546 358.034 72.8413C357.721 74.228 357.565 75.9858 357.565 78.1147V81.689C357.565 83.3882 357.721 84.853 358.034 86.0835C358.366 87.2944 358.844 88.3003 359.469 89.1011C360.114 89.8823 360.895 90.4683 361.813 90.8589C362.751 91.23 363.815 91.4155 365.007 91.4155C366.745 91.4155 368.18 91.0835 369.313 90.4194C370.446 89.7358 371.432 88.8667 372.272 87.812L374.997 91.064C374.43 91.8647 373.688 92.6362 372.77 93.3784C371.872 94.1011 370.759 94.6968 369.43 95.1655C368.122 95.6147 366.55 95.8394 364.714 95.8394ZM422.798 89.8335V72.6362C422.798 71.3862 422.602 70.3804 422.212 69.6187C421.841 68.8569 421.274 68.3003 420.512 67.9487C419.77 67.5972 418.833 67.4214 417.7 67.4214C416.606 67.4214 415.659 67.646 414.858 68.0952C414.077 68.5444 413.471 69.1401 413.042 69.8823C412.632 70.6245 412.426 71.4448 412.426 72.3433H407.241C407.241 71.2104 407.485 70.0874 407.973 68.9741C408.481 67.8608 409.204 66.855 410.141 65.9565C411.079 65.0386 412.202 64.3159 413.51 63.7886C414.839 63.2417 416.323 62.9683 417.964 62.9683C419.917 62.9683 421.645 63.2905 423.149 63.9351C424.653 64.5601 425.835 65.5854 426.694 67.0112C427.553 68.437 427.983 70.3315 427.983 72.6948V88.3394C427.983 89.394 428.061 90.5171 428.217 91.7085C428.393 92.8999 428.637 93.9253 428.95 94.7847V95.2534H423.589C423.335 94.6284 423.139 93.7983 423.003 92.7632C422.866 91.7085 422.798 90.7319 422.798 89.8335ZM423.618 76.0347L423.676 79.8433H420.073C418.842 79.8433 417.719 79.98 416.704 80.2534C415.708 80.5269 414.848 80.9272 414.126 81.4546C413.403 81.9624 412.846 82.5972 412.456 83.3589C412.085 84.1206 411.899 84.9897 411.899 85.9663C411.899 87.2358 412.075 88.2515 412.426 89.0132C412.778 89.7554 413.305 90.2925 414.009 90.6245C414.712 90.9565 415.6 91.1226 416.675 91.1226C417.983 91.1226 419.135 90.8198 420.132 90.2144C421.128 89.6089 421.899 88.8765 422.446 88.0171C423.012 87.1577 423.276 86.3569 423.237 85.6147L424.38 88.0464C424.301 88.8081 424.048 89.6382 423.618 90.5366C423.208 91.4155 422.632 92.2651 421.889 93.0854C421.147 93.8862 420.268 94.5503 419.253 95.0776C418.257 95.5854 417.134 95.8394 415.884 95.8394C414.048 95.8394 412.436 95.4878 411.05 94.7847C409.682 94.0815 408.618 93.0464 407.856 91.6792C407.094 90.312 406.714 88.6226 406.714 86.6108C406.714 85.0874 406.977 83.6812 407.505 82.3921C408.032 81.103 408.813 79.9897 409.848 79.0522C410.884 78.0952 412.182 77.353 413.745 76.8257C415.327 76.2983 417.153 76.0347 419.223 76.0347H423.618ZM67.2624 150.535V177.253H62.0769V145.554H67.0866L67.2624 150.535ZM75.1433 145.378L75.1726 150.417C74.7429 150.32 74.3523 150.261 74.0007 150.242C73.6687 150.203 73.278 150.183 72.8288 150.183C71.8523 150.183 70.9929 150.378 70.2507 150.769C69.528 151.16 68.903 151.707 68.3757 152.41C67.8484 153.113 67.4284 153.953 67.1159 154.929C66.8034 155.886 66.5886 156.941 66.4714 158.093L65.1237 158.972C65.1237 157.058 65.2702 155.261 65.5632 153.582C65.8757 151.902 66.3542 150.417 66.9987 149.128C67.6433 147.82 68.4636 146.804 69.4597 146.082C70.4753 145.339 71.6862 144.968 73.0925 144.968C73.405 144.968 73.7859 145.017 74.2351 145.115C74.7038 145.193 75.0066 145.281 75.1433 145.378ZM97.1101 177.839C95.2155 177.839 93.5066 177.556 91.9831 176.99C90.4597 176.423 89.1609 175.564 88.0866 174.412C87.0124 173.24 86.1921 171.765 85.6257 169.988C85.0593 168.21 84.7761 166.111 84.7761 163.689V160.115C84.7761 157.322 85.0984 154.958 85.7429 153.025C86.407 151.091 87.2956 149.539 88.4089 148.367C89.5222 147.175 90.782 146.316 92.1882 145.789C93.5945 145.242 95.0398 144.968 96.5241 144.968C98.5163 144.968 100.216 145.291 101.622 145.935C103.028 146.58 104.171 147.537 105.05 148.806C105.928 150.076 106.573 151.638 106.983 153.494C107.413 155.349 107.628 157.488 107.628 159.91V162.927H87.823V158.503H102.442V157.771C102.364 156.13 102.139 154.685 101.768 153.435C101.417 152.185 100.831 151.208 100.01 150.505C99.1902 149.783 98.028 149.421 96.5241 149.421C95.5671 149.421 94.6784 149.587 93.8581 149.919C93.0573 150.232 92.364 150.789 91.778 151.589C91.2116 152.371 90.7624 153.455 90.4304 154.841C90.1179 156.228 89.9616 157.986 89.9616 160.115V163.689C89.9616 165.388 90.1179 166.853 90.4304 168.083C90.7624 169.294 91.2409 170.3 91.8659 171.101C92.5105 171.882 93.2917 172.468 94.2097 172.859C95.1472 173.23 96.2116 173.416 97.403 173.416C99.1413 173.416 100.577 173.083 101.71 172.419C102.842 171.736 103.829 170.867 104.669 169.812L107.393 173.064C106.827 173.865 106.085 174.636 105.167 175.378C104.268 176.101 103.155 176.697 101.827 177.166C100.518 177.615 98.946 177.839 97.1101 177.839ZM137.065 145.554H141.723V177.517C141.723 180.31 141.235 182.615 140.259 184.431C139.301 186.248 137.964 187.585 136.245 188.445C134.526 189.324 132.544 189.763 130.298 189.763C129.497 189.763 128.491 189.617 127.28 189.324C126.069 189.031 124.858 188.582 123.647 187.976C122.436 187.39 121.44 186.648 120.659 185.75L122.798 182.146C123.911 183.279 125.092 184.089 126.342 184.578C127.592 185.066 128.784 185.31 129.917 185.31C131.264 185.31 132.436 185.066 133.432 184.578C134.428 184.089 135.2 183.289 135.747 182.175C136.294 181.082 136.567 179.617 136.567 177.781V152.527L137.065 145.554ZM118.842 162.927V159.968C118.842 157.351 119.087 155.105 119.575 153.23C120.063 151.335 120.766 149.783 121.684 148.572C122.622 147.341 123.745 146.433 125.053 145.847C126.362 145.261 127.827 144.968 129.448 144.968C131.089 144.968 132.505 145.3 133.696 145.964C134.887 146.628 135.874 147.595 136.655 148.865C137.456 150.115 138.081 151.638 138.53 153.435C138.999 155.212 139.321 157.224 139.497 159.47V163.425C139.321 165.652 138.999 167.654 138.53 169.431C138.081 171.208 137.446 172.722 136.626 173.972C135.825 175.222 134.829 176.179 133.637 176.843C132.446 177.507 131.03 177.839 129.389 177.839C127.788 177.839 126.342 177.537 125.053 176.931C123.764 176.306 122.651 175.378 121.714 174.148C120.796 172.898 120.083 171.345 119.575 169.49C119.087 167.615 118.842 165.427 118.842 162.927ZM124.028 159.968V162.927C124.028 164.685 124.155 166.218 124.409 167.527C124.663 168.816 125.053 169.89 125.581 170.75C126.128 171.589 126.821 172.214 127.661 172.625C128.52 173.035 129.546 173.24 130.737 173.24C132.182 173.24 133.364 172.888 134.282 172.185C135.2 171.482 135.932 170.554 136.479 169.402C137.046 168.23 137.495 166.97 137.827 165.623V157.302C137.632 156.306 137.348 155.349 136.977 154.431C136.626 153.494 136.167 152.664 135.6 151.941C135.034 151.199 134.35 150.613 133.55 150.183C132.768 149.753 131.85 149.539 130.796 149.539C129.604 149.539 128.579 149.753 127.719 150.183C126.86 150.613 126.157 151.257 125.61 152.117C125.063 152.976 124.663 154.06 124.409 155.369C124.155 156.677 124.028 158.21 124.028 159.968ZM161.053 145.554V177.253H155.897V145.554H161.053ZM155.604 137.146C155.604 136.267 155.848 135.525 156.337 134.919C156.825 134.314 157.557 134.011 158.534 134.011C159.51 134.011 160.243 134.314 160.731 134.919C161.239 135.525 161.493 136.267 161.493 137.146C161.493 137.986 161.239 138.708 160.731 139.314C160.243 139.9 159.51 140.193 158.534 140.193C157.557 140.193 156.825 139.9 156.337 139.314C155.848 138.708 155.604 137.986 155.604 137.146ZM190.637 169.138C190.637 168.337 190.442 167.634 190.051 167.029C189.661 166.423 189.016 165.837 188.118 165.271C187.239 164.705 186.048 164.099 184.544 163.455C183.079 162.849 181.76 162.253 180.589 161.667C179.436 161.062 178.46 160.408 177.659 159.705C176.858 159.001 176.243 158.191 175.813 157.273C175.403 156.335 175.198 155.232 175.198 153.962C175.198 152.693 175.432 151.521 175.901 150.447C176.389 149.353 177.073 148.396 177.952 147.576C178.831 146.755 179.885 146.121 181.116 145.671C182.346 145.203 183.723 144.968 185.247 144.968C187.415 144.968 189.26 145.388 190.784 146.228C192.307 147.068 193.469 148.22 194.27 149.685C195.091 151.13 195.501 152.761 195.501 154.578H190.344C190.344 153.699 190.149 152.869 189.759 152.087C189.368 151.306 188.792 150.671 188.03 150.183C187.268 149.675 186.341 149.421 185.247 149.421C184.094 149.421 183.157 149.626 182.434 150.037C181.712 150.447 181.184 150.984 180.852 151.648C180.54 152.292 180.384 153.005 180.384 153.787C180.384 154.373 180.462 154.88 180.618 155.31C180.794 155.72 181.087 156.111 181.497 156.482C181.907 156.833 182.464 157.205 183.167 157.595C183.889 157.966 184.807 158.396 185.921 158.884C188.069 159.724 189.876 160.574 191.341 161.433C192.805 162.292 193.919 163.298 194.68 164.451C195.442 165.603 195.823 167.029 195.823 168.728C195.823 170.115 195.569 171.375 195.061 172.507C194.573 173.621 193.87 174.578 192.952 175.378C192.034 176.179 190.93 176.794 189.641 177.224C188.372 177.634 186.946 177.839 185.364 177.839C182.981 177.839 180.96 177.371 179.3 176.433C177.659 175.476 176.409 174.236 175.55 172.712C174.71 171.169 174.29 169.519 174.29 167.761H179.475C179.534 169.246 179.866 170.398 180.471 171.218C181.096 172.039 181.848 172.605 182.727 172.917C183.606 173.23 184.485 173.386 185.364 173.386C186.516 173.386 187.483 173.22 188.264 172.888C189.046 172.537 189.632 172.039 190.022 171.394C190.432 170.75 190.637 169.998 190.637 169.138ZM220.192 145.554V149.714H205.397V145.554H220.192ZM210.231 137.849H215.417V169.402C215.417 170.476 215.544 171.287 215.798 171.833C216.071 172.38 216.413 172.742 216.823 172.917C217.233 173.093 217.673 173.181 218.141 173.181C218.493 173.181 218.884 173.142 219.313 173.064C219.743 172.966 220.036 172.888 220.192 172.83L220.163 177.253C219.811 177.39 219.342 177.517 218.757 177.634C218.171 177.771 217.428 177.839 216.53 177.839C215.417 177.839 214.382 177.576 213.425 177.048C212.467 176.521 211.696 175.642 211.11 174.412C210.524 173.162 210.231 171.482 210.231 169.373V137.849ZM237.559 150.535V177.253H232.374V145.554H237.384L237.559 150.535ZM245.44 145.378L245.469 150.417C245.04 150.32 244.649 150.261 244.298 150.242C243.966 150.203 243.575 150.183 243.126 150.183C242.149 150.183 241.29 150.378 240.548 150.769C239.825 151.16 239.2 151.707 238.673 152.41C238.145 153.113 237.725 153.953 237.413 154.929C237.1 155.886 236.885 156.941 236.768 158.093L235.421 158.972C235.421 157.058 235.567 155.261 235.86 153.582C236.173 151.902 236.651 150.417 237.296 149.128C237.94 147.82 238.76 146.804 239.757 146.082C240.772 145.339 241.983 144.968 243.389 144.968C243.702 144.968 244.083 145.017 244.532 145.115C245.001 145.193 245.303 145.281 245.44 145.378ZM271.01 171.833V154.636C271.01 153.386 270.815 152.38 270.425 151.619C270.053 150.857 269.487 150.3 268.725 149.949C267.983 149.597 267.046 149.421 265.913 149.421C264.819 149.421 263.872 149.646 263.071 150.095C262.29 150.544 261.684 151.14 261.255 151.882C260.844 152.625 260.639 153.445 260.639 154.343H255.454C255.454 153.21 255.698 152.087 256.186 150.974C256.694 149.861 257.417 148.855 258.354 147.957C259.292 147.039 260.415 146.316 261.723 145.789C263.051 145.242 264.536 144.968 266.176 144.968C268.13 144.968 269.858 145.291 271.362 145.935C272.866 146.56 274.048 147.585 274.907 149.011C275.766 150.437 276.196 152.332 276.196 154.695V170.339C276.196 171.394 276.274 172.517 276.43 173.708C276.606 174.9 276.85 175.925 277.163 176.785V177.253H271.801C271.548 176.628 271.352 175.798 271.216 174.763C271.079 173.708 271.01 172.732 271.01 171.833ZM271.831 158.035L271.889 161.843H268.286C267.055 161.843 265.932 161.98 264.917 162.253C263.921 162.527 263.061 162.927 262.339 163.455C261.616 163.962 261.059 164.597 260.669 165.359C260.298 166.121 260.112 166.99 260.112 167.966C260.112 169.236 260.288 170.251 260.639 171.013C260.991 171.755 261.518 172.292 262.221 172.625C262.925 172.957 263.813 173.123 264.887 173.123C266.196 173.123 267.348 172.82 268.344 172.214C269.341 171.609 270.112 170.876 270.659 170.017C271.225 169.158 271.489 168.357 271.45 167.615L272.592 170.046C272.514 170.808 272.26 171.638 271.831 172.537C271.421 173.416 270.844 174.265 270.102 175.085C269.36 175.886 268.481 176.55 267.466 177.078C266.469 177.585 265.346 177.839 264.096 177.839C262.26 177.839 260.649 177.488 259.262 176.785C257.895 176.082 256.831 175.046 256.069 173.679C255.307 172.312 254.926 170.623 254.926 168.611C254.926 167.087 255.19 165.681 255.717 164.392C256.245 163.103 257.026 161.99 258.061 161.052C259.096 160.095 260.395 159.353 261.958 158.826C263.54 158.298 265.366 158.035 267.436 158.035H271.831ZM301.825 145.554V149.714H287.03V145.554H301.825ZM291.864 137.849H297.05V169.402C297.05 170.476 297.176 171.287 297.43 171.833C297.704 172.38 298.046 172.742 298.456 172.917C298.866 173.093 299.305 173.181 299.774 173.181C300.126 173.181 300.516 173.142 300.946 173.064C301.376 172.966 301.669 172.888 301.825 172.83L301.796 177.253C301.444 177.39 300.975 177.517 300.389 177.634C299.803 177.771 299.061 177.839 298.163 177.839C297.05 177.839 296.014 177.576 295.057 177.048C294.1 176.521 293.329 175.642 292.743 174.412C292.157 173.162 291.864 171.482 291.864 169.373V137.849ZM319.573 145.554V177.253H314.417V145.554H319.573ZM314.124 137.146C314.124 136.267 314.368 135.525 314.856 134.919C315.344 134.314 316.077 134.011 317.053 134.011C318.03 134.011 318.762 134.314 319.251 134.919C319.759 135.525 320.012 136.267 320.012 137.146C320.012 137.986 319.759 138.708 319.251 139.314C318.762 139.9 318.03 140.193 317.053 140.193C316.077 140.193 315.344 139.9 314.856 139.314C314.368 138.708 314.124 137.986 314.124 137.146ZM332.692 162.927V159.91C332.692 157.449 333.005 155.291 333.63 153.435C334.255 151.56 335.124 149.998 336.237 148.748C337.35 147.498 338.649 146.56 340.134 145.935C341.618 145.291 343.21 144.968 344.909 144.968C346.647 144.968 348.259 145.291 349.743 145.935C351.227 146.56 352.526 147.498 353.639 148.748C354.772 149.998 355.651 151.56 356.276 153.435C356.901 155.291 357.214 157.449 357.214 159.91V162.927C357.214 165.388 356.901 167.556 356.276 169.431C355.651 171.287 354.782 172.839 353.669 174.089C352.555 175.339 351.257 176.277 349.772 176.902C348.288 177.527 346.686 177.839 344.967 177.839C343.249 177.839 341.647 177.527 340.163 176.902C338.678 176.277 337.37 175.339 336.237 174.089C335.124 172.839 334.255 171.287 333.63 169.431C333.005 167.556 332.692 165.388 332.692 162.927ZM337.878 159.91V162.927C337.878 164.666 338.053 166.189 338.405 167.498C338.757 168.806 339.255 169.9 339.899 170.779C340.544 171.658 341.296 172.322 342.155 172.771C343.014 173.201 343.952 173.416 344.967 173.416C346.139 173.416 347.165 173.201 348.044 172.771C348.942 172.322 349.684 171.658 350.27 170.779C350.856 169.9 351.296 168.806 351.589 167.498C351.882 166.189 352.028 164.666 352.028 162.927V159.91C352.028 158.171 351.852 156.658 351.501 155.369C351.149 154.06 350.651 152.966 350.007 152.087C349.362 151.189 348.6 150.525 347.721 150.095C346.862 149.646 345.925 149.421 344.909 149.421C343.913 149.421 342.985 149.646 342.126 150.095C341.266 150.525 340.514 151.189 339.87 152.087C339.245 152.966 338.757 154.06 338.405 155.369C338.053 156.658 337.878 158.171 337.878 159.91ZM375.079 152.322V177.253H369.893V145.554H374.786L375.079 152.322ZM373.819 160.203L371.71 160.115C371.69 157.947 371.934 155.945 372.442 154.109C372.969 152.253 373.712 150.642 374.669 149.275C375.645 147.908 376.807 146.853 378.155 146.111C379.503 145.349 380.997 144.968 382.637 144.968C383.926 144.968 385.098 145.183 386.153 145.613C387.208 146.023 388.106 146.687 388.848 147.605C389.591 148.523 390.157 149.714 390.548 151.179C390.958 152.625 391.163 154.392 391.163 156.482V177.253H385.977V156.423C385.977 154.763 385.792 153.435 385.421 152.439C385.069 151.423 384.522 150.691 383.78 150.242C383.057 149.773 382.139 149.539 381.026 149.539C380.01 149.539 379.063 149.822 378.184 150.388C377.305 150.955 376.534 151.736 375.87 152.732C375.225 153.728 374.717 154.871 374.346 156.16C373.995 157.429 373.819 158.777 373.819 160.203ZM432.196 177.253H427.01V142.214C427.01 139.929 427.372 138.005 428.094 136.443C428.837 134.861 429.882 133.669 431.229 132.869C432.596 132.048 434.217 131.638 436.092 131.638C436.62 131.638 437.147 131.677 437.675 131.755C438.221 131.833 438.739 131.951 439.227 132.107L438.993 136.531C438.68 136.433 438.3 136.365 437.85 136.326C437.421 136.287 437.01 136.267 436.62 136.267C435.682 136.267 434.882 136.501 434.217 136.97C433.553 137.419 433.046 138.083 432.694 138.962C432.362 139.841 432.196 140.925 432.196 142.214V177.253ZM437.587 145.554V149.714H422.88V145.554H437.587ZM460.344 177.839C458.45 177.839 456.741 177.556 455.217 176.99C453.694 176.423 452.395 175.564 451.321 174.412C450.247 173.24 449.426 171.765 448.86 169.988C448.294 168.21 448.01 166.111 448.01 163.689V160.115C448.01 157.322 448.333 154.958 448.977 153.025C449.641 151.091 450.53 149.539 451.643 148.367C452.757 147.175 454.016 146.316 455.423 145.789C456.829 145.242 458.274 144.968 459.759 144.968C461.751 144.968 463.45 145.291 464.856 145.935C466.262 146.58 467.405 147.537 468.284 148.806C469.163 150.076 469.807 151.638 470.217 153.494C470.647 155.349 470.862 157.488 470.862 159.91V162.927H451.057V158.503H465.676V157.771C465.598 156.13 465.374 154.685 465.003 153.435C464.651 152.185 464.065 151.208 463.245 150.505C462.425 149.783 461.262 149.421 459.759 149.421C458.801 149.421 457.913 149.587 457.092 149.919C456.292 150.232 455.598 150.789 455.012 151.589C454.446 152.371 453.997 153.455 453.665 154.841C453.352 156.228 453.196 157.986 453.196 160.115V163.689C453.196 165.388 453.352 166.853 453.665 168.083C453.997 169.294 454.475 170.3 455.1 171.101C455.745 171.882 456.526 172.468 457.444 172.859C458.382 173.23 459.446 173.416 460.637 173.416C462.376 173.416 463.811 173.083 464.944 172.419C466.077 171.736 467.063 170.867 467.903 169.812L470.628 173.064C470.061 173.865 469.319 174.636 468.401 175.378C467.503 176.101 466.389 176.697 465.061 177.166C463.753 177.615 462.18 177.839 460.344 177.839ZM494.469 177.839C492.575 177.839 490.866 177.556 489.342 176.99C487.819 176.423 486.52 175.564 485.446 174.412C484.372 173.24 483.551 171.765 482.985 169.988C482.419 168.21 482.135 166.111 482.135 163.689V160.115C482.135 157.322 482.458 154.958 483.102 153.025C483.766 151.091 484.655 149.539 485.768 148.367C486.882 147.175 488.141 146.316 489.548 145.789C490.954 145.242 492.399 144.968 493.884 144.968C495.876 144.968 497.575 145.291 498.981 145.935C500.387 146.58 501.53 147.537 502.409 148.806C503.288 150.076 503.932 151.638 504.342 153.494C504.772 155.349 504.987 157.488 504.987 159.91V162.927H485.182V158.503H499.801V157.771C499.723 156.13 499.499 154.685 499.128 153.435C498.776 152.185 498.19 151.208 497.37 150.505C496.55 149.783 495.387 149.421 493.884 149.421C492.926 149.421 492.038 149.587 491.217 149.919C490.417 150.232 489.723 150.789 489.137 151.589C488.571 152.371 488.122 153.455 487.79 154.841C487.477 156.228 487.321 157.986 487.321 160.115V163.689C487.321 165.388 487.477 166.853 487.79 168.083C488.122 169.294 488.6 170.3 489.225 171.101C489.87 171.882 490.651 172.468 491.569 172.859C492.507 173.23 493.571 173.416 494.762 173.416C496.501 173.416 497.936 173.083 499.069 172.419C500.202 171.736 501.188 170.867 502.028 169.812L504.753 173.064C504.186 173.865 503.444 174.636 502.526 175.378C501.628 176.101 500.514 176.697 499.186 177.166C497.878 177.615 496.305 177.839 494.469 177.839ZM527.745 165.242H522.559C522.579 163.367 522.725 161.833 522.999 160.642C523.272 159.431 523.721 158.328 524.346 157.332C524.971 156.335 525.811 155.203 526.866 153.933C527.569 153.015 528.233 152.156 528.858 151.355C529.503 150.535 530.02 149.656 530.411 148.718C530.802 147.761 530.997 146.619 530.997 145.291C530.997 143.943 530.802 142.781 530.411 141.804C530.04 140.828 529.483 140.076 528.741 139.548C528.018 139.021 527.13 138.757 526.075 138.757C525.235 138.757 524.415 138.962 523.614 139.373C522.833 139.783 522.178 140.417 521.651 141.277C521.143 142.117 520.889 143.22 520.889 144.587H515.704C515.743 142.38 516.212 140.486 517.11 138.904C518.028 137.322 519.259 136.111 520.802 135.271C522.364 134.431 524.122 134.011 526.075 134.011C528.204 134.011 530.02 134.46 531.524 135.359C533.028 136.257 534.171 137.546 534.952 139.226C535.753 140.886 536.153 142.859 536.153 145.144C536.153 146.902 535.831 148.523 535.186 150.007C534.561 151.472 533.77 152.849 532.813 154.138C531.856 155.427 530.87 156.658 529.854 157.83C529.014 158.826 528.448 159.949 528.155 161.199C527.882 162.449 527.745 163.796 527.745 165.242ZM522.442 174.529C522.442 173.65 522.686 172.908 523.175 172.302C523.682 171.697 524.415 171.394 525.372 171.394C526.348 171.394 527.081 171.697 527.569 172.302C528.077 172.908 528.331 173.65 528.331 174.529C528.331 175.369 528.077 176.091 527.569 176.697C527.081 177.302 526.348 177.605 525.372 177.605C524.415 177.605 523.682 177.302 523.175 176.697C522.686 176.091 522.442 175.369 522.442 174.529Z" fill="#63438C"/>
<path d="M104.105 241.978C104.105 241.539 104.037 241.148 103.9 240.806C103.773 240.464 103.544 240.152 103.212 239.869C102.88 239.585 102.411 239.312 101.805 239.048C101.21 238.775 100.448 238.497 99.5202 238.213C98.5045 237.901 97.567 237.554 96.7077 237.173C95.8581 236.783 95.1159 236.333 94.4811 235.826C93.8463 235.308 93.3532 234.717 93.0016 234.053C92.6501 233.379 92.4743 232.603 92.4743 231.724C92.4743 230.855 92.6549 230.064 93.0163 229.351C93.3874 228.638 93.9098 228.023 94.5836 227.505C95.2672 226.978 96.0729 226.573 97.0006 226.29C97.9284 225.997 98.9538 225.85 100.077 225.85C101.659 225.85 103.021 226.143 104.164 226.729C105.316 227.315 106.2 228.101 106.815 229.087C107.44 230.074 107.753 231.163 107.753 232.354H104.105C104.105 231.651 103.954 231.031 103.651 230.494C103.358 229.947 102.909 229.517 102.303 229.205C101.708 228.892 100.951 228.736 100.033 228.736C99.1637 228.736 98.4411 228.868 97.8649 229.131C97.2887 229.395 96.859 229.751 96.5758 230.201C96.2926 230.65 96.151 231.158 96.151 231.724C96.151 232.125 96.2438 232.491 96.4294 232.823C96.6149 233.145 96.8981 233.448 97.279 233.731C97.6598 234.004 98.1383 234.263 98.7145 234.507C99.2907 234.751 99.9694 234.986 100.751 235.21C101.932 235.562 102.963 235.953 103.841 236.382C104.72 236.802 105.453 237.281 106.039 237.818C106.625 238.355 107.064 238.965 107.357 239.649C107.65 240.323 107.797 241.089 107.797 241.949C107.797 242.847 107.616 243.658 107.255 244.38C106.893 245.093 106.376 245.704 105.702 246.211C105.038 246.709 104.237 247.095 103.299 247.369C102.372 247.632 101.337 247.764 100.194 247.764C99.1686 247.764 98.1579 247.627 97.1618 247.354C96.1754 247.081 95.277 246.666 94.4665 246.109C93.6559 245.542 93.0114 244.839 92.5329 244C92.0544 243.15 91.8151 242.159 91.8151 241.026H95.4919C95.4919 241.719 95.609 242.31 95.8434 242.798C96.0876 243.287 96.4245 243.687 96.8542 244C97.2838 244.302 97.7819 244.527 98.3483 244.673C98.9245 244.82 99.5397 244.893 100.194 244.893C101.053 244.893 101.771 244.771 102.347 244.527C102.933 244.283 103.373 243.941 103.666 243.501C103.959 243.062 104.105 242.554 104.105 241.978ZM117.245 247.471H112.689L112.718 244.556H117.245C118.563 244.556 119.667 244.268 120.555 243.692C121.454 243.116 122.128 242.291 122.577 241.216C123.036 240.142 123.265 238.863 123.265 237.378V236.221C123.265 235.069 123.133 234.048 122.87 233.16C122.616 232.271 122.235 231.524 121.727 230.918C121.229 230.313 120.614 229.854 119.882 229.542C119.159 229.229 118.324 229.073 117.377 229.073H112.601V226.143H117.377C118.793 226.143 120.087 226.382 121.258 226.861C122.43 227.33 123.441 228.008 124.291 228.897C125.15 229.786 125.809 230.85 126.268 232.09C126.727 233.331 126.957 234.717 126.957 236.25V237.378C126.957 238.912 126.727 240.298 126.268 241.539C125.809 242.779 125.15 243.843 124.291 244.732C123.431 245.611 122.406 246.29 121.215 246.768C120.033 247.237 118.71 247.471 117.245 247.471ZM114.725 226.143V247.471H111.048V226.143H114.725ZM152.211 235.049V237.964H140.887V235.049H152.211ZM141.796 226.143V247.471H138.119V226.143H141.796ZM155.038 226.143V247.471H151.376V226.143H155.038ZM168.002 244.292V236.734C168.002 236.167 167.899 235.679 167.694 235.269C167.489 234.859 167.176 234.542 166.757 234.317C166.346 234.092 165.829 233.98 165.204 233.98C164.628 233.98 164.13 234.078 163.71 234.273C163.29 234.468 162.963 234.732 162.728 235.064C162.494 235.396 162.377 235.772 162.377 236.192H158.861C158.861 235.567 159.012 234.961 159.315 234.375C159.618 233.79 160.057 233.267 160.633 232.808C161.21 232.349 161.898 231.988 162.699 231.724C163.5 231.46 164.398 231.329 165.394 231.329C166.586 231.329 167.64 231.529 168.558 231.929C169.486 232.33 170.214 232.935 170.741 233.746C171.278 234.546 171.547 235.552 171.547 236.763V243.809C171.547 244.532 171.595 245.181 171.693 245.757C171.8 246.324 171.952 246.817 172.147 247.237V247.471H168.529C168.363 247.09 168.231 246.607 168.133 246.021C168.046 245.425 168.002 244.849 168.002 244.292ZM168.514 237.833L168.544 240.015H166.009C165.355 240.015 164.779 240.079 164.281 240.206C163.783 240.323 163.368 240.499 163.036 240.733C162.704 240.967 162.455 241.25 162.289 241.583C162.123 241.915 162.04 242.291 162.04 242.71C162.04 243.13 162.137 243.516 162.333 243.868C162.528 244.209 162.811 244.478 163.182 244.673C163.563 244.869 164.022 244.966 164.559 244.966C165.282 244.966 165.912 244.82 166.449 244.527C166.996 244.224 167.425 243.858 167.738 243.428C168.05 242.989 168.216 242.574 168.236 242.183L169.379 243.75C169.261 244.151 169.061 244.581 168.778 245.04C168.495 245.499 168.124 245.938 167.665 246.358C167.215 246.768 166.673 247.105 166.039 247.369C165.414 247.632 164.691 247.764 163.871 247.764C162.836 247.764 161.913 247.559 161.102 247.149C160.292 246.729 159.657 246.167 159.198 245.464C158.739 244.751 158.509 243.946 158.509 243.047C158.509 242.208 158.666 241.465 158.978 240.821C159.3 240.167 159.769 239.62 160.384 239.18C161.009 238.741 161.771 238.409 162.67 238.184C163.568 237.95 164.593 237.833 165.746 237.833H168.514ZM181.713 244.952C182.289 244.952 182.806 244.839 183.265 244.615C183.734 244.38 184.11 244.058 184.393 243.648C184.686 243.238 184.847 242.764 184.877 242.227H188.202C188.182 243.252 187.88 244.185 187.294 245.025C186.708 245.865 185.931 246.534 184.965 247.032C183.998 247.52 182.928 247.764 181.757 247.764C180.546 247.764 179.491 247.559 178.592 247.149C177.694 246.729 176.947 246.153 176.351 245.42C175.756 244.688 175.306 243.843 175.004 242.886C174.711 241.929 174.564 240.904 174.564 239.81V239.297C174.564 238.204 174.711 237.178 175.004 236.221C175.306 235.254 175.756 234.405 176.351 233.672C176.947 232.94 177.694 232.369 178.592 231.958C179.491 231.539 180.541 231.329 181.742 231.329C183.011 231.329 184.125 231.583 185.082 232.09C186.039 232.588 186.791 233.287 187.338 234.185C187.894 235.074 188.182 236.109 188.202 237.291H184.877C184.847 236.705 184.701 236.177 184.437 235.708C184.183 235.23 183.822 234.849 183.353 234.566C182.894 234.283 182.342 234.141 181.698 234.141C180.985 234.141 180.394 234.288 179.925 234.581C179.457 234.864 179.09 235.254 178.827 235.752C178.563 236.241 178.373 236.792 178.256 237.408C178.148 238.013 178.094 238.643 178.094 239.297V239.81C178.094 240.464 178.148 241.099 178.256 241.714C178.363 242.33 178.548 242.881 178.812 243.37C179.086 243.848 179.457 244.234 179.925 244.527C180.394 244.81 180.99 244.952 181.713 244.952ZM194.471 224.971V247.471H190.926V224.971H194.471ZM204.315 231.622L197.416 239.268L193.636 243.135L192.714 240.147L195.57 236.617L200.052 231.622H204.315ZM200.814 247.471L195.673 240.03L197.899 237.554L204.901 247.471H200.814ZM215.448 243.179C215.448 242.828 215.36 242.51 215.184 242.227C215.008 241.934 214.672 241.67 214.173 241.436C213.685 241.202 212.963 240.987 212.006 240.792C211.166 240.606 210.394 240.386 209.691 240.132C208.998 239.869 208.402 239.551 207.904 239.18C207.406 238.809 207.02 238.37 206.747 237.862C206.473 237.354 206.337 236.768 206.337 236.104C206.337 235.459 206.478 234.849 206.761 234.273C207.045 233.697 207.45 233.189 207.977 232.75C208.505 232.31 209.144 231.963 209.896 231.709C210.658 231.456 211.507 231.329 212.445 231.329C213.773 231.329 214.911 231.553 215.858 232.002C216.815 232.442 217.548 233.042 218.055 233.804C218.563 234.556 218.817 235.406 218.817 236.353H215.287C215.287 235.933 215.179 235.542 214.965 235.181C214.759 234.81 214.447 234.512 214.027 234.288C213.607 234.053 213.08 233.936 212.445 233.936C211.84 233.936 211.337 234.034 210.936 234.229C210.546 234.415 210.253 234.659 210.057 234.961C209.872 235.264 209.779 235.596 209.779 235.958C209.779 236.221 209.828 236.46 209.925 236.675C210.033 236.88 210.209 237.071 210.453 237.247C210.697 237.413 211.029 237.569 211.449 237.715C211.879 237.862 212.416 238.003 213.06 238.14C214.271 238.394 215.311 238.721 216.18 239.122C217.059 239.512 217.733 240.02 218.202 240.645C218.671 241.26 218.905 242.042 218.905 242.989C218.905 243.692 218.754 244.336 218.451 244.922C218.158 245.499 217.728 246.001 217.162 246.431C216.595 246.851 215.917 247.178 215.126 247.413C214.344 247.647 213.465 247.764 212.489 247.764C211.053 247.764 209.838 247.51 208.841 247.002C207.845 246.485 207.089 245.826 206.571 245.025C206.063 244.214 205.809 243.375 205.809 242.505H209.222C209.261 243.16 209.442 243.682 209.764 244.073C210.096 244.454 210.507 244.732 210.995 244.908C211.493 245.074 212.006 245.157 212.533 245.157C213.168 245.157 213.7 245.074 214.13 244.908C214.559 244.732 214.886 244.498 215.111 244.205C215.336 243.902 215.448 243.56 215.448 243.179ZM233.246 231.622V247.471H229.701V231.622H233.246ZM229.466 227.461C229.466 226.924 229.642 226.48 229.994 226.128C230.355 225.767 230.853 225.586 231.488 225.586C232.113 225.586 232.606 225.767 232.967 226.128C233.329 226.48 233.509 226.924 233.509 227.461C233.509 227.989 233.329 228.428 232.967 228.78C232.606 229.131 232.113 229.307 231.488 229.307C230.853 229.307 230.355 229.131 229.994 228.78C229.642 228.428 229.466 227.989 229.466 227.461ZM246.005 243.179C246.005 242.828 245.917 242.51 245.741 242.227C245.565 241.934 245.228 241.67 244.73 241.436C244.242 241.202 243.519 240.987 242.562 240.792C241.722 240.606 240.951 240.386 240.248 240.132C239.554 239.869 238.959 239.551 238.461 239.18C237.963 238.809 237.577 238.37 237.303 237.862C237.03 237.354 236.893 236.768 236.893 236.104C236.893 235.459 237.035 234.849 237.318 234.273C237.601 233.697 238.007 233.189 238.534 232.75C239.061 232.31 239.701 231.963 240.453 231.709C241.215 231.456 242.064 231.329 243.002 231.329C244.33 231.329 245.467 231.553 246.415 232.002C247.372 232.442 248.104 233.042 248.612 233.804C249.12 234.556 249.374 235.406 249.374 236.353H245.843C245.843 235.933 245.736 235.542 245.521 235.181C245.316 234.81 245.004 234.512 244.584 234.288C244.164 234.053 243.636 233.936 243.002 233.936C242.396 233.936 241.893 234.034 241.493 234.229C241.102 234.415 240.809 234.659 240.614 234.961C240.428 235.264 240.336 235.596 240.336 235.958C240.336 236.221 240.384 236.46 240.482 236.675C240.59 236.88 240.765 237.071 241.009 237.247C241.254 237.413 241.586 237.569 242.006 237.715C242.435 237.862 242.972 238.003 243.617 238.14C244.828 238.394 245.868 238.721 246.737 239.122C247.616 239.512 248.29 240.02 248.758 240.645C249.227 241.26 249.462 242.042 249.462 242.989C249.462 243.692 249.31 244.336 249.007 244.922C248.715 245.499 248.285 246.001 247.718 246.431C247.152 246.851 246.473 247.178 245.682 247.413C244.901 247.647 244.022 247.764 243.046 247.764C241.61 247.764 240.394 247.51 239.398 247.002C238.402 246.485 237.645 245.826 237.128 245.025C236.62 244.214 236.366 243.375 236.366 242.505H239.779C239.818 243.16 239.999 243.682 240.321 244.073C240.653 244.454 241.063 244.732 241.551 244.908C242.049 245.074 242.562 245.157 243.09 245.157C243.724 245.157 244.257 245.074 244.686 244.908C245.116 244.732 245.443 244.498 245.668 244.205C245.892 243.902 246.005 243.56 246.005 243.179ZM266.498 244.952C267.074 244.952 267.591 244.839 268.05 244.615C268.519 244.38 268.895 244.058 269.178 243.648C269.471 243.238 269.632 242.764 269.662 242.227H272.987C272.967 243.252 272.665 244.185 272.079 245.025C271.493 245.865 270.716 246.534 269.75 247.032C268.783 247.52 267.714 247.764 266.542 247.764C265.331 247.764 264.276 247.559 263.378 247.149C262.479 246.729 261.732 246.153 261.136 245.42C260.541 244.688 260.091 243.843 259.789 242.886C259.496 241.929 259.349 240.904 259.349 239.81V239.297C259.349 238.204 259.496 237.178 259.789 236.221C260.091 235.254 260.541 234.405 261.136 233.672C261.732 232.94 262.479 232.369 263.378 231.958C264.276 231.539 265.326 231.329 266.527 231.329C267.797 231.329 268.91 231.583 269.867 232.09C270.824 232.588 271.576 233.287 272.123 234.185C272.679 235.074 272.967 236.109 272.987 237.291H269.662C269.632 236.705 269.486 236.177 269.222 235.708C268.968 235.23 268.607 234.849 268.138 234.566C267.679 234.283 267.128 234.141 266.483 234.141C265.77 234.141 265.179 234.288 264.711 234.581C264.242 234.864 263.876 235.254 263.612 235.752C263.348 236.241 263.158 236.792 263.041 237.408C262.933 238.013 262.88 238.643 262.88 239.297V239.81C262.88 240.464 262.933 241.099 263.041 241.714C263.148 242.33 263.334 242.881 263.597 243.37C263.871 243.848 264.242 244.234 264.711 244.527C265.179 244.81 265.775 244.952 266.498 244.952ZM275.023 239.722V239.385C275.023 238.243 275.189 237.183 275.521 236.207C275.853 235.22 276.332 234.366 276.957 233.643C277.591 232.911 278.363 232.344 279.271 231.944C280.189 231.534 281.224 231.329 282.377 231.329C283.539 231.329 284.574 231.534 285.482 231.944C286.4 232.344 287.176 232.911 287.811 233.643C288.446 234.366 288.929 235.22 289.261 236.207C289.593 237.183 289.759 238.243 289.759 239.385V239.722C289.759 240.865 289.593 241.924 289.261 242.901C288.929 243.877 288.446 244.732 287.811 245.464C287.176 246.187 286.405 246.753 285.497 247.164C284.589 247.564 283.558 247.764 282.406 247.764C281.244 247.764 280.204 247.564 279.286 247.164C278.378 246.753 277.606 246.187 276.971 245.464C276.337 244.732 275.853 243.877 275.521 242.901C275.189 241.924 275.023 240.865 275.023 239.722ZM278.553 239.385V239.722C278.553 240.435 278.627 241.109 278.773 241.744C278.92 242.378 279.149 242.935 279.462 243.414C279.774 243.892 280.174 244.268 280.663 244.542C281.151 244.815 281.732 244.952 282.406 244.952C283.06 244.952 283.627 244.815 284.105 244.542C284.593 244.268 284.994 243.892 285.306 243.414C285.619 242.935 285.848 242.378 285.995 241.744C286.151 241.109 286.229 240.435 286.229 239.722V239.385C286.229 238.682 286.151 238.018 285.995 237.393C285.848 236.758 285.614 236.197 285.292 235.708C284.979 235.22 284.579 234.839 284.09 234.566C283.612 234.283 283.041 234.141 282.377 234.141C281.713 234.141 281.136 234.283 280.648 234.566C280.17 234.839 279.774 235.22 279.462 235.708C279.149 236.197 278.92 236.758 278.773 237.393C278.627 238.018 278.553 238.682 278.553 239.385ZM296.249 234.844V247.471H292.718V231.622H296.044L296.249 234.844ZM295.677 238.96L294.476 238.946C294.476 237.852 294.613 236.841 294.886 235.914C295.16 234.986 295.56 234.18 296.088 233.497C296.615 232.803 297.269 232.271 298.05 231.9C298.841 231.519 299.755 231.329 300.79 231.329C301.512 231.329 302.172 231.436 302.767 231.651C303.373 231.856 303.895 232.183 304.335 232.632C304.784 233.082 305.126 233.658 305.36 234.361C305.604 235.064 305.726 235.914 305.726 236.91V247.471H302.196V237.217C302.196 236.446 302.079 235.84 301.844 235.401C301.62 234.961 301.293 234.649 300.863 234.463C300.443 234.268 299.94 234.17 299.354 234.17C298.69 234.17 298.124 234.297 297.655 234.551C297.196 234.805 296.82 235.152 296.527 235.591C296.234 236.031 296.019 236.539 295.882 237.115C295.746 237.691 295.677 238.306 295.677 238.96ZM305.507 238.023L303.851 238.389C303.851 237.432 303.983 236.529 304.247 235.679C304.52 234.82 304.916 234.068 305.433 233.423C305.961 232.769 306.61 232.256 307.382 231.885C308.153 231.514 309.037 231.329 310.033 231.329C310.843 231.329 311.566 231.441 312.201 231.666C312.845 231.88 313.392 232.222 313.841 232.691C314.291 233.16 314.632 233.77 314.867 234.522C315.101 235.264 315.218 236.163 315.218 237.217V247.471H311.673V237.203C311.673 236.402 311.556 235.782 311.322 235.342C311.097 234.903 310.775 234.6 310.355 234.434C309.935 234.258 309.432 234.17 308.846 234.17C308.299 234.17 307.816 234.273 307.396 234.478C306.986 234.673 306.639 234.952 306.356 235.313C306.073 235.665 305.858 236.07 305.712 236.529C305.575 236.988 305.507 237.486 305.507 238.023ZM322.396 234.668V253.565H318.866V231.622H322.118L322.396 234.668ZM332.723 239.4V239.708C332.723 240.86 332.587 241.929 332.313 242.916C332.049 243.892 331.654 244.747 331.127 245.479C330.609 246.202 329.969 246.763 329.208 247.164C328.446 247.564 327.567 247.764 326.571 247.764C325.585 247.764 324.72 247.583 323.978 247.222C323.246 246.851 322.626 246.329 322.118 245.655C321.61 244.981 321.2 244.19 320.887 243.282C320.585 242.364 320.37 241.358 320.243 240.264V239.078C320.37 237.916 320.585 236.861 320.887 235.914C321.2 234.966 321.61 234.151 322.118 233.467C322.626 232.784 323.246 232.256 323.978 231.885C324.711 231.514 325.565 231.329 326.542 231.329C327.538 231.329 328.422 231.524 329.193 231.915C329.965 232.295 330.614 232.842 331.141 233.555C331.669 234.258 332.064 235.108 332.328 236.104C332.591 237.09 332.723 238.189 332.723 239.4ZM329.193 239.708V239.4C329.193 238.667 329.125 237.989 328.988 237.364C328.851 236.729 328.636 236.172 328.343 235.694C328.05 235.215 327.674 234.844 327.215 234.581C326.766 234.307 326.224 234.17 325.59 234.17C324.965 234.17 324.427 234.278 323.978 234.493C323.529 234.698 323.153 234.986 322.85 235.357C322.548 235.728 322.313 236.163 322.147 236.661C321.981 237.149 321.864 237.681 321.796 238.257V241.099C321.913 241.802 322.113 242.447 322.396 243.033C322.679 243.619 323.08 244.087 323.597 244.439C324.125 244.781 324.798 244.952 325.619 244.952C326.254 244.952 326.796 244.815 327.245 244.542C327.694 244.268 328.06 243.892 328.343 243.414C328.636 242.925 328.851 242.364 328.988 241.729C329.125 241.094 329.193 240.42 329.193 239.708ZM339.506 224.971V247.471H335.961V224.971H339.506ZM350.36 247.764C349.188 247.764 348.129 247.574 347.181 247.193C346.244 246.802 345.443 246.26 344.779 245.567C344.125 244.874 343.622 244.058 343.27 243.121C342.919 242.183 342.743 241.172 342.743 240.088V239.502C342.743 238.262 342.923 237.139 343.285 236.133C343.646 235.127 344.149 234.268 344.794 233.555C345.438 232.833 346.2 232.281 347.079 231.9C347.958 231.519 348.91 231.329 349.935 231.329C351.068 231.329 352.059 231.519 352.909 231.9C353.758 232.281 354.462 232.818 355.018 233.511C355.585 234.195 356.005 235.01 356.278 235.958C356.561 236.905 356.703 237.95 356.703 239.092V240.601H344.457V238.067H353.216V237.789C353.197 237.154 353.07 236.558 352.836 236.001C352.611 235.445 352.264 234.996 351.796 234.654C351.327 234.312 350.702 234.141 349.921 234.141C349.335 234.141 348.812 234.268 348.353 234.522C347.904 234.766 347.528 235.123 347.225 235.591C346.923 236.06 346.688 236.626 346.522 237.291C346.366 237.945 346.288 238.682 346.288 239.502V240.088C346.288 240.782 346.381 241.426 346.566 242.022C346.761 242.608 347.045 243.121 347.416 243.56C347.787 244 348.236 244.346 348.763 244.6C349.291 244.844 349.891 244.966 350.565 244.966C351.415 244.966 352.172 244.795 352.836 244.454C353.5 244.112 354.076 243.628 354.564 243.003L356.424 244.805C356.083 245.303 355.638 245.782 355.091 246.241C354.545 246.69 353.876 247.056 353.085 247.339C352.303 247.623 351.395 247.764 350.36 247.764ZM366.722 231.622V234.2H357.787V231.622H366.722ZM360.365 227.74H363.895V243.091C363.895 243.58 363.964 243.956 364.1 244.219C364.247 244.473 364.447 244.644 364.701 244.732C364.955 244.82 365.253 244.864 365.594 244.864C365.839 244.864 366.073 244.849 366.298 244.82C366.522 244.791 366.703 244.761 366.84 244.732L366.854 247.427C366.561 247.515 366.219 247.593 365.829 247.662C365.448 247.73 365.008 247.764 364.51 247.764C363.7 247.764 362.982 247.623 362.357 247.339C361.732 247.046 361.244 246.573 360.892 245.918C360.541 245.264 360.365 244.395 360.365 243.311V227.74ZM376.434 247.764C375.262 247.764 374.203 247.574 373.256 247.193C372.318 246.802 371.517 246.26 370.853 245.567C370.199 244.874 369.696 244.058 369.344 243.121C368.993 242.183 368.817 241.172 368.817 240.088V239.502C368.817 238.262 368.998 237.139 369.359 236.133C369.72 235.127 370.223 234.268 370.868 233.555C371.512 232.833 372.274 232.281 373.153 231.9C374.032 231.519 374.984 231.329 376.009 231.329C377.142 231.329 378.133 231.519 378.983 231.9C379.833 232.281 380.536 232.818 381.092 233.511C381.659 234.195 382.079 235.01 382.352 235.958C382.635 236.905 382.777 237.95 382.777 239.092V240.601H370.531V238.067H379.291V237.789C379.271 237.154 379.144 236.558 378.91 236.001C378.685 235.445 378.339 234.996 377.87 234.654C377.401 234.312 376.776 234.141 375.995 234.141C375.409 234.141 374.886 234.268 374.427 234.522C373.978 234.766 373.602 235.123 373.299 235.591C372.997 236.06 372.762 236.626 372.596 237.291C372.44 237.945 372.362 238.682 372.362 239.502V240.088C372.362 240.782 372.455 241.426 372.64 242.022C372.836 242.608 373.119 243.121 373.49 243.56C373.861 244 374.31 244.346 374.838 244.6C375.365 244.844 375.965 244.966 376.639 244.966C377.489 244.966 378.246 244.795 378.91 244.454C379.574 244.112 380.15 243.628 380.638 243.003L382.499 244.805C382.157 245.303 381.713 245.782 381.166 246.241C380.619 246.69 379.95 247.056 379.159 247.339C378.378 247.623 377.469 247.764 376.434 247.764ZM389.31 224.971V247.471H385.765V224.971H389.31ZM397.777 245.743L402.084 231.622H405.863L399.506 249.888C399.359 250.279 399.169 250.704 398.934 251.163C398.7 251.622 398.392 252.056 398.011 252.466C397.64 252.886 397.176 253.223 396.62 253.477C396.063 253.741 395.389 253.873 394.598 253.873C394.286 253.873 393.983 253.843 393.69 253.785C393.407 253.736 393.138 253.682 392.884 253.624L392.87 250.928C392.967 250.938 393.085 250.948 393.221 250.958C393.368 250.967 393.485 250.972 393.573 250.972C394.159 250.972 394.647 250.899 395.038 250.752C395.428 250.616 395.746 250.391 395.99 250.079C396.244 249.766 396.459 249.346 396.634 248.819L397.777 245.743ZM395.345 231.622L399.11 243.487L399.74 247.208L397.294 247.837L391.537 231.622H395.345ZM420.131 247.471H416.6V230.098C416.6 228.917 416.82 227.925 417.259 227.125C417.709 226.314 418.348 225.704 419.178 225.293C420.008 224.874 420.99 224.664 422.123 224.664C422.474 224.664 422.821 224.688 423.163 224.737C423.505 224.776 423.837 224.839 424.159 224.927L424.071 227.652C423.876 227.603 423.661 227.569 423.426 227.549C423.202 227.53 422.958 227.52 422.694 227.52C422.157 227.52 421.693 227.623 421.302 227.828C420.922 228.023 420.629 228.311 420.423 228.692C420.228 229.073 420.131 229.542 420.131 230.098V247.471ZM423.397 231.622V234.2H414.169V231.622H423.397ZM429.506 234.639V247.471H425.975V231.622H429.344L429.506 234.639ZM434.354 231.519L434.325 234.8C434.11 234.761 433.876 234.732 433.622 234.712C433.378 234.693 433.133 234.683 432.889 234.683C432.284 234.683 431.752 234.771 431.293 234.947C430.834 235.113 430.448 235.357 430.135 235.679C429.833 235.992 429.598 236.373 429.432 236.822C429.266 237.271 429.169 237.774 429.139 238.331L428.334 238.389C428.334 237.393 428.431 236.47 428.627 235.621C428.822 234.771 429.115 234.024 429.506 233.379C429.906 232.735 430.404 232.232 431 231.871C431.605 231.509 432.303 231.329 433.094 231.329C433.309 231.329 433.539 231.348 433.783 231.387C434.037 231.426 434.227 231.47 434.354 231.519ZM443.26 247.764C442.089 247.764 441.029 247.574 440.082 247.193C439.144 246.802 438.343 246.26 437.679 245.567C437.025 244.874 436.522 244.058 436.171 243.121C435.819 242.183 435.643 241.172 435.643 240.088V239.502C435.643 238.262 435.824 237.139 436.185 236.133C436.547 235.127 437.049 234.268 437.694 233.555C438.339 232.833 439.1 232.281 439.979 231.9C440.858 231.519 441.81 231.329 442.836 231.329C443.968 231.329 444.96 231.519 445.809 231.9C446.659 232.281 447.362 232.818 447.919 233.511C448.485 234.195 448.905 235.01 449.178 235.958C449.462 236.905 449.603 237.95 449.603 239.092V240.601H437.357V238.067H446.117V237.789C446.097 237.154 445.97 236.558 445.736 236.001C445.511 235.445 445.165 234.996 444.696 234.654C444.227 234.312 443.602 234.141 442.821 234.141C442.235 234.141 441.713 234.268 441.254 234.522C440.804 234.766 440.428 235.123 440.126 235.591C439.823 236.06 439.589 236.626 439.423 237.291C439.266 237.945 439.188 238.682 439.188 239.502V240.088C439.188 240.782 439.281 241.426 439.466 242.022C439.662 242.608 439.945 243.121 440.316 243.56C440.687 244 441.136 244.346 441.664 244.6C442.191 244.844 442.792 244.966 443.465 244.966C444.315 244.966 445.072 244.795 445.736 244.454C446.4 244.112 446.976 243.628 447.465 243.003L449.325 244.805C448.983 245.303 448.539 245.782 447.992 246.241C447.445 246.69 446.776 247.056 445.985 247.339C445.204 247.623 444.296 247.764 443.26 247.764ZM459.344 247.764C458.173 247.764 457.113 247.574 456.166 247.193C455.228 246.802 454.427 246.26 453.763 245.567C453.109 244.874 452.606 244.058 452.255 243.121C451.903 242.183 451.727 241.172 451.727 240.088V239.502C451.727 238.262 451.908 237.139 452.269 236.133C452.631 235.127 453.133 234.268 453.778 233.555C454.423 232.833 455.184 232.281 456.063 231.9C456.942 231.519 457.894 231.329 458.92 231.329C460.052 231.329 461.044 231.519 461.893 231.9C462.743 232.281 463.446 232.818 464.003 233.511C464.569 234.195 464.989 235.01 465.262 235.958C465.546 236.905 465.687 237.95 465.687 239.092V240.601H453.441V238.067H462.201V237.789C462.181 237.154 462.054 236.558 461.82 236.001C461.595 235.445 461.249 234.996 460.78 234.654C460.311 234.312 459.686 234.141 458.905 234.141C458.319 234.141 457.797 234.268 457.338 234.522C456.888 234.766 456.512 235.123 456.21 235.591C455.907 236.06 455.673 236.626 455.507 237.291C455.35 237.945 455.272 238.682 455.272 239.502V240.088C455.272 240.782 455.365 241.426 455.55 242.022C455.746 242.608 456.029 243.121 456.4 243.56C456.771 244 457.22 244.346 457.748 244.6C458.275 244.844 458.876 244.966 459.549 244.966C460.399 244.966 461.156 244.795 461.82 244.454C462.484 244.112 463.06 243.628 463.548 243.003L465.409 244.805C465.067 245.303 464.623 245.782 464.076 246.241C463.529 246.69 462.86 247.056 462.069 247.339C461.288 247.623 460.38 247.764 459.344 247.764ZM480.687 247.471H477.157V230.098C477.157 228.917 477.377 227.925 477.816 227.125C478.265 226.314 478.905 225.704 479.735 225.293C480.565 224.874 481.547 224.664 482.679 224.664C483.031 224.664 483.378 224.688 483.719 224.737C484.061 224.776 484.393 224.839 484.715 224.927L484.628 227.652C484.432 227.603 484.217 227.569 483.983 227.549C483.758 227.53 483.514 227.52 483.251 227.52C482.714 227.52 482.25 227.623 481.859 227.828C481.478 228.023 481.185 228.311 480.98 228.692C480.785 229.073 480.687 229.542 480.687 230.098V247.471ZM483.954 231.622V234.2H474.725V231.622H483.954ZM485.843 239.722V239.385C485.843 238.243 486.009 237.183 486.341 236.207C486.673 235.22 487.152 234.366 487.777 233.643C488.412 232.911 489.183 232.344 490.091 231.944C491.009 231.534 492.045 231.329 493.197 231.329C494.359 231.329 495.394 231.534 496.302 231.944C497.22 232.344 497.997 232.911 498.632 233.643C499.266 234.366 499.75 235.22 500.082 236.207C500.414 237.183 500.58 238.243 500.58 239.385V239.722C500.58 240.865 500.414 241.924 500.082 242.901C499.75 243.877 499.266 244.732 498.632 245.464C497.997 246.187 497.225 246.753 496.317 247.164C495.409 247.564 494.379 247.764 493.226 247.764C492.064 247.764 491.024 247.564 490.106 247.164C489.198 246.753 488.426 246.187 487.792 245.464C487.157 244.732 486.673 243.877 486.341 242.901C486.009 241.924 485.843 240.865 485.843 239.722ZM489.374 239.385V239.722C489.374 240.435 489.447 241.109 489.593 241.744C489.74 242.378 489.969 242.935 490.282 243.414C490.594 243.892 490.995 244.268 491.483 244.542C491.971 244.815 492.552 244.952 493.226 244.952C493.881 244.952 494.447 244.815 494.925 244.542C495.414 244.268 495.814 243.892 496.127 243.414C496.439 242.935 496.669 242.378 496.815 241.744C496.971 241.109 497.049 240.435 497.049 239.722V239.385C497.049 238.682 496.971 238.018 496.815 237.393C496.669 236.758 496.434 236.197 496.112 235.708C495.799 235.22 495.399 234.839 494.911 234.566C494.432 234.283 493.861 234.141 493.197 234.141C492.533 234.141 491.957 234.283 491.468 234.566C490.99 234.839 490.594 235.22 490.282 235.708C489.969 236.197 489.74 236.758 489.593 237.393C489.447 238.018 489.374 238.682 489.374 239.385ZM507.084 234.639V247.471H503.553V231.622H506.923L507.084 234.639ZM511.932 231.519L511.903 234.8C511.688 234.761 511.454 234.732 511.2 234.712C510.956 234.693 510.712 234.683 510.467 234.683C509.862 234.683 509.33 234.771 508.871 234.947C508.412 235.113 508.026 235.357 507.714 235.679C507.411 235.992 507.176 236.373 507.01 236.822C506.844 237.271 506.747 237.774 506.717 238.331L505.912 238.389C505.912 237.393 506.009 236.47 506.205 235.621C506.4 234.771 506.693 234.024 507.084 233.379C507.484 232.735 507.982 232.232 508.578 231.871C509.183 231.509 509.882 231.329 510.673 231.329C510.887 231.329 511.117 231.348 511.361 231.387C511.615 231.426 511.805 231.47 511.932 231.519ZM222.655 269.668V288.565H219.125V266.622H222.377L222.655 269.668ZM232.982 274.4V274.708C232.982 275.86 232.845 276.929 232.572 277.916C232.308 278.892 231.913 279.747 231.385 280.479C230.868 281.202 230.228 281.763 229.466 282.164C228.705 282.564 227.826 282.764 226.83 282.764C225.843 282.764 224.979 282.583 224.237 282.222C223.505 281.851 222.884 281.329 222.377 280.655C221.869 279.981 221.459 279.19 221.146 278.282C220.843 277.364 220.629 276.358 220.502 275.264V274.078C220.629 272.916 220.843 271.861 221.146 270.914C221.459 269.966 221.869 269.151 222.377 268.467C222.884 267.784 223.505 267.256 224.237 266.885C224.969 266.514 225.824 266.329 226.8 266.329C227.797 266.329 228.68 266.524 229.452 266.915C230.223 267.295 230.873 267.842 231.4 268.555C231.927 269.258 232.323 270.108 232.587 271.104C232.85 272.09 232.982 273.189 232.982 274.4ZM229.452 274.708V274.4C229.452 273.667 229.383 272.989 229.247 272.364C229.11 271.729 228.895 271.172 228.602 270.694C228.309 270.215 227.933 269.844 227.474 269.581C227.025 269.307 226.483 269.17 225.848 269.17C225.223 269.17 224.686 269.278 224.237 269.493C223.788 269.698 223.412 269.986 223.109 270.357C222.806 270.728 222.572 271.163 222.406 271.661C222.24 272.149 222.123 272.681 222.054 273.257V276.099C222.172 276.802 222.372 277.447 222.655 278.033C222.938 278.619 223.339 279.087 223.856 279.439C224.383 279.781 225.057 279.952 225.878 279.952C226.512 279.952 227.054 279.815 227.504 279.542C227.953 279.268 228.319 278.892 228.602 278.414C228.895 277.925 229.11 277.364 229.247 276.729C229.383 276.094 229.452 275.42 229.452 274.708ZM244.921 279.292V271.734C244.921 271.167 244.818 270.679 244.613 270.269C244.408 269.859 244.095 269.542 243.675 269.317C243.265 269.092 242.748 268.98 242.123 268.98C241.547 268.98 241.048 269.078 240.629 269.273C240.209 269.468 239.882 269.732 239.647 270.064C239.413 270.396 239.296 270.772 239.296 271.192H235.78C235.78 270.567 235.931 269.961 236.234 269.375C236.537 268.79 236.976 268.267 237.552 267.808C238.129 267.349 238.817 266.988 239.618 266.724C240.419 266.46 241.317 266.329 242.313 266.329C243.505 266.329 244.559 266.529 245.477 266.929C246.405 267.33 247.132 267.935 247.66 268.746C248.197 269.546 248.465 270.552 248.465 271.763V278.809C248.465 279.532 248.514 280.181 248.612 280.757C248.719 281.324 248.871 281.817 249.066 282.237V282.471H245.448C245.282 282.09 245.15 281.607 245.052 281.021C244.965 280.425 244.921 279.849 244.921 279.292ZM245.433 272.833L245.463 275.015H242.928C242.274 275.015 241.698 275.079 241.2 275.206C240.702 275.323 240.287 275.499 239.955 275.733C239.623 275.967 239.374 276.25 239.208 276.583C239.042 276.915 238.959 277.291 238.959 277.71C238.959 278.13 239.056 278.516 239.252 278.868C239.447 279.209 239.73 279.478 240.101 279.673C240.482 279.869 240.941 279.966 241.478 279.966C242.201 279.966 242.831 279.82 243.368 279.527C243.915 279.224 244.344 278.858 244.657 278.428C244.969 277.989 245.135 277.574 245.155 277.183L246.298 278.75C246.18 279.151 245.98 279.581 245.697 280.04C245.414 280.499 245.043 280.938 244.584 281.358C244.134 281.768 243.592 282.105 242.958 282.369C242.333 282.632 241.61 282.764 240.79 282.764C239.755 282.764 238.832 282.559 238.021 282.149C237.211 281.729 236.576 281.167 236.117 280.464C235.658 279.751 235.428 278.946 235.428 278.047C235.428 277.208 235.585 276.465 235.897 275.821C236.219 275.167 236.688 274.62 237.303 274.18C237.928 273.741 238.69 273.409 239.589 273.184C240.487 272.95 241.512 272.833 242.665 272.833H245.433ZM255.702 269.639V282.471H252.172V266.622H255.541L255.702 269.639ZM260.55 266.519L260.521 269.8C260.306 269.761 260.072 269.732 259.818 269.712C259.574 269.693 259.33 269.683 259.086 269.683C258.48 269.683 257.948 269.771 257.489 269.947C257.03 270.113 256.644 270.357 256.332 270.679C256.029 270.992 255.795 271.373 255.629 271.822C255.463 272.271 255.365 272.774 255.336 273.331L254.53 273.389C254.53 272.393 254.628 271.47 254.823 270.621C255.018 269.771 255.311 269.024 255.702 268.379C256.102 267.735 256.6 267.232 257.196 266.871C257.801 266.509 258.5 266.329 259.291 266.329C259.506 266.329 259.735 266.348 259.979 266.387C260.233 266.426 260.423 266.47 260.55 266.519ZM270.76 266.622V269.2H261.825V266.622H270.76ZM264.403 262.74H267.933V278.091C267.933 278.58 268.002 278.956 268.138 279.219C268.285 279.473 268.485 279.644 268.739 279.732C268.993 279.82 269.291 279.864 269.632 279.864C269.877 279.864 270.111 279.849 270.336 279.82C270.56 279.791 270.741 279.761 270.878 279.732L270.892 282.427C270.599 282.515 270.257 282.593 269.867 282.662C269.486 282.73 269.047 282.764 268.548 282.764C267.738 282.764 267.02 282.623 266.395 282.339C265.77 282.046 265.282 281.573 264.93 280.918C264.579 280.264 264.403 279.395 264.403 278.311V262.74ZM277.264 266.622V282.471H273.719V266.622H277.264ZM273.485 262.461C273.485 261.924 273.661 261.48 274.012 261.128C274.374 260.767 274.872 260.586 275.507 260.586C276.132 260.586 276.625 260.767 276.986 261.128C277.347 261.48 277.528 261.924 277.528 262.461C277.528 262.989 277.347 263.428 276.986 263.78C276.625 264.131 276.132 264.307 275.507 264.307C274.872 264.307 274.374 264.131 274.012 263.78C273.661 263.428 273.485 262.989 273.485 262.461ZM287.606 279.952C288.182 279.952 288.7 279.839 289.159 279.615C289.628 279.38 290.004 279.058 290.287 278.648C290.58 278.238 290.741 277.764 290.77 277.227H294.095C294.076 278.252 293.773 279.185 293.187 280.025C292.601 280.865 291.825 281.534 290.858 282.032C289.891 282.52 288.822 282.764 287.65 282.764C286.439 282.764 285.384 282.559 284.486 282.149C283.588 281.729 282.84 281.153 282.245 280.42C281.649 279.688 281.2 278.843 280.897 277.886C280.604 276.929 280.458 275.904 280.458 274.81V274.297C280.458 273.204 280.604 272.178 280.897 271.221C281.2 270.254 281.649 269.405 282.245 268.672C282.84 267.94 283.588 267.369 284.486 266.958C285.384 266.539 286.434 266.329 287.635 266.329C288.905 266.329 290.018 266.583 290.975 267.09C291.932 267.588 292.684 268.287 293.231 269.185C293.788 270.074 294.076 271.109 294.095 272.291H290.77C290.741 271.705 290.594 271.177 290.331 270.708C290.077 270.23 289.715 269.849 289.247 269.566C288.788 269.283 288.236 269.141 287.591 269.141C286.879 269.141 286.288 269.288 285.819 269.581C285.35 269.864 284.984 270.254 284.72 270.752C284.457 271.241 284.266 271.792 284.149 272.408C284.042 273.013 283.988 273.643 283.988 274.297V274.81C283.988 275.464 284.042 276.099 284.149 276.714C284.257 277.33 284.442 277.881 284.706 278.37C284.979 278.848 285.35 279.234 285.819 279.527C286.288 279.81 286.883 279.952 287.606 279.952ZM300.585 266.622V282.471H297.04V266.622H300.585ZM296.805 262.461C296.805 261.924 296.981 261.48 297.333 261.128C297.694 260.767 298.192 260.586 298.827 260.586C299.452 260.586 299.945 260.767 300.306 261.128C300.668 261.48 300.848 261.924 300.848 262.461C300.848 262.989 300.668 263.428 300.306 263.78C299.945 264.131 299.452 264.307 298.827 264.307C298.192 264.307 297.694 264.131 297.333 263.78C296.981 263.428 296.805 262.989 296.805 262.461ZM307.997 269.668V288.565H304.466V266.622H307.718L307.997 269.668ZM318.324 274.4V274.708C318.324 275.86 318.187 276.929 317.914 277.916C317.65 278.892 317.255 279.747 316.727 280.479C316.21 281.202 315.57 281.763 314.808 282.164C314.047 282.564 313.168 282.764 312.172 282.764C311.185 282.764 310.321 282.583 309.579 282.222C308.846 281.851 308.226 281.329 307.718 280.655C307.211 279.981 306.8 279.19 306.488 278.282C306.185 277.364 305.97 276.358 305.843 275.264V274.078C305.97 272.916 306.185 271.861 306.488 270.914C306.8 269.966 307.211 269.151 307.718 268.467C308.226 267.784 308.846 267.256 309.579 266.885C310.311 266.514 311.166 266.329 312.142 266.329C313.138 266.329 314.022 266.524 314.794 266.915C315.565 267.295 316.215 267.842 316.742 268.555C317.269 269.258 317.665 270.108 317.928 271.104C318.192 272.09 318.324 273.189 318.324 274.4ZM314.794 274.708V274.4C314.794 273.667 314.725 272.989 314.589 272.364C314.452 271.729 314.237 271.172 313.944 270.694C313.651 270.215 313.275 269.844 312.816 269.581C312.367 269.307 311.825 269.17 311.19 269.17C310.565 269.17 310.028 269.278 309.579 269.493C309.13 269.698 308.754 269.986 308.451 270.357C308.148 270.728 307.914 271.163 307.748 271.661C307.582 272.149 307.465 272.681 307.396 273.257V276.099C307.513 276.802 307.714 277.447 307.997 278.033C308.28 278.619 308.68 279.087 309.198 279.439C309.725 279.781 310.399 279.952 311.219 279.952C311.854 279.952 312.396 279.815 312.845 279.542C313.295 279.268 313.661 278.892 313.944 278.414C314.237 277.925 314.452 277.364 314.589 276.729C314.725 276.094 314.794 275.42 314.794 274.708ZM330.262 279.292V271.734C330.262 271.167 330.16 270.679 329.955 270.269C329.75 269.859 329.437 269.542 329.017 269.317C328.607 269.092 328.09 268.98 327.465 268.98C326.888 268.98 326.39 269.078 325.97 269.273C325.55 269.468 325.223 269.732 324.989 270.064C324.755 270.396 324.637 270.772 324.637 271.192H321.122C321.122 270.567 321.273 269.961 321.576 269.375C321.879 268.79 322.318 268.267 322.894 267.808C323.47 267.349 324.159 266.988 324.96 266.724C325.76 266.46 326.659 266.329 327.655 266.329C328.846 266.329 329.901 266.529 330.819 266.929C331.747 267.33 332.474 267.935 333.002 268.746C333.539 269.546 333.807 270.552 333.807 271.763V278.809C333.807 279.532 333.856 280.181 333.954 280.757C334.061 281.324 334.213 281.817 334.408 282.237V282.471H330.79C330.624 282.09 330.492 281.607 330.394 281.021C330.306 280.425 330.262 279.849 330.262 279.292ZM330.775 272.833L330.804 275.015H328.27C327.616 275.015 327.04 275.079 326.542 275.206C326.044 275.323 325.629 275.499 325.297 275.733C324.965 275.967 324.715 276.25 324.549 276.583C324.383 276.915 324.3 277.291 324.3 277.71C324.3 278.13 324.398 278.516 324.593 278.868C324.789 279.209 325.072 279.478 325.443 279.673C325.824 279.869 326.283 279.966 326.82 279.966C327.543 279.966 328.173 279.82 328.71 279.527C329.257 279.224 329.686 278.858 329.999 278.428C330.311 277.989 330.477 277.574 330.497 277.183L331.639 278.75C331.522 279.151 331.322 279.581 331.039 280.04C330.756 280.499 330.384 280.938 329.925 281.358C329.476 281.768 328.934 282.105 328.299 282.369C327.674 282.632 326.952 282.764 326.132 282.764C325.096 282.764 324.173 282.559 323.363 282.149C322.552 281.729 321.918 281.167 321.459 280.464C321 279.751 320.77 278.946 320.77 278.047C320.77 277.208 320.926 276.465 321.239 275.821C321.561 275.167 322.03 274.62 322.645 274.18C323.27 273.741 324.032 273.409 324.93 273.184C325.829 272.95 326.854 272.833 328.007 272.833H330.775ZM341 270.005V282.471H337.469V266.622H340.795L341 270.005ZM340.37 273.96L339.227 273.946C339.237 272.823 339.393 271.792 339.696 270.855C340.008 269.917 340.438 269.112 340.985 268.438C341.542 267.764 342.206 267.247 342.977 266.885C343.749 266.514 344.608 266.329 345.555 266.329C346.317 266.329 347.006 266.436 347.621 266.651C348.246 266.856 348.778 267.193 349.217 267.662C349.667 268.13 350.008 268.741 350.243 269.493C350.477 270.235 350.594 271.148 350.594 272.232V282.471H347.049V272.217C347.049 271.456 346.937 270.855 346.713 270.416C346.498 269.966 346.18 269.649 345.76 269.463C345.35 269.268 344.838 269.17 344.222 269.17C343.617 269.17 343.075 269.297 342.596 269.551C342.118 269.805 341.713 270.152 341.381 270.591C341.058 271.031 340.809 271.539 340.633 272.115C340.458 272.691 340.37 273.306 340.37 273.96ZM361.464 266.622V269.2H352.528V266.622H361.464ZM355.106 262.74H358.636V278.091C358.636 278.58 358.705 278.956 358.841 279.219C358.988 279.473 359.188 279.644 359.442 279.732C359.696 279.82 359.994 279.864 360.336 279.864C360.58 279.864 360.814 279.849 361.039 279.82C361.263 279.791 361.444 279.761 361.581 279.732L361.595 282.427C361.302 282.515 360.961 282.593 360.57 282.662C360.189 282.73 359.75 282.764 359.252 282.764C358.441 282.764 357.723 282.623 357.098 282.339C356.473 282.046 355.985 281.573 355.633 280.918C355.282 280.264 355.106 279.395 355.106 278.311V262.74ZM373.08 278.179C373.08 277.828 372.992 277.51 372.816 277.227C372.64 276.934 372.303 276.67 371.805 276.436C371.317 276.202 370.594 275.987 369.637 275.792C368.798 275.606 368.026 275.386 367.323 275.132C366.63 274.869 366.034 274.551 365.536 274.18C365.038 273.809 364.652 273.37 364.379 272.862C364.105 272.354 363.968 271.768 363.968 271.104C363.968 270.459 364.11 269.849 364.393 269.273C364.676 268.697 365.082 268.189 365.609 267.75C366.136 267.31 366.776 266.963 367.528 266.709C368.29 266.456 369.139 266.329 370.077 266.329C371.405 266.329 372.543 266.553 373.49 267.002C374.447 267.442 375.179 268.042 375.687 268.804C376.195 269.556 376.449 270.406 376.449 271.353H372.919C372.919 270.933 372.811 270.542 372.596 270.181C372.391 269.81 372.079 269.512 371.659 269.288C371.239 269.053 370.712 268.936 370.077 268.936C369.471 268.936 368.968 269.034 368.568 269.229C368.177 269.415 367.884 269.659 367.689 269.961C367.504 270.264 367.411 270.596 367.411 270.958C367.411 271.221 367.46 271.46 367.557 271.675C367.665 271.88 367.84 272.071 368.085 272.247C368.329 272.413 368.661 272.569 369.081 272.715C369.51 272.862 370.048 273.003 370.692 273.14C371.903 273.394 372.943 273.721 373.812 274.122C374.691 274.512 375.365 275.02 375.834 275.645C376.302 276.26 376.537 277.042 376.537 277.989C376.537 278.692 376.385 279.336 376.083 279.922C375.79 280.499 375.36 281.001 374.794 281.431C374.227 281.851 373.548 282.178 372.757 282.413C371.976 282.647 371.097 282.764 370.121 282.764C368.685 282.764 367.469 282.51 366.473 282.002C365.477 281.485 364.72 280.826 364.203 280.025C363.695 279.214 363.441 278.375 363.441 277.505H366.854C366.893 278.16 367.074 278.682 367.396 279.073C367.728 279.454 368.138 279.732 368.627 279.908C369.125 280.074 369.637 280.157 370.165 280.157C370.799 280.157 371.332 280.074 371.761 279.908C372.191 279.732 372.518 279.498 372.743 279.205C372.967 278.902 373.08 278.56 373.08 278.179ZM383.7 261.143L383.348 276.187H380.331L379.965 261.143H383.7ZM379.862 280.801C379.862 280.264 380.038 279.815 380.389 279.454C380.751 279.083 381.249 278.897 381.883 278.897C382.508 278.897 383.002 279.083 383.363 279.454C383.724 279.815 383.905 280.264 383.905 280.801C383.905 281.319 383.724 281.763 383.363 282.134C383.002 282.496 382.508 282.676 381.883 282.676C381.249 282.676 380.751 282.496 380.389 282.134C380.038 281.763 379.862 281.319 379.862 280.801Z" fill="black"/>
</svg>
