<svg width="284" height="1121" viewBox="0 0 284 1121" fill="none" xmlns="http://www.w3.org/2000/svg">
<path d="M299.467 904.579C298.388 909.014 296.645 915.203 294.593 918.7C292.958 921.488 289.822 923.685 288.675 927.007C287.499 930.414 285.829 931.741 284.916 935.788C284.471 937.757 283.321 945.572 282.548 946.231" stroke="#3DA418" stroke-linecap="round"/>
<path d="M244.372 841.429C248.366 851.687 251.747 860.341 251.747 874.052C251.747 880.385 250.613 886.099 250.613 892.203C250.613 894.561 251.176 906.529 250.045 899.929" stroke="#3DA418" stroke-linecap="round"/>
<path d="M244.372 851.506C235.064 860 235.705 871.963 235.705 884.91C235.705 889.429 239.998 919.358 235.705 919.358" stroke="#3DA418" stroke-linecap="round"/>
<path d="M251.747 870.988C254.577 878.282 256.826 885.398 257.967 893.669C258.389 896.726 259.189 898.86 259.303 901.966C259.356 903.417 259.99 908.794 259.99 908.605" stroke="#3DA418" stroke-linecap="round"/>
<path d="M250.012 870.988C246.837 877.037 241.769 886.472 241.769 893.83" stroke="#3DA418" stroke-linecap="round"/>
<path d="M235.696 881.737C234.584 883.618 229.796 888.076 229.216 890.678C228.94 891.917 227.686 897.89 227.132 898.458C225.198 900.44 226.724 915.864 226.724 919.358" stroke="#3DA418" stroke-linecap="round"/>
<path d="M237.431 904.579C239.083 911.237 241.002 916.03 243.938 921.162C245.012 923.038 249.62 932.237 248.551 931.397" stroke="#3DA418" stroke-linecap="round"/>
<path d="M198.821 820.603C196.196 823.57 195.877 824.997 194.201 828.254C193.372 829.864 193.716 832.904 192.837 834.61C191.85 836.529 192.412 840.472 191.171 842.615C190.436 843.884 189.277 846.354 189.277 848.147" stroke="#3DA418" stroke-linecap="round"/>
<path d="M206.196 832.024C203.974 836.582 202.583 846.426 199.097 848.738C195.266 851.28 192.454 853.97 190.579 859.568" stroke="#3DA418" stroke-linecap="round"/>
<path d="M193.615 836.726C191.124 834.038 187.542 831.697 187.542 825.978" stroke="#3DA418" stroke-linecap="round"/>
<path d="M210.101 833.367C208.176 838.624 208.555 843.289 208.555 849.51C208.555 855.013 207.709 860.856 206.208 865.538C204.507 870.849 203.482 876.765 202.917 882.931C202.704 885.262 202.373 887.787 202.373 890.15C202.373 892.119 202.843 895.642 201.858 892.707" stroke="#3DA418" stroke-linecap="round"/>
<path d="M204.461 870.988C204.461 881.572 207.064 891.187 207.064 901.891" stroke="#3DA418" stroke-linecap="round"/>
<path d="M204.461 889.799C205.362 890.416 211.092 894 211.278 896.395C211.369 897.564 213.571 901.542 214.005 901.892" stroke="#3DA418" stroke-linecap="round"/>
<path d="M207.064 870.988C208.703 875.918 212.267 884.614 216.174 887.112" stroke="#3DA418" stroke-linecap="round"/>
<path d="M205.329 858.896C202.609 860.798 193.182 864.404 193.182 870.988" stroke="#3DA418" stroke-linecap="round"/>
<path d="M200.123 862.255C197.576 860.783 195.484 858.485 193.182 856.88" stroke="#3DA418" stroke-linecap="round"/>
<path d="M299.467 837.398C299.467 848.5 299.467 859.602 299.467 870.704C299.467 880.691 296.508 879.125 292.671 884.193C287.011 891.669 275.274 897.35 273.366 911.53C272.241 919.886 270.835 925.044 270.835 934.092C270.835 942.882 272.136 951.644 272.136 959.877C272.136 976.194 264.01 991.118 255.796 999.748C251.579 1004.18 246.551 1005.98 242.203 1009.78C238.394 1013.1 235.924 1018.84 232.37 1022.19C226.08 1028.13 219.581 1045.28 218.777 1056.57C217.784 1070.5 216.099 1088.04 209.016 1097.4C202.823 1105.58 196.903 1118.88 188.843 1118.88" stroke="#3DA418" stroke-width="3" stroke-linecap="round"/>
<path d="M122.035 1081.26C122.035 1042.58 128.401 1007.68 141.409 975.02C147.179 960.533 152.308 943.278 161.671 933.808C169.093 926.301 177.415 923.632 185.925 920.945C191.651 919.136 197.988 916.647 203.524 913.56C207.214 911.503 211.484 903.67 215.208 903.317C217.101 903.138 224.152 898.058 225.56 896.409C230.108 891.081 236.887 884.97 242.124 881.401C249.365 876.467 254.834 867.509 261.794 860.915C264.691 858.17 267.444 853.587 270.076 850.195C272.482 847.094 276.959 849.044 279.393 845.907C280.721 844.196 289.209 843.464 291.077 843.287C293.833 843.026 295.958 836.14 297.732 834.711" stroke="#3DA418" stroke-width="3" stroke-linecap="round"/>
<path d="M274.083 855.537C270.678 862.805 266.248 881.529 271.571 889.321C272.954 891.346 275.374 894.974 275.805 897.495C276.433 901.173 276.834 904.579 279.945 904.579" stroke="#3DA418" stroke-linecap="round"/>
<path d="M219.645 926.748C230.038 933.111 246.521 938.694 252.347 955.148C254.718 961.843 257.411 968.034 259.35 975.133C260 977.511 263.275 985.327 263.894 981.444" stroke="#3DA418" stroke-linecap="round"/>
<path d="M242.444 944.215C244.388 934.979 248.03 926.979 247.835 917.25C247.741 912.544 243.968 909.268 243.172 905.292C242.726 903.066 240.602 899.733 239.749 897.544C238.724 894.913 239.364 890.085 239.364 887.112" stroke="#3DA418" stroke-linecap="round"/>
<path d="M271.269 812.556C265.915 812.556 262.77 811.981 258.674 817.997C257 820.457 256.194 823.122 254.826 825.676C253.441 828.261 253.596 832.856 253.038 835.894C252.48 838.928 250.484 841.299 249.578 844.116" stroke="#3DA418" stroke-linecap="round"/>
<path d="M271.269 814.557H274.306" stroke="#3DA418" stroke-linecap="round"/>
<path d="M259.99 817.916C261.281 821.595 262.891 827.796 265.441 829.687C266.981 830.829 269.169 832.386 270.286 834.561C271.377 836.684 273.243 838.425 273.457 841.458C273.654 844.249 274.74 845.684 274.74 841.458" stroke="#3DA418" stroke-linecap="round"/>
<path d="M320.724 890.471C317.602 890.471 314.479 890.471 311.357 890.471C307.835 890.471 305.243 892.816 301.951 893.405C296.095 894.452 293.16 902.484 288.674 906.635C286.161 908.96 284.723 913.76 282.055 915.879C280.27 917.298 276.916 916.378 274.74 916.378" stroke="#3DA418" stroke-linecap="round"/>
<path d="M316.386 924.061C310.618 924.061 304.592 926.769 300.383 933.13C297.168 937.989 296.861 938.169 292.085 938.169C290.091 938.169 285.99 932.156 285.046 929.659C283.947 926.752 281.458 925.306 280.379 922.046" stroke="#3DA418" stroke-linecap="round"/>
<path d="M247.843 918.816C250.058 917.905 260.682 908.415 262.554 914.882C263.5 918.15 267.404 924.061 269.1 924.061" stroke="#3DA418" stroke-linecap="round"/>
<path d="M255.218 873.004C258.84 882.003 265.573 881.477 271.269 884.425" stroke="#3DA418" stroke-linecap="round"/>
<path d="M290.9 846.132C289.327 849.386 279.12 866.49 285.485 870.97C289.278 873.639 292.37 879.766 294.261 884.425" stroke="#3DA418" stroke-linecap="round"/>
<path d="M269.1 873.004C273.953 873.004 278.433 870.988 282.982 870.988" stroke="#3DA418" stroke-linecap="round"/>
<path d="M237.201 814.557C235.785 821.056 234.226 837.265 238.353 841.614C240.626 844.01 242.728 847.614 245.007 850.212C245.802 851.119 250.446 857.265 250.446 856.862" stroke="#3DA418" stroke-linecap="round"/>
<path d="M166.719 127.299C166.719 109.847 166.789 94.9041 176.811 84.4861C181.694 79.4108 187.419 78.8977 192.349 73.307C195.142 70.1403 200.2 64.7646 201.861 59.8684C203.739 54.3312 204.62 51.1456 204.62 44.6459C204.62 37.5103 204.62 30.3747 204.62 23.2392C204.62 17.7335 206.738 10.8012 209.848 8.25449C212.614 5.9896 215.245 1 218.343 1" stroke="#3DA418" stroke-width="2" stroke-linecap="round"/>
<path d="M17.0512 244.866C17.0512 249.734 16.6099 253.919 16.2704 258.106C16.0765 260.497 13.5958 261.401 13.1903 263.589C12.6786 266.35 7.36887 273.753 5.33813 273.753" stroke="#3DA418" stroke-linecap="round"/>
<path d="M24.86 437.674C22.993 431.055 19.9823 414.192 15.0991 412.557C10.4328 410.994 9.24137 397.365 5.33813 397.365" stroke="#3DA418" stroke-linecap="round"/>
<path d="M14.8821 414.832C12.2573 417.799 11.9383 419.226 10.2616 422.483C9.43271 424.094 9.77692 427.133 8.8982 428.84C7.91079 430.758 8.47271 434.701 7.23179 436.844C6.49655 438.113 5.33813 440.583 5.33813 442.376" stroke="#3DA418" stroke-linecap="round"/>
<path d="M22.2571 426.253C20.0355 430.812 18.6445 440.655 15.1583 442.968C11.3269 445.509 8.51524 448.199 6.63965 453.797" stroke="#3DA418" stroke-linecap="round"/>
<path d="M9.67624 430.956C7.18513 428.267 3.60278 425.926 3.60278 420.207" stroke="#3DA418" stroke-linecap="round"/>
<path d="M14.0146 413.489C11.0831 405.346 10.0104 397.955 6.63965 390.647" stroke="#3DA418" stroke-linecap="round"/>
<path d="M17.0512 414.832C16.2899 409.06 15.6051 404.643 15.6051 398.784C15.6051 394.855 16.3622 389.23 14.8821 385.945" stroke="#3DA418" stroke-linecap="round"/>
<path d="M26.1615 427.597C24.2364 432.854 24.616 437.519 24.616 443.739C24.616 449.242 23.7694 455.086 22.2692 459.768C20.5674 465.079 19.5424 470.994 18.9779 477.16C18.7645 479.491 18.4341 482.016 18.4341 484.379C18.4341 486.348 18.904 489.871 17.9189 486.937" stroke="#3DA418" stroke-linecap="round"/>
<path d="M20.522 465.218C20.522 475.801 23.1249 485.417 23.1249 496.121" stroke="#3DA418" stroke-linecap="round"/>
<path d="M20.522 484.028C21.4226 484.646 27.1534 488.229 27.3391 490.624C27.4298 491.794 29.6324 495.771 30.066 496.121" stroke="#3DA418" stroke-linecap="round"/>
<path d="M23.1248 465.218C24.7638 470.147 28.3275 478.844 32.2349 481.341" stroke="#3DA418" stroke-linecap="round"/>
<path d="M21.3896 453.125C18.6703 455.027 9.24268 458.633 9.24268 465.218" stroke="#3DA418" stroke-linecap="round"/>
<path d="M16.1838 456.484C13.6375 455.013 11.5453 452.714 9.24268 451.11" stroke="#3DA418" stroke-linecap="round"/>
<path d="M12.7024 179.7C12.7024 173.507 11.7538 165.866 13.3731 159.937C15.0868 153.662 13.05 153.184 10.9778 148.125" stroke="#3DA418" stroke-linecap="round"/>
<path d="M10.9778 184.403C7.33726 184.994 4.53332 187.762 1 187.762" stroke="#3DA418" stroke-linecap="round"/>
<path d="M14.0144 169.623C14.0999 162.42 15.4761 163.444 16.8032 158.672C17.5231 156.084 17.463 152.95 17.9188 150.141" stroke="#3DA418" stroke-linecap="round"/>
<path d="M14.8822 191.121C13.7312 193.616 10.1956 203.845 8.54467 204.466C7.08167 205.017 1 213.157 1 208.498" stroke="#3DA418" stroke-linecap="round"/>
<path d="M20.9658 192.465C19.9671 183.914 20.9658 175.773 20.9658 167.19C20.9658 163.147 20.9026 156.814 22.2572 153.5" stroke="#3DA418" stroke-linecap="round"/>
<path d="M20.522 177.013C25.1277 175.281 26.5954 173.825 26.5954 169.623" stroke="#3DA418" stroke-linecap="round"/>
<path d="M5.33813 156.859C7.13647 160.254 9.66724 167.755 12.2792 169.623" stroke="#3DA418" stroke-linecap="round"/>
<path d="M214.439 144.766C214.439 141.392 214.249 133.777 211.836 132.002" stroke="#3DA418" stroke-linecap="round"/>
<path d="M202.292 138.72C202.292 127.971 206.406 122.151 209.231 113.246C209.911 111.103 211.463 108.275 210.812 105.739C210.402 104.145 208.892 104.451 208.66 102.663C208.457 101.097 208.616 99.3337 208.616 97.7402" stroke="#3DA418" stroke-linecap="round"/>
<path d="M103.381 123.749C99.3663 123.749 95.1858 124.791 91.6642 122.01C89.0347 119.933 84.8988 119.36 82.0238 119.11C75.9111 118.579 71.6718 120.245 68.6755 109.833" stroke="#3DA418" stroke-linecap="round"/>
<path d="M208.799 843.444C206.932 836.825 203.921 819.962 199.038 818.327C194.372 816.765 193.18 803.136 189.277 803.136" stroke="#3DA418" stroke-linecap="round"/>
<path d="M197.954 819.259C195.022 811.116 193.949 803.726 190.579 796.418" stroke="#3DA418" stroke-linecap="round"/>
<path d="M200.99 820.603C200.229 814.83 199.544 810.414 199.544 804.554C199.544 800.625 200.301 795.001 198.821 791.715" stroke="#3DA418" stroke-linecap="round"/>
<path d="M165.851 833.226C174.829 832.876 184.085 826.391 190.2 816.618C195.73 807.781 203.582 807.602 211.283 807.602C221.49 807.602 229.812 794.79 240.681 794.79C244.97 794.79 248.56 792.654 252.707 792.654C254.508 792.654 256.911 791.981 258.646 792.773C260.077 793.426 260.422 796.634 262.061 796.925C267.236 797.844 271.043 803.628 275.423 807.127C279.874 810.684 284.886 812.739 288.785 818.279C294.439 826.309 304.041 837.497 311.502 837.497C328.629 837.497 347.614 838.244 356.934 864.307C365.573 888.468 375.969 898.504 392.27 905.947C394.931 907.162 397.302 910.99 400.287 912.353C402.525 913.375 406.555 917.03 408.305 919.827C412.931 927.22 414.424 947.773 412.982 958.145C409.885 980.411 397.834 990.111 405.707 1012.48C410.006 1024.69 418.787 1032.67 422.41 1045.69C423.685 1050.28 425.958 1056.42 428.423 1059.57C431.173 1063.09 432.141 1067.52 435.104 1071.2C442.379 1080.24 449.135 1096.16 449.135 1110.82" stroke="#3DA418" stroke-width="3" stroke-linecap="round"/>
<path d="M248.493 797.09C247.683 806.308 246.541 814.995 246.541 824.404C246.541 831.763 246.984 836.043 248.114 842.813C249.333 850.114 250.446 854.959 250.446 862.907C250.446 865.305 248.493 876.662 248.493 871.811" stroke="#3DA418" stroke-linecap="round"/>
<path d="M224.416 799.777C225.885 809.393 229.27 812.707 235.675 814.38C239.951 815.498 247.234 814.539 249.578 821.275" stroke="#3DA418" stroke-linecap="round"/>
<path d="M281.681 796.418C287.628 798.526 290.357 813.663 290.357 822.618" stroke="#3DA418" stroke-linecap="round"/>
<path d="M60.4332 445.735C51.1248 454.229 51.7662 466.193 51.7662 479.14C51.7662 483.658 56.0592 513.588 51.7662 513.588" stroke="#3DA418" stroke-linecap="round"/>
<path d="M51.7567 475.967C50.6446 477.848 45.857 482.306 45.2768 484.908C45.0005 486.147 43.7467 492.119 43.1924 492.687C41.2583 494.67 42.7846 510.094 42.7846 513.588" stroke="#3DA418" stroke-linecap="round"/>
<path d="M37.0069 277.112C29.4293 277.112 24.2224 277.547 17.989 284.426C14.9784 287.748 13.1621 291.825 10.934 295.696C10.3225 296.758 6.63965 302.492 6.63965 301.93" stroke="#3DA418" stroke-linecap="round"/>
<path d="M36.1392 277.112C37.7668 277.112 38.753 277.112 40.4773 277.112" stroke="#3DA418" stroke-linecap="round"/>
<path d="M40.4774 275.768C40.4774 256.891 37.0715 236.804 23.9214 236.804C20.8561 236.804 18.0341 242.194 15.0991 243.616C11.6158 245.304 8.86441 250.855 5.33813 252.848" stroke="#3DA418" stroke-linecap="round"/>
<path d="M36.1392 199.183C29.9547 199.183 24.6204 197.767 19.871 190.929C14.7348 183.534 8.55287 177.829 3.60278 170.295" stroke="#3DA418" stroke-linecap="round"/>
<path d="M274.74 784.326V807.167" stroke="#3DA418" stroke-linecap="round"/>
<path d="M246.541 780.967C248.032 767.481 254.497 768.129 260.78 766.389C264.487 765.362 266.104 764.7 269.1 767.604" stroke="#3DA418" stroke-linecap="round"/>
<path d="M68.6758 228.601C77.6542 228.251 86.9093 221.766 93.0251 211.993C98.5546 203.156 106.406 202.977 114.108 202.977C124.315 202.977 132.637 190.165 143.505 190.165C147.795 190.165 151.385 188.029 155.532 188.029C157.333 188.029 159.736 187.356 161.47 188.148C162.902 188.801 163.247 192.009 164.885 192.3C170.061 193.219 173.868 199.003 178.248 202.502C182.699 206.059 187.711 208.114 191.61 213.654C197.263 221.684 206.866 232.872 214.326 232.872C231.453 232.872 250.439 233.619 259.759 259.682C268.398 283.843 278.794 293.879 295.095 301.322C297.755 302.537 300.127 306.365 303.112 307.728C305.35 308.75 309.38 312.405 311.13 315.202C315.756 322.595 317.249 343.148 315.806 353.52C312.71 375.786 300.658 385.486 308.531 407.853C312.831 420.066 321.612 428.044 325.234 441.07C326.51 445.656 328.783 451.798 331.248 454.949C333.997 458.465 334.965 462.892 337.929 466.575C345.204 475.618 351.959 491.532 351.959 506.198" stroke="#3DA418" stroke-width="3" stroke-linecap="round"/>
<path d="M202.292 232.773C202.292 243.875 202.292 254.977 202.292 266.079C202.292 276.066 199.333 274.499 195.495 279.568C189.835 287.044 178.099 292.725 176.191 306.905C175.066 315.261 173.66 320.419 173.66 329.467C173.66 338.257 174.961 347.019 174.961 355.252C174.961 371.569 166.835 386.493 158.621 395.123C154.404 399.554 149.376 401.35 145.028 405.151C141.219 408.48 138.749 414.213 135.195 417.566C128.905 423.5 122.406 440.655 121.602 451.946C120.609 465.879 118.924 483.416 111.841 492.772C105.648 500.951 99.7282 514.26 91.6682 514.26" stroke="#3DA418" stroke-width="3" stroke-linecap="round"/>
<path d="M201.705 232.773C196.869 213.932 193.616 201.642 193.616 181.744C193.616 162.595 198.646 144.217 208.746 132.84C217.475 123.008 225.65 116.406 235.411 109.924C243.11 104.812 252.914 103.33 257.283 90.3157C259.716 83.0661 264.508 70.8881 268.069 65.2735C270.315 61.7309 273.735 60.9083 276.532 57.4773C281.005 51.9916 286.906 48.5206 291.738 43.5387C298.348 36.7222 307.303 39.2862 314.957 39.2862C319.376 39.2862 329.29 32.3513 331.136 26.5288" stroke="#3DA418" stroke-width="3" stroke-linecap="round"/>
<path d="M61.301 11.0771C61.301 23.8979 66.1807 49.4702 73.0914 57.8945C81.6688 68.3505 94.5488 73.7937 104.824 77.2426C112.305 79.7536 120.023 79.4811 127.313 82.1393C129.628 82.9834 137.116 85.6699 138.885 87.9914C141.411 91.3073 147.685 91.8414 150.966 94.9185C154.273 98.0189 157.444 101.888 160.865 105.19C166.778 110.898 161.651 129.854 165.814 138.392C169.539 146.034 171.006 156.028 174.984 164.189C177.026 168.378 175.554 174.826 178.55 178.76C181.131 182.147 184.493 181.943 186.774 185.687C189.468 190.106 186.57 199.177 189.031 202.407C191.74 205.964 191.616 213.665 193.616 215.306" stroke="#3DA418" stroke-width="3" stroke-linecap="round"/>
<path d="M200.557 230.086C202.379 217.061 212.694 202.133 219.008 192.994C226.557 182.067 233.766 174.089 244.23 174.089C254.822 174.089 265.609 176.242 275.553 176.242C278.912 176.242 282.342 180.55 285.597 180.55C290.44 180.55 294.43 180.955 298.99 182.584C310.211 186.594 324.818 182.704 336.488 182.704C347.956 182.704 350.297 169.485 358.585 161.645C363.162 157.315 367.511 156.859 372.647 156.859C376.711 156.859 377.757 161.711 380.682 165.474C383.286 168.824 384.145 173.076 386.411 176.721C389.258 181.3 397.632 187.852 394.744 176.242" stroke="#3DA418" stroke-width="3" stroke-linecap="round"/>
<path d="M24.8601 476.639C24.8601 437.957 31.2253 403.058 44.234 370.395C50.0036 355.908 55.1329 338.653 64.4953 329.183C71.9181 321.676 80.2399 319.007 88.7497 316.32C94.4755 314.511 100.812 312.022 106.349 308.935C110.039 306.878 114.309 299.045 118.033 298.692C119.926 298.513 126.977 293.433 128.385 291.784C132.933 286.456 139.711 280.345 144.949 276.776C152.19 271.842 157.659 262.884 164.619 256.29C167.516 253.545 170.269 248.962 172.901 245.57C175.307 242.469 179.784 244.419 182.218 241.282C183.546 239.571 192.034 238.839 193.901 238.662C196.657 238.401 198.783 231.515 200.557 230.086" stroke="#3DA418" stroke-width="3" stroke-linecap="round"/>
<path d="M233.447 241.506C233.447 263.462 232.651 285.962 233.447 307.885C233.692 314.651 238.986 322.122 242.036 325.966C245.944 330.891 256.248 329.98 258.553 334.65C260.443 338.478 272.247 342.02 275.438 343.81C280.952 346.903 285.59 350.532 290.854 352.969C294.718 354.758 299.498 360.609 303.481 361.415C305.142 361.752 314.325 375.148 312.73 369.98" stroke="#3DA418" stroke-width="3" stroke-linecap="round"/>
<path d="M265.629 184.403C265.629 208.438 269.579 226.201 279.306 243.053C285.844 254.38 285.128 272.675 285.128 287.861" stroke="#3DA418" stroke-width="3" stroke-linecap="round"/>
<path d="M285.151 285.846V297.266" stroke="#3DA418" stroke-width="3" stroke-linecap="round"/>
<path d="M103.381 308.015C103.381 318.464 104.071 327.454 104.71 337.624C104.978 341.899 107.226 346.526 107.366 350.314C107.734 360.28 113.19 363.492 116.665 370.406C118.393 373.846 121.524 375.319 123.306 378.866C124.523 381.287 125.615 387.094 126.627 388.383C129.516 392.063 127.291 415.602 127.291 422.222" stroke="#3DA418" stroke-width="3" stroke-linecap="round"/>
<path d="M80.8559 72.2114C80.8559 88.6198 79.9903 104.087 87.0707 115.828C93.2167 126.018 107.237 137.262 115.977 139.074C122.932 140.515 131.682 150.087 136.5 158.965C142.825 170.618 144.594 179.602 144.594 195.152" stroke="#3DA418" stroke-width="3" stroke-linecap="round"/>
<path d="M97.3077 205.44C87.8904 195.932 79.6468 188.538 70.2426 180.295C65.2601 175.928 47.9621 175.361 43.9293 182.038C39.3388 189.638 33.3707 212.161 26.2618 212.161C21.7872 212.161 8.49347 223.947 6.63965 230.086" stroke="#3DA418" stroke-width="3" stroke-linecap="round"/>
<path d="M240.034 106.474C250.482 116.734 260.92 123.79 272.501 127.935C280.68 130.863 289.476 131.165 297.68 134.101C307.077 137.465 317.734 143.775 326.171 151.769C329.451 154.876 332.382 164.492 332.797 170.504C333.271 177.368 339.554 183.436 332.797 176.907" stroke="#3DA418" stroke-width="3" stroke-linecap="round"/>
<path d="M204.027 252.255C204.027 259.749 205.376 263.232 208.505 268.189C210.762 271.766 213.689 272.145 215.918 275.284C217.423 277.405 220.37 278.389 222.193 279.994C224.24 281.796 225.678 284.004 227.295 286.566C228.921 289.143 233.112 297.327 233.093 297.266" stroke="#3DA418" stroke-width="2" stroke-linecap="round"/>
<path d="M237.865 184.403C237.865 191.497 238.331 196.66 239.253 203.295C239.931 208.167 241.862 211.296 243.268 215.229C244.959 219.961 247.32 221.856 247.32 227.584C247.32 230.859 247.521 240.102 247.32 239.459" stroke="#3DA418" stroke-width="2" stroke-linecap="round"/>
<path d="M52.6243 353.026C52.6243 366.248 56.8655 375.029 62.7603 382.855C67.5739 389.247 68.3025 408.277 64.569 416.471C62.9064 420.12 61.6365 424.34 60.4737 428.531C58.8682 434.317 56.0349 441.178 53.7164 446.125C52.4173 448.897 53.0282 456.705 54.3307 459.175C55.9851 462.313 55.6958 466.565 55.6958 470.478C55.6958 474.538 56.3101 478.149 56.3101 482.013" stroke="#3DA418" stroke-width="2" stroke-linecap="round"/>
<path d="M122.903 293.235C121.576 287.896 119.854 279.228 117.516 274.895C113.856 268.108 108.821 265.233 104.304 260.015C97.2097 251.82 86.8832 256.92 79.3718 260.501C76.5539 261.845 73.2298 263.991 70.3816 266.028C66.2565 268.978 61.1566 271.156 57.3877 275.198C54.0609 278.767 49.2827 280.765 45.5949 277.688C42.2055 274.86 38.8476 272.06 35.1125 270.279C33.4523 269.487 31.8685 268.651 30.1988 268.032C28.8296 267.524 27.7823 264.71 26.5955 263.72" stroke="#3DA418" stroke-width="2" stroke-linecap="round"/>
<path d="M177.13 332.872C177.13 343.475 178.546 345.608 183.259 352.903C186.756 358.317 194.089 364.874 199.059 364.874C207.367 364.874 215.871 365.941 224.31 365.941C231.336 365.941 237.187 361.008 244.245 361.674C247.92 362.021 252.883 370.924 252.883 376.609C252.883 379.542 248.386 386.307 247.42 389.41C244.965 397.292 241.895 408.249 241.587 417.145C241.42 421.975 240.922 426.958 240.922 432.079C240.922 436.628 242.615 440.779 242.916 444.88C243.119 447.653 244.064 456.518 245.057 458.511C246.653 461.713 245.258 468.783 247.051 472.379C248.653 475.594 249.518 480.358 251.222 483.935C252.207 486.003 255.343 492.316 255.541 495.017C255.602 495.844 258.039 500.374 258.569 501.951C259.37 504.342 260.155 506.631 260.857 508.885" stroke="#3DA418" stroke-width="2" stroke-linecap="round"/>
<path d="M277.776 350.339C273.385 361.151 269.371 373.794 267.09 386.467C266.037 392.32 264.906 404.95 260.769 407.308C257.04 409.434 254.502 414.86 252.004 419.132C250.691 421.376 246.975 428.05 246.975 430.956" stroke="#3DA418" stroke-width="2" stroke-linecap="round"/>
<path d="M204.027 367.134C204.027 378.42 206.134 383.069 210.966 390.336C212.777 393.059 215.357 394.775 217.057 397.21C218.92 399.88 220.883 405.333 223.109 406.908C227.222 409.819 231.049 418.017 234.172 422.99C235.57 425.216 238.339 426.312 239.414 428.452C240.133 429.883 245.038 433.57 242.19 427.9" stroke="#3DA418" stroke-width="2" stroke-linecap="round"/>
<path d="M246.975 426.253C245.806 430.179 244.008 433.838 243.071 437.674" stroke="#3DA418" stroke-width="2" stroke-linecap="round"/>
<path d="M167.798 385.945C167.798 390.243 167.061 397.224 168.338 401.235C169.968 406.354 172.809 410.375 174.598 415.432C177.325 423.141 181.767 429.186 184.489 436.668C187.148 443.975 189.177 454.114 187.928 462.94C187.38 466.817 186.603 471.145 187.967 474.893C188.63 476.715 189.621 478.524 190.362 480.354C192.333 485.216 189.253 477.982 188.662 476.592" stroke="#3DA418" stroke-width="2" stroke-linecap="round"/>
<path d="M113.224 465.218C112.374 471.321 111.927 475.817 113.812 481.098C115.676 486.32 118.507 490.266 119.858 496.154C121.631 503.878 121.761 516.644 119.27 524.032C118.328 526.829 114.402 542.28 113.224 534.03" stroke="#3DA418" stroke-linecap="round"/>
<path d="M117.697 490.746C121.817 495.771 126.821 500.025 130.462 505.887C131.714 507.902 133.312 509.169 134.493 511.295C135.411 512.946 135.355 515.326 136.359 516.942C137.586 518.917 138.246 522.775 139.047 525.354C139.658 527.324 144.035 536.497 142.555 532.924" stroke="#3DA418" stroke-linecap="round"/>
<path d="M115.528 498.808C114.449 503.244 112.706 509.432 110.655 512.929C109.019 515.717 105.883 517.915 104.736 521.236C103.56 524.643 101.89 525.97 100.977 530.017C100.532 531.987 99.3824 539.801 98.6094 540.46" stroke="#3DA418" stroke-linecap="round"/>
<path d="M131.899 511.573C131.797 520.718 128.52 539.096 133.315 544.491" stroke="#3DA418" stroke-linecap="round"/>
<path d="M114.66 504.854C116.101 501.228 116.814 496.121 119.432 496.121" stroke="#3DA418" stroke-linecap="round"/>
<path d="M107.286 525.68C107.286 534.575 109.455 542.113 109.455 551.209" stroke="#3DA418" stroke-linecap="round"/>
<path d="M117.697 526.352C121.057 532.974 123.771 536.078 123.771 544.491" stroke="#3DA418" stroke-linecap="round"/>
<path d="M60.4331 435.658C64.4272 445.916 67.808 454.571 67.808 468.281C67.808 474.615 66.6734 480.328 66.6734 486.432C66.6734 488.79 67.2367 500.758 66.1061 494.159" stroke="#3DA418" stroke-linecap="round"/>
<path d="M67.8083 465.218C70.6386 472.512 72.8874 479.628 74.0284 487.898C74.4502 490.955 75.2506 493.09 75.364 496.196C75.417 497.646 76.0509 503.024 76.0509 502.834" stroke="#3DA418" stroke-linecap="round"/>
<path d="M66.0729 465.218C62.8981 471.266 57.8303 480.701 57.8303 488.059" stroke="#3DA418" stroke-linecap="round"/>
<path d="M53.4922 498.808C55.1442 505.467 57.0631 510.26 59.9992 515.391C61.0729 517.268 65.6806 526.467 64.6118 525.626" stroke="#3DA418" stroke-linecap="round"/>
<path d="M189.277 430.956C189.277 446.78 186.674 462.076 186.674 478.073C186.674 484.686 186.655 490.421 187.501 496.606C187.974 500.068 188.57 503.407 188.988 507.064C189.181 508.75 189.277 513.924 189.277 513.571" stroke="#3DA418" stroke-linecap="round"/>
<path d="M187.108 488.059C192.44 493.497 198.576 496.273 201.424 506.198" stroke="#3DA418" stroke-linecap="round"/>
<path d="M187.108 496.121C185.14 500.022 182.955 502.447 182.77 507.318C182.69 509.42 181.389 514.443 180.601 516.275" stroke="#3DA418" stroke-linecap="round"/>
<path d="M192.314 498.808C192.314 501.245 192.314 510.245 192.314 511.572" stroke="#3DA418" stroke-linecap="round"/>
<path d="M191.88 496.121C196.028 496.121 199.632 494.777 203.661 494.777C206.241 494.777 208.822 494.777 211.402 494.777" stroke="#3DA418" stroke-linecap="round"/>
<path d="M207.932 496.121C208.655 499.231 208.727 503.338 210.535 504.854" stroke="#3DA418" stroke-linecap="round"/>
<path d="M186.674 465.218C189.569 466.385 196.066 471.284 197.6 476.095C198.398 478.597 202.454 481.341 204.027 481.341" stroke="#3DA418" stroke-linecap="round"/>
<path d="M189.711 420.207C192.344 424.201 195.721 429.135 198.92 431.995C201.863 434.626 203.748 441.338 206.836 444.022C211.721 448.269 213.564 458.407 215.74 465.218" stroke="#3DA418" stroke-linecap="round"/>
<path d="M204.027 444.392C204.027 450.51 205.425 462.674 210.535 465.89" stroke="#3DA418" stroke-linecap="round"/>
<path d="M210.534 449.766C215.486 450.004 220.282 453.483 224.85 456.484" stroke="#3DA418" stroke-linecap="round"/>
<path d="M204.027 442.376C208.952 442.376 213.876 442.376 218.801 442.376C222.438 442.376 224.96 445.735 228.321 445.735" stroke="#3DA418" stroke-linecap="round"/>
<path d="M257.821 449.766C261.121 453.645 264.744 454.548 268.182 457.326C271.474 459.986 275.215 462.574 278.687 464.653C284.279 468 288.934 470.971 293.582 476.981C296.007 480.118 299.451 484.06 301.065 488.496C301.529 489.769 302.504 492.225 302.504 489.542" stroke="#3DA418" stroke-linecap="round"/>
<path d="M256.085 451.205C257.213 451.205 258.173 450.464 258.688 453.125" stroke="#3DA418" stroke-linecap="round"/>
<path d="M281.247 468.577C281.247 474.131 281.247 479.686 281.247 485.24C281.247 489.864 283.242 492.906 284.142 496.719C284.992 500.319 286.26 503.335 287.147 506.84C287.593 508.603 288.622 513.455 288.622 510.79" stroke="#3DA418" stroke-linecap="round"/>
<path d="M280.379 488.059C285.996 488.059 289.9 489.826 294.695 494.777" stroke="#3DA418" stroke-linecap="round"/>
<path d="M281.249 496.121C280.569 502.876 279.996 508.428 280.703 514.596C281.006 517.237 281.852 525.257 282.982 526.352" stroke="#3DA418" stroke-linecap="round"/>
<path d="M256.085 459.172C248.337 477.14 250.827 504.405 250.827 525.68" stroke="#3DA418" stroke-linecap="round"/>
<path d="M255.218 468.577C251.224 475.801 250.393 481.597 247.542 489.653C245.827 494.499 245.435 500.298 243.443 504.936C241.999 508.295 239.554 512.793 238.733 516.275" stroke="#3DA418" stroke-linecap="round"/>
<path d="M250.446 496.121C255.048 502.557 258.973 507.084 262.159 516.275" stroke="#3DA418" stroke-linecap="round"/>
<path d="M253.049 479.998C256.081 483.033 258.952 486.907 262.123 489.453C264.169 491.096 265.361 494.742 267.365 496.121" stroke="#3DA418" stroke-linecap="round"/>
<path d="M258.688 488.059C258.816 491.764 259.524 495.692 261.725 498.808" stroke="#3DA418" stroke-linecap="round"/>
<path d="M257.821 508.885C261.569 509.582 265.539 511.572 269.1 511.572" stroke="#3DA418" stroke-linecap="round"/>
<path d="M243.505 502.839C240.84 503.543 232.659 503.076 232.659 508.885" stroke="#3DA418" stroke-linecap="round"/>
<path d="M250.88 473.28C243.693 473.28 242.008 488.73 236.13 494.777" stroke="#3DA418" stroke-linecap="round"/>
<path d="M176.908 250.912C173.502 258.18 169.073 276.903 174.396 284.696C175.779 286.721 178.199 290.349 178.629 292.87C179.257 296.548 179.658 299.953 182.77 299.953" stroke="#3DA418" stroke-linecap="round"/>
<path d="M108.587 371.165C110.326 368.973 111.717 366.825 113.321 364.6C114.34 363.187 114.043 361.532 114.758 359.981C115.22 358.982 115.483 353.838 115.565 352.566C116.057 344.894 118.496 337.687 119.282 330.198C119.953 323.795 118.108 316.498 120.579 310.99C123.367 304.778 123.732 301.136 121.21 294.579" stroke="#3DA418" stroke-linecap="round"/>
<path d="M122.469 322.123C132.862 328.486 149.345 334.068 155.172 350.523C157.543 357.218 160.235 363.409 162.175 370.508C162.824 372.886 166.1 380.702 166.719 376.819" stroke="#3DA418" stroke-linecap="round"/>
<path d="M146.763 340.262C145.973 347.256 144.764 353.509 143.1 359.977C141.708 365.388 141.773 371.861 140.141 377.501C138.857 381.938 138.521 385.083 138.521 390.158C138.521 392.283 141.295 404.744 142.325 399.407" stroke="#3DA418" stroke-linecap="round"/>
<path d="M145.269 339.59C147.212 330.354 150.855 322.354 150.66 312.625C150.566 307.919 146.793 304.643 145.996 300.667C145.55 298.441 143.426 295.108 142.574 292.919C141.549 290.288 142.189 285.46 142.189 282.487" stroke="#3DA418" stroke-linecap="round"/>
<path d="M151.318 192.465C150.508 201.683 149.366 210.37 149.366 219.779C149.366 227.138 149.809 231.418 150.939 238.188C152.157 245.489 153.27 250.334 153.27 258.282C153.27 260.68 151.318 272.037 151.318 267.186" stroke="#3DA418" stroke-linecap="round"/>
<path d="M127.241 195.152C128.71 204.767 132.095 208.082 138.5 209.755C142.776 210.872 150.059 209.913 152.403 216.65" stroke="#3DA418" stroke-linecap="round"/>
<path d="M174.094 207.931C168.74 207.931 165.595 207.356 161.499 213.372C159.825 215.832 159.019 218.497 157.651 221.051C156.266 223.636 156.42 228.231 155.862 231.268C155.305 234.303 153.308 236.674 152.403 239.491" stroke="#3DA418" stroke-linecap="round"/>
<path d="M174.094 209.932H177.13" stroke="#3DA418" stroke-linecap="round"/>
<path d="M162.814 213.291C164.105 216.97 165.716 223.171 168.265 225.061C169.806 226.204 171.993 227.761 173.111 229.936C174.201 232.059 176.068 233.799 176.282 236.832C176.478 239.624 177.564 241.059 177.564 236.832" stroke="#3DA418" stroke-linecap="round"/>
<path d="M213.298 138.72C212.426 145.312 211.836 151.81 211.836 158.484C211.836 163.772 213.566 166.974 215.086 171.349C216.939 176.682 219.685 181.369 221.708 186.61C222.65 189.049 224.625 200.254 222.805 192.399" stroke="#3DA418" stroke-linecap="round"/>
<path d="M197.086 185.075C198.318 174.601 200.486 174.111 207.172 172.151C210.171 171.272 213.65 169.623 216.608 169.623" stroke="#3DA418" stroke-linecap="round"/>
<path d="M235.262 112.52C231.637 122.954 229.969 133.034 227.252 143.933C224.468 155.103 219.525 161.04 213.571 166.264" stroke="#3DA418" stroke-linecap="round"/>
<path d="M224.85 144.767C230.653 144.767 237.497 147.858 240.607 155.369C242.347 159.57 244.437 162.952 246.903 166.454C248.485 168.703 251.313 173.005 251.313 167.9" stroke="#3DA418" stroke-linecap="round"/>
<path d="M266.497 124.612C264.021 127.611 262.664 129.472 260.66 132.808C258.795 135.913 256.478 138.984 254.12 141.003C251.244 143.466 247.516 144.928 245.118 148.614C244.288 149.889 243.386 150.495 243.114 152.536C243.047 153.033 243.078 156.627 243.078 155.17" stroke="#3DA418" stroke-linecap="round"/>
<path d="M258.254 144.767C262.228 144.9 265.287 146.995 268.174 150.665C269.87 152.819 271.016 156.008 272.649 157.984C273.63 159.171 275.036 163.443 275.036 165.146C275.036 167.102 278.113 173.362 276.379 168.464" stroke="#3DA418" stroke-linecap="round"/>
<path d="M270.835 160.89C272.393 158.982 275.077 154.255 277.18 154.055C278.49 153.93 279.519 152.582 280.156 150.638C281.808 145.598 282.114 140.34 282.114 134.689" stroke="#3DA418" stroke-linecap="round"/>
<path d="M282.115 150.141C288.142 152.035 291.604 159.552 294.487 167.909C295.215 170.019 297.396 181.267 298.166 173.831" stroke="#3DA418" stroke-linecap="round"/>
<path d="M268.232 202.542C273.297 202.542 275.443 203.993 279.203 208.209C280.527 209.694 281.286 211.966 281.641 214.274C281.867 215.734 281.092 219.603 281.838 220.678C284.616 224.682 293.205 224.538 295.129 230.086" stroke="#3DA418" stroke-linecap="round"/>
<path d="M282.115 219.337C286.208 215.355 287.669 210.13 291.659 206.573" stroke="#3DA418" stroke-linecap="round"/>
<path d="M280.379 185.075C280.379 190.199 279.933 195.516 278.548 199.532C277.788 201.733 276.909 203.442 276.909 206.572" stroke="#3DA418" stroke-linecap="round"/>
<path d="M243.071 206.572C245.872 200.502 248.922 194.777 251.747 189.211C252.729 187.278 252.487 182.286 253.596 180.888C254.952 179.178 256.94 179.817 258.689 179.817" stroke="#3DA418" stroke-linecap="round"/>
<path d="M252.181 191.121C252.181 196.329 253.697 210.909 258.811 210.909C261.087 210.909 267.164 211.941 268.232 215.306" stroke="#3DA418" stroke-linecap="round"/>
<path d="M256.828 213.291C256.828 218.13 256.243 224.929 259.484 227.874C262.097 230.247 263.456 232.353 261.992 236.874C261.112 239.596 257.725 243.232 257.492 246.103C257.267 248.882 252.956 249.861 252.181 252.255" stroke="#3DA418" stroke-linecap="round"/>
<path d="M263.46 241.255C266.065 243.616 270.05 246.311 273.055 247.381C276.634 248.655 276.909 242.52 276.909 239.491" stroke="#3DA418" stroke-linecap="round"/>
<path d="M262.593 230.086C266.407 230.086 268.605 229.795 270.835 225.383" stroke="#3DA418" stroke-linecap="round"/>
<path d="M270.835 252.255C270.007 258.074 268.232 264.16 268.232 270.38C268.232 272.055 269.043 276.527 269.534 277.112" stroke="#3DA418" stroke-linecap="round"/>
<path d="M270.835 252.255C276.908 254.563 276.376 259.132 279.79 265.539C282.598 270.809 284.891 274.767 289.056 277.112" stroke="#3DA418" stroke-linecap="round"/>
<path d="M223.549 285.846C220.427 285.846 217.304 285.846 214.182 285.846C210.66 285.846 208.068 288.191 204.776 288.78C198.92 289.827 195.985 297.859 191.499 302.01C188.986 304.335 187.548 309.135 184.88 311.254C183.095 312.673 179.741 311.753 177.564 311.753" stroke="#3DA418" stroke-linecap="round"/>
<path d="M199.689 293.235C210.633 293.235 221.611 299.953 232.226 299.953" stroke="#3DA418" stroke-linecap="round"/>
<path d="M216.784 297.267C216.784 302.317 215.816 310.785 218.413 314.772C221.115 318.919 225.28 322.48 229.128 323.219C234.536 324.256 242.894 327.049 247.409 321.274" stroke="#3DA418" stroke-linecap="round"/>
<path d="M219.211 319.436C213.443 319.436 207.417 322.143 203.208 328.505C199.993 333.364 199.685 333.544 194.91 333.544C192.916 333.544 188.815 327.53 187.871 325.034C186.772 322.127 184.283 320.681 183.204 317.42" stroke="#3DA418" stroke-linecap="round"/>
<path d="M192.748 336.903C192.748 342.199 192.781 347.905 191.977 352.438C191.345 356.001 191.013 357.502 191.013 361.76" stroke="#3DA418" stroke-linecap="round"/>
<path d="M207.932 322.123C211.275 328.801 217.597 335.146 217.597 344.581C217.597 349.629 217.597 354.678 217.597 359.726C217.597 361.656 219.67 370.175 216.906 365.994" stroke="#3DA418" stroke-linecap="round"/>
<path d="M236.303 330.185C235.653 336.943 235.262 342.828 235.262 349.715C235.262 352.066 236.84 358.705 237.865 359.745" stroke="#3DA418" stroke-linecap="round"/>
<path d="M249.578 359.744C249.78 346.135 258.046 343.584 263.46 336.903" stroke="#3DA418" stroke-linecap="round"/>
<path d="M258.254 344.293C258.254 351.313 259.445 351.405 261.552 356.734C262.909 360.166 263.988 363.665 265.641 366.538C267.285 369.398 274.094 381.369 268.938 371.125" stroke="#3DA418" stroke-linecap="round"/>
<path d="M255.219 382.586C255.219 389.777 255.097 391.048 257.813 395.654C259.025 397.709 261.916 398.743 263.46 400.053" stroke="#3DA418" stroke-linecap="round"/>
<path d="M252.181 377.883C253.669 380.201 256.472 384.189 258.254 385.273" stroke="#3DA418" stroke-linecap="round"/>
<path d="M230.49 370.493C227.318 376.94 228.445 386.363 228.445 394.174C228.445 399.958 223.931 400.724 220.946 400.724" stroke="#3DA418" stroke-linecap="round"/>
<path d="M227.887 393.335C232.502 393.16 236.845 390.865 240.902 388.072C242.946 386.665 245.639 387.1 247.409 385.273" stroke="#3DA418" stroke-linecap="round"/>
<path d="M174.527 370.493C175.186 375.052 175.074 376.682 178.497 378.004C180.435 378.753 182.325 380.005 184.173 381.116C187.345 383.021 189.915 383.048 193.423 383.048C196.686 383.048 199.538 384.013 202.711 384.013C205.651 384.013 207.949 385.945 210.968 385.945" stroke="#3DA418" stroke-linecap="round"/>
<path d="M193.615 385.273C191.385 389.178 188.949 392.679 186.661 395.884C185.461 397.565 183.66 398.365 182.46 400.466C179.658 405.373 176.274 413.489 171.925 413.489" stroke="#3DA418" stroke-linecap="round"/>
<path d="M188.844 397.365C192.746 397.458 196.047 399.125 199.82 399.903C202.394 400.434 205.423 400.052 208.053 400.052C211.291 400.052 215.544 399.354 218.343 400.724" stroke="#3DA418" stroke-linecap="round"/>
<path d="M197.954 400.725C196.718 405.612 195.431 409.991 194.355 414.789C193.628 418.033 193.13 422.266 192.288 425.19C190.813 430.313 190.251 436.954 186.24 439.018" stroke="#3DA418" stroke-linecap="round"/>
<path d="M150.667 314.191C152.882 313.28 163.507 303.79 165.379 310.257C166.325 313.525 170.229 319.436 171.925 319.436" stroke="#3DA418" stroke-linecap="round"/>
<path d="M158.042 268.379C161.665 277.378 168.397 276.852 174.094 279.8" stroke="#3DA418" stroke-linecap="round"/>
<path d="M193.725 241.506C192.152 244.761 181.944 261.865 188.31 266.345C192.102 269.014 195.195 275.141 197.086 279.799" stroke="#3DA418" stroke-linecap="round"/>
<path d="M171.925 268.379C176.778 268.379 181.258 266.363 185.807 266.363" stroke="#3DA418" stroke-linecap="round"/>
<path d="M220.946 236.804C218.962 240.054 214.079 251.859 211.22 253.198C208.399 254.519 205.428 255.614 202.292 255.614" stroke="#3DA418" stroke-linecap="round"/>
<path d="M213.571 250.912C217.998 252.42 223.125 255.035 227.128 258.218C229.631 260.208 232.5 259.536 235.262 259.536" stroke="#3DA418" stroke-linecap="round"/>
<path d="M221.814 259.645C221.182 266.299 219.572 271.29 218.343 277.112" stroke="#3DA418" stroke-linecap="round"/>
<path d="M235.262 273.753C238.781 272.428 239.45 271.522 241.668 266.766C242.632 264.7 243.692 261.827 244.94 260.451C246.326 258.923 251.692 257.501 252.181 255.614" stroke="#3DA418" stroke-linecap="round"/>
<path d="M244.502 259.645C244.502 266.49 245.21 274.634 244.466 281.449C244.016 285.575 241.772 286.754 240.68 289.935C239.76 292.618 237.146 293.585 235.585 294.885C233.986 296.217 232.22 299.953 230.49 299.953" stroke="#3DA418" stroke-linecap="round"/>
<path d="M241.769 287.861C247.458 287.861 251.449 286.371 256.23 281.815C259.142 279.04 263.207 275.769 266.497 275.769" stroke="#3DA418" stroke-linecap="round"/>
<path d="M253.804 282.487C253.804 290.512 254.482 301.179 252.512 308.532C251.613 311.887 248.879 323.439 247.409 324.811" stroke="#3DA418" stroke-linecap="round"/>
<path d="M255.218 301.699C260.166 301.699 265.917 302.999 270.478 299.891C272.241 298.69 277.776 297.202 277.776 294.579" stroke="#3DA418" stroke-linecap="round"/>
<path d="M268.232 304.656C268.232 312.812 270.097 319.38 271.489 327.261C272.186 331.21 275.174 335.945 275.174 339.59" stroke="#3DA418" stroke-linecap="round"/>
<path d="M270.835 312.046C273.197 312.906 281.056 316.999 282.496 321.182C283.419 323.861 287.289 328.719 289.056 330.185" stroke="#3DA418" stroke-linecap="round"/>
<path d="M140.026 209.932C138.61 216.431 137.051 232.639 141.177 236.988C143.451 239.385 145.553 242.988 147.832 245.587C148.627 246.494 153.27 252.64 153.27 252.236" stroke="#3DA418" stroke-linecap="round"/>
<path d="M141.991 244.866C137.513 251.979 136.864 257.72 136.864 269.051C136.864 273.528 136.259 285.614 138.402 287.861" stroke="#3DA418" stroke-linecap="round"/>
<path d="M111.787 207.916C111.787 217.043 110.556 225.867 114.854 232.765C117.079 236.336 121.298 240.442 124.166 242.488C127.188 244.643 130.23 247.483 133.03 250.051C134.524 251.42 137.973 256.588 139.388 255.453" stroke="#3DA418" stroke-linecap="round"/>
<path d="M125.783 236.804C125.783 231.157 124.525 222.307 127.376 217.683C128.982 215.079 133.749 212.848 133.749 209.932" stroke="#3DA418" stroke-linecap="round"/>
<path d="M122.903 236.804V244.865" stroke="#3DA418" stroke-linecap="round"/>
<path d="M122.903 244.866C121.207 247.393 116.842 252.08 116.241 256.094C115.631 260.164 116.21 266.145 116.21 270.394" stroke="#3DA418" stroke-linecap="round"/>
<path d="M216.608 202.542C220.074 212.098 223.065 218.897 224.85 230.086" stroke="#3DA418" stroke-linecap="round"/>
<path d="M223.549 216.65C225.644 212.571 227.885 211.088 231.213 210.891C233.498 210.757 235.58 209.932 237.865 209.932" stroke="#3DA418" stroke-linecap="round"/>
<path d="M199.689 198.511C204.752 198.511 209.311 192.465 214.439 192.465" stroke="#3DA418" stroke-linecap="round"/>
<path d="M169.322 155.516C169.322 163.064 167.771 168.737 167.771 176.1C167.771 179.134 167.111 189.854 168.288 191.121" stroke="#3DA418" stroke-linecap="round"/>
<path d="M177.564 179.7V202.542" stroke="#3DA418" stroke-linecap="round"/>
<path d="M149.366 176.341C150.857 162.856 157.322 163.504 163.604 161.764C167.312 160.737 168.929 160.075 171.925 162.978" stroke="#3DA418" stroke-linecap="round"/>
<path d="M167.587 127.63C163.53 127.63 157.144 125.544 154.078 131.853C152.479 135.143 149.917 136.567 148.876 140.696C147.04 147.984 143.925 154.069 141.991 160.89" stroke="#3DA418" stroke-linecap="round"/>
<path d="M132.915 150.141C131.097 155.768 128.478 166.929 130.691 173.316C132.39 178.222 136.756 180.548 138.521 185.075" stroke="#3DA418" stroke-linecap="round"/>
<path d="M129.844 169.623C127.436 166.776 120.945 163.9 120.945 157.679C120.945 155.536 118.519 138.995 120.945 146.884" stroke="#3DA418" stroke-linecap="round"/>
<path d="M122.469 166.264C119.358 171.169 116.115 181.612 118.55 187.896C119.894 191.363 121.649 195.491 121.649 199.183" stroke="#3DA418" stroke-linecap="round"/>
<path d="M122.469 150.141C121.843 146.479 119.866 142.272 119.866 138.72" stroke="#3DA418" stroke-linecap="round"/>
<path d="M200.557 148.126C194.465 148.126 192.966 144.528 190.326 137.172C189.075 133.685 187.364 129.681 187.191 125.61C187.023 121.635 184.519 116.417 183.644 112.223C182.762 107.995 183.479 102.155 183.479 97.7402" stroke="#3DA418" stroke-linecap="round"/>
<path d="M76.4844 324.811C79.2331 330.382 82.6603 337.778 87.3403 339.574C90.3218 340.719 92.8679 340.096 95.6761 342.491C97.6127 344.143 99.1931 346.975 101.259 348.385C102.68 349.354 107.899 351.567 108.587 349.456" stroke="#3DA418" stroke-linecap="round"/>
<path d="M92.1199 340.262C92.1199 348.791 91.8912 357.469 93.0722 365.581C93.7616 370.317 93.792 376.374 95.6018 380.058C99.0866 387.151 97.9524 400.351 94.7983 406.77" stroke="#3DA418" stroke-linecap="round"/>
<path d="M58.3893 336.903C58.3893 338.075 57.9432 342.525 58.7355 343.3C59.2108 343.764 59.976 344.111 60.2588 344.958C61.0569 347.348 62.9877 349.437 64.3439 350.762C66.6668 353.033 69.1331 354.919 71.4755 356.922C79.1772 363.511 80.8227 371.334 80.8227 385.945" stroke="#3DA418" stroke-linecap="round"/>
<path d="M73.4478 354.37C75.9831 351.203 76.6232 349.83 78.0571 345.397C78.8316 343.002 79.393 340.818 80.8227 339.59" stroke="#3DA418" stroke-linecap="round"/>
<path d="M97.7415 390.647C103.689 392.756 106.418 407.893 106.418 416.848" stroke="#3DA418" stroke-linecap="round"/>
<path d="M275.173 363.104C275.173 370.923 276.568 374.647 278.51 381.551C279.669 385.67 281.18 387.777 281.18 392.62C281.18 398.066 281.18 403.513 281.18 408.959C281.18 411.187 283.076 423.359 283.85 422.136" stroke="#3DA418" stroke-linecap="round"/>
<path d="M280.379 400.053C275.513 406.936 276.363 413.159 275.162 422.966C274.61 427.477 274.801 432.246 274.095 436.692C273.668 439.381 273.477 443.452 273.443 446.212C273.394 450.119 273.672 449.397 275.577 447.873" stroke="#3DA418" stroke-linecap="round"/>
<path d="M276.909 377.883C280.557 379.199 283.426 381.815 285.078 387.111C285.851 389.591 287.859 396.406 289.056 397.365" stroke="#3DA418" stroke-linecap="round"/>
<path d="M86.0287 198.511C85.5828 194.627 85.3744 190.577 84.7958 187.135C84.2899 184.125 83.4897 181.584 82.8585 178.633C81.9325 174.305 78.4388 167.108 76.518 164.025C74.0026 159.987 69.8612 161.511 67.3244 158.157C64.9496 155.018 63.0482 151.236 61.301 146.782" stroke="#3DA418" stroke-linecap="round"/>
<path d="M134.182 414.832C134.182 430.245 136.785 445.294 136.785 460.515" stroke="#3DA418" stroke-linecap="round"/>
<path d="M226.586 250.099C235.564 249.749 244.819 243.263 250.935 233.49C256.465 224.654 264.316 224.474 272.018 224.474C282.225 224.474 290.547 211.662 301.415 211.662C305.705 211.662 309.294 209.527 313.441 209.527C315.243 209.527 317.645 208.853 319.38 209.645C320.812 210.299 321.157 213.507 322.795 213.798C327.971 214.717 331.778 220.5 336.158 224C340.609 227.556 345.621 229.612 349.52 235.151C355.173 243.181 364.776 254.369 372.236 254.369C389.363 254.369 408.349 255.117 417.668 281.18C426.308 305.341 436.704 315.377 453.005 322.82C455.665 324.034 458.037 327.863 461.022 329.226C463.26 330.247 467.29 333.903 469.04 336.699C473.666 344.092 475.159 364.646 473.716 375.017C470.62 397.283 458.568 406.984 466.441 429.35C470.74 441.564 479.522 449.542 483.144 462.567C484.42 467.153 486.692 473.296 489.157 476.447C491.907 479.962 492.875 484.39 495.839 488.073C503.114 497.115 509.869 513.029 509.869 527.696" stroke="#3DA418" stroke-width="3" stroke-linecap="round"/>
<path d="M360.202 254.271C360.202 265.373 360.202 276.475 360.202 287.577C360.202 297.564 357.243 295.997 353.405 301.066C347.745 308.542 336.009 314.223 334.1 328.403C332.976 336.759 331.57 341.917 331.57 350.965C331.57 359.755 332.871 368.517 332.871 376.75C332.871 393.067 324.745 407.991 316.531 416.621C312.314 421.052 307.286 422.848 302.938 426.649C299.129 429.978 296.659 435.711 293.105 439.064C286.815 444.998 280.316 462.153 279.512 473.444C278.519 487.377 276.834 504.914 269.751 514.27C263.558 522.449 257.638 535.758 249.578 535.758" stroke="#3DA418" stroke-width="3" stroke-linecap="round"/>
<path d="M219.211 32.5747C219.211 45.3954 224.091 70.9677 231.001 79.3921C239.579 89.8481 252.459 95.2913 262.734 98.7401C270.215 101.251 277.933 100.979 285.223 103.637C287.537 104.481 295.026 107.167 296.795 109.489C299.321 112.805 305.595 113.339 308.876 116.416C312.183 119.516 315.354 123.386 318.774 126.687C324.688 132.395 319.561 151.352 323.724 159.889C327.449 167.532 328.915 177.526 332.894 185.687C334.936 189.876 333.464 196.324 336.46 200.257C339.04 203.645 342.403 203.441 344.684 207.184C347.377 211.604 344.48 220.675 346.94 223.905C349.65 227.462 349.526 235.163 351.526 236.804" stroke="#3DA418" stroke-width="3" stroke-linecap="round"/>
<path d="M182.77 498.136C182.77 459.454 189.135 424.555 202.144 391.892C207.914 377.406 213.043 360.15 222.405 350.681C229.828 343.174 238.15 340.505 246.66 337.817C252.385 336.009 258.722 333.52 264.259 330.433C267.949 328.375 272.219 320.542 275.942 320.189C277.836 320.01 284.887 314.931 286.295 313.281C290.843 307.953 297.621 301.843 302.859 298.274C310.1 293.339 315.569 284.381 322.529 277.787C325.426 275.042 328.178 270.459 330.811 267.067C333.217 263.967 337.694 265.916 340.128 262.78C341.456 261.068 349.944 260.336 351.811 260.159C354.567 259.898 356.693 253.012 358.467 251.583" stroke="#3DA418" stroke-width="3" stroke-linecap="round"/>
<path d="M138.087 405.427C141.807 410.035 142.682 417.446 146.221 421.934C147.859 424.012 148.498 431.084 148.498 434.315" stroke="#3DA418" stroke-linecap="round"/>
<path d="M137.653 409.458C137.653 417.633 137.653 424.431 137.653 432.794C137.653 438.452 137.653 444.109 137.653 449.766" stroke="#3DA418" stroke-linecap="round"/>
<path d="M137.653 435.658C139.61 440.819 140.617 445.837 141.991 451.11" stroke="#3DA418" stroke-linecap="round"/>
<path d="M145.896 420.207C148.637 423.051 152.067 425.463 154.198 429.113C155.434 431.228 155.11 434.244 157.175 435.658" stroke="#3DA418" stroke-linecap="round"/>
<path d="M252.615 634.372C261.593 634.022 270.848 627.536 276.964 617.763C282.494 608.927 290.345 608.747 298.047 608.747C308.254 608.747 316.576 595.935 327.444 595.935C331.734 595.935 335.324 593.8 339.471 593.8C341.272 593.8 343.675 593.126 345.409 593.918C346.841 594.572 347.186 597.78 348.824 598.07C354 598.99 357.807 604.773 362.187 608.273C366.638 611.829 371.65 613.885 375.549 619.424C381.202 627.454 390.805 638.642 398.265 638.642C415.392 638.642 434.378 639.39 443.697 665.453C452.337 689.614 462.733 699.65 479.034 707.093C481.694 708.307 484.066 712.136 487.051 713.499C489.289 714.52 493.319 718.176 495.069 720.972C499.695 728.365 501.188 748.919 499.745 759.29C496.649 781.556 484.597 791.257 492.47 813.623C496.769 825.837 505.551 833.815 509.173 846.84C510.449 851.426 512.721 857.569 515.186 860.72C517.936 864.235 518.904 868.663 521.868 872.346C529.143 881.388 535.898 897.302 535.898 911.969" stroke="#3DA418" stroke-width="3" stroke-linecap="round"/>
<path d="M386.231 638.544C386.231 649.646 386.231 660.747 386.231 671.849C386.231 681.836 383.272 680.27 379.434 685.339C373.774 692.815 362.038 698.496 360.129 712.676C359.005 721.032 357.599 726.19 357.599 735.238C357.599 744.027 358.9 752.79 358.9 761.023C358.9 777.34 350.774 792.264 342.56 800.894C338.343 805.325 333.315 807.121 328.967 810.921C325.158 814.25 322.688 819.983 319.134 823.336C312.844 829.271 306.345 846.425 305.541 857.716C304.548 871.649 302.863 889.187 295.78 898.543C289.587 906.722 283.667 920.03 275.607 920.03" stroke="#3DA418" stroke-width="3" stroke-linecap="round"/>
<path d="M245.24 416.848C245.24 429.668 250.12 455.241 257.03 463.665C265.608 474.121 278.488 479.564 288.763 483.013C296.244 485.524 303.962 485.252 311.252 487.91C313.566 488.754 321.055 491.44 322.824 493.762C325.35 497.078 331.624 497.612 334.905 500.689C338.212 503.789 341.383 507.659 344.804 510.96C350.717 516.668 345.59 535.625 349.753 544.162C353.478 551.805 354.944 561.799 358.923 569.96C360.965 574.149 359.493 580.597 362.489 584.53C365.069 587.918 368.432 587.713 370.713 591.457C373.406 595.877 370.509 604.948 372.969 608.178C375.679 611.735 375.555 619.436 377.555 621.077" stroke="#3DA418" stroke-width="3" stroke-linecap="round"/>
<path d="M208.799 882.409C208.799 843.727 215.164 808.828 228.173 776.165C233.943 761.679 239.072 744.423 248.434 734.954C255.857 727.447 264.179 724.778 272.689 722.09C278.414 720.282 284.751 717.793 290.288 714.706C293.978 712.648 298.248 704.815 301.971 704.462C303.865 704.283 310.916 699.204 312.324 697.554C316.872 692.226 323.65 686.116 328.888 682.547C336.129 677.612 341.598 668.654 348.558 662.06C351.455 659.315 354.208 654.732 356.84 651.34C359.246 648.24 363.723 650.189 366.157 647.053C367.485 645.341 375.973 644.609 377.84 644.432C380.596 644.171 382.722 637.285 384.496 635.856" stroke="#3DA418" stroke-width="3" stroke-linecap="round"/>
<path d="M264.795 477.982C264.795 494.391 263.929 509.858 271.01 521.598C277.156 531.789 291.176 543.033 299.916 544.845C306.871 546.286 315.621 555.858 320.439 564.735C326.764 576.388 328.533 585.373 328.533 600.923" stroke="#3DA418" stroke-width="3" stroke-linecap="round"/>
<path d="M281.247 611.21C271.83 601.703 263.586 594.309 254.182 586.066C249.199 581.698 231.901 581.131 227.869 587.808C223.278 595.409 217.31 617.932 210.201 617.932C205.726 617.932 192.433 629.718 190.579 635.856" stroke="#3DA418" stroke-width="3" stroke-linecap="round"/>
<path d="M236.563 758.797C236.563 772.018 240.805 780.799 246.699 788.626C251.513 795.017 252.242 814.047 248.508 822.242C246.846 825.891 245.576 830.111 244.413 834.301C242.807 840.087 239.974 846.948 237.656 851.896C236.356 854.668 236.967 862.475 238.27 864.946C239.924 868.084 239.635 872.336 239.635 876.248C239.635 880.309 240.249 883.92 240.249 887.784" stroke="#3DA418" stroke-width="2" stroke-linecap="round"/>
<path d="M306.842 699.006C305.515 693.667 303.793 684.999 301.455 680.666C297.795 673.879 292.76 671.004 288.243 665.786C281.149 657.591 270.822 662.691 263.311 666.272C260.493 667.616 257.169 669.762 254.321 671.799C250.195 674.749 245.096 676.926 241.327 680.969C238 684.538 233.222 686.536 229.534 683.459C226.144 680.631 222.787 677.831 219.051 676.05C217.391 675.258 215.807 674.422 214.138 673.803C212.769 673.295 211.721 670.481 210.534 669.491" stroke="#3DA418" stroke-width="2" stroke-linecap="round"/>
<path d="M220.946 682.883C213.368 682.883 208.162 683.317 201.928 690.196C198.918 693.519 197.101 697.596 194.873 701.466C194.262 702.529 190.579 708.263 190.579 707.701" stroke="#3DA418" stroke-linecap="round"/>
<path d="M220.078 682.883C221.706 682.883 222.692 682.883 224.417 682.883" stroke="#3DA418" stroke-linecap="round"/>
<path d="M224.417 681.539C224.417 662.662 221.011 642.574 207.861 642.574C204.795 642.574 201.973 647.965 199.038 649.387C195.555 651.075 192.804 656.625 189.277 658.619" stroke="#3DA418" stroke-linecap="round"/>
<path d="M200.99 650.636C200.99 655.504 200.549 659.69 200.21 663.876C200.016 666.267 197.535 667.172 197.129 669.36C196.618 672.12 191.308 679.524 189.277 679.524" stroke="#3DA418" stroke-linecap="round"/>
<path d="M297.732 434.315C289.814 431.546 284.468 431.313 278.644 420.879" stroke="#3DA418" stroke-linecap="round"/>
<path d="M287.32 432.299C284.416 428.136 281.681 425.734 281.681 420.661C281.681 417.35 282.809 414.746 282.809 411.473" stroke="#3DA418" stroke-linecap="round"/>
<path d="M278.644 434.315C283.194 434.15 288.172 432.299 292.526 432.299" stroke="#3DA418" stroke-linecap="round"/>
<path d="M220.078 438.511C224.592 438.511 232.815 435.656 236.831 440.491C239.62 443.848 245.574 447.751 248.71 447.751" stroke="#3DA418" stroke-linecap="round"/>
<path d="M222.682 409.458C222.682 414.107 224.362 428.657 228.755 429.516C231.386 430.031 232.683 437.339 234.829 439.017" stroke="#3DA418" stroke-linecap="round"/>
<path d="M220.946 461.859C221.566 457.331 223.397 448.771 226.553 446.124C228.225 444.72 230.523 441.397 231.358 439.017" stroke="#3DA418" stroke-linecap="round"/>
<path d="M215.306 417.52C216.732 419.381 226.128 435.845 226.586 434.199" stroke="#3DA418" stroke-linecap="round"/>
<path d="M227.02 426.925C227.963 421.509 231.326 415.321 231.326 410.104C231.326 407.238 231.738 400.054 229.603 398.709" stroke="#3DA418" stroke-linecap="round"/>
<path d="M231.358 414.161C233.334 410.202 235.011 409.824 236.943 407.186C238.729 404.746 239.432 401.683 240.902 398.709" stroke="#3DA418" stroke-linecap="round"/>
<path d="M248.71 434.315C248.71 425.795 251.523 421.779 255.218 416.003C257.438 412.532 257.821 411.259 257.821 406.395C257.821 403.589 259.122 401.631 259.122 398.709" stroke="#3DA418" stroke-linecap="round"/>
<path d="M256.085 411.473C251.97 407.763 248.71 404.706 248.71 398.709" stroke="#3DA418" stroke-linecap="round"/>
<path d="M259.122 406.771C260.924 404.675 263.206 402.458 265.254 401.522C267.223 400.622 266.913 398.272 266.913 395.35" stroke="#3DA418" stroke-linecap="round"/>
<path d="M256.085 395.35C256.085 398.579 256.136 405.124 257.387 406.771" stroke="#3DA418" stroke-linecap="round"/>
<path d="M257.387 416.848C261.178 414.653 271.703 413.364 271.703 405.427" stroke="#3DA418" stroke-linecap="round"/>
<path d="M220.078 604.954C213.894 604.954 208.56 603.538 203.81 596.7C198.674 589.305 192.492 583.6 187.542 576.066" stroke="#3DA418" stroke-linecap="round"/>
<path d="M196.642 585.471C196.642 579.278 195.693 571.637 197.312 565.708C199.026 559.433 196.989 558.955 194.917 553.896" stroke="#3DA418" stroke-linecap="round"/>
<path d="M194.917 590.174C191.276 590.765 188.472 593.533 184.939 593.533" stroke="#3DA418" stroke-linecap="round"/>
<path d="M197.954 575.394C198.039 568.191 199.416 569.215 200.743 564.443C201.463 561.855 201.402 558.721 201.858 555.912" stroke="#3DA418" stroke-linecap="round"/>
<path d="M198.821 596.892C197.67 599.387 194.135 609.615 192.484 610.237C191.021 610.787 184.939 618.928 184.939 614.269" stroke="#3DA418" stroke-linecap="round"/>
<path d="M204.905 598.235C203.906 589.684 204.905 581.543 204.905 572.961C204.905 568.917 204.842 562.584 206.196 559.271" stroke="#3DA418" stroke-linecap="round"/>
<path d="M204.461 582.784C209.067 581.052 210.534 579.596 210.534 575.394" stroke="#3DA418" stroke-linecap="round"/>
<path d="M189.277 562.63C191.076 566.025 193.606 573.526 196.218 575.394" stroke="#3DA418" stroke-linecap="round"/>
<path d="M273.438 453.125C273.438 464.227 273.438 475.329 273.438 486.431C273.438 496.418 270.479 494.852 266.642 499.92C260.982 507.396 249.245 513.077 247.337 527.257C246.212 535.613 244.806 540.771 244.806 549.819C244.806 558.609 246.108 567.371 246.108 575.604C246.108 591.921 237.981 606.845 229.767 615.475C225.55 619.906 220.522 621.703 216.174 625.503C212.366 628.832 209.895 634.565 206.341 637.918C200.051 643.852 193.552 661.007 192.748 672.298C191.755 686.231 190.07 703.769 182.987 713.124C176.795 721.304 170.874 734.612 162.814 734.612" stroke="#3DA418" stroke-width="3" stroke-linecap="round"/>
<path d="M158.476 615.702C158.476 628.523 163.356 654.095 170.267 662.52C178.844 672.976 191.724 678.419 201.999 681.868C209.48 684.379 217.199 684.106 224.488 686.764C226.803 687.608 234.292 690.295 236.06 692.616C238.586 695.932 244.86 696.466 248.142 699.544C251.448 702.644 254.62 706.513 258.04 709.815C263.953 715.523 258.827 734.479 262.989 743.017C266.715 750.659 268.181 760.653 272.159 768.814C274.201 773.003 272.729 779.451 275.725 783.385C278.306 786.772 281.668 786.568 283.95 790.312C286.643 794.731 283.745 803.802 286.206 807.032C288.915 810.589 288.791 818.29 290.791 819.931" stroke="#3DA418" stroke-width="3" stroke-linecap="round"/>
<path d="M266.497 760.141C266.497 767.689 264.946 773.362 264.946 780.725C264.946 783.759 264.286 794.479 265.463 795.746" stroke="#3DA418" stroke-linecap="round"/>
<path d="M264.762 732.255C260.705 732.255 254.32 730.169 251.253 736.478C249.654 739.769 247.092 741.192 246.052 745.321C244.215 752.609 241.1 758.695 239.167 765.515" stroke="#3DA418" stroke-linecap="round"/>
<path d="M297.732 752.751C291.64 752.751 290.142 749.153 287.502 741.797C286.25 738.31 284.539 734.306 284.367 730.235C284.198 726.26 281.694 721.042 280.819 716.848C279.937 712.62 280.654 706.78 280.654 702.365" stroke="#3DA418" stroke-linecap="round"/>
<path d="M260.424 730.581C263.172 736.152 266.6 743.548 271.28 745.345C274.261 746.489 276.807 745.866 279.615 748.262C281.552 749.914 283.132 752.745 285.198 754.155C286.619 755.125 291.839 757.338 292.526 755.227" stroke="#3DA418" stroke-linecap="round"/>
<path d="M276.059 746.033C276.059 754.562 275.83 763.24 277.011 771.352C277.701 776.088 277.731 782.145 279.541 785.829C283.026 792.922 281.891 806.122 278.737 812.541" stroke="#3DA418" stroke-linecap="round"/>
<path d="M242.329 742.674C242.329 743.846 241.882 748.296 242.675 749.07C243.15 749.535 243.915 749.882 244.198 750.729C244.996 753.118 246.927 755.207 248.283 756.533C250.606 758.804 253.072 760.689 255.415 762.693C263.116 769.281 264.762 777.105 264.762 791.715" stroke="#3DA418" stroke-linecap="round"/>
<path d="M257.387 760.141C259.922 756.973 260.562 755.601 261.996 751.167C262.771 748.772 263.332 746.589 264.762 745.361" stroke="#3DA418" stroke-linecap="round"/>
<path d="M269.968 604.282C269.522 600.398 269.313 596.348 268.735 592.906C268.229 589.896 267.429 587.355 266.797 584.404C265.871 580.076 262.378 572.879 260.457 569.796C257.942 565.757 253.8 567.282 251.263 563.928C248.889 560.789 246.987 557.007 245.24 552.552" stroke="#3DA418" stroke-linecap="round"/>
<path d="M287.32 529.52C283.306 529.52 279.125 530.562 275.603 527.78C272.974 525.704 268.838 525.131 265.963 524.881C259.85 524.35 255.611 526.016 252.615 515.603" stroke="#3DA418" stroke-linecap="round"/>
</svg>
