<?xml version="1.0" standalone="no"?>
<!DOCTYPE svg PUBLIC "-//W3C//DTD SVG 20010904//EN"
 "http://www.w3.org/TR/2001/REC-SVG-20010904/DTD/svg10.dtd">
<svg version="1.0" xmlns="http://www.w3.org/2000/svg"
 width="1977.000000pt" height="435.000000pt" viewBox="0 0 1977.000000 435.000000"
 preserveAspectRatio="xMidYMid meet">

<g transform="translate(0.000000,435.000000) scale(0.100000,-0.100000)"
fill="#000000" stroke="none">
<path d="M14107 3776 c-110 -78 -350 -106 -739 -88 -134 7 -358 21 -498 32
-520 41 -750 17 -990 -101 -91 -46 -117 -64 -195 -143 -142 -143 -192 -260
-182 -431 13 -250 182 -405 440 -406 264 0 437 161 425 396 -2 56 -9 80 -28
108 -31 46 -89 74 -119 58 -26 -14 -41 -42 -41 -75 0 -14 -13 -40 -28 -57 -38
-42 -113 -52 -153 -20 -63 49 -41 170 45 256 101 102 233 147 426 147 105 0
340 -27 340 -40 0 -2 -30 -37 -67 -76 -38 -40 -94 -108 -125 -151 -53 -75
-196 -320 -302 -517 l-46 -87 -120 6 c-89 4 -123 3 -135 -7 -8 -7 -28 -55 -45
-107 -41 -128 -27 -153 89 -153 l61 0 -27 -42 c-118 -188 -285 -329 -411 -344
-65 -9 -92 -27 -92 -64 0 -24 13 -42 62 -88 118 -110 240 -299 254 -394 15
-100 69 -118 137 -45 57 61 177 213 224 282 94 140 231 401 323 615 18 41 33
76 34 77 4 5 206 -28 260 -42 71 -19 123 -49 131 -75 7 -23 44 -35 79 -26 19
5 28 18 42 58 23 73 89 202 137 270 37 54 39 60 27 87 -7 17 -20 33 -30 36
-10 3 -72 -1 -139 -9 -67 -9 -183 -19 -258 -22 -115 -6 -135 -5 -131 7 85 208
224 523 249 565 41 68 90 126 129 154 l29 21 153 -30 c286 -56 434 -59 571
-12 159 55 280 181 337 352 26 77 25 105 -5 134 -32 32 -41 32 -98 -9z"/>
<path d="M1616 3724 c-459 -83 -960 -493 -1257 -1029 -252 -455 -341 -909
-249 -1272 82 -321 328 -549 682 -633 255 -60 511 -48 1138 54 381 61 472 71
670 71 247 -1 287 -15 373 -139 19 -27 46 -33 77 -16 46 25 74 230 46 339 -55
214 -230 330 -496 331 -180 0 -381 -47 -855 -200 -316 -101 -503 -142 -650
-141 -360 2 -537 254 -503 716 17 222 86 450 219 718 63 126 88 170 170 292
179 268 433 510 638 608 72 35 95 41 165 44 68 4 86 1 113 -16 44 -28 65 -74
71 -152 12 -175 -100 -413 -266 -560 -96 -85 -248 -135 -372 -122 -50 5 -60 3
-79 -16 -27 -27 -26 -44 3 -106 95 -204 458 -226 730 -44 129 86 234 215 321
394 75 156 90 219 90 380 l0 140 -37 78 c-49 103 -118 171 -228 226 -140 69
-327 89 -514 55z"/>
<path d="M3015 3694 c-57 -22 -170 -42 -314 -58 -81 -9 -128 -19 -138 -29 -26
-26 -19 -68 16 -96 50 -42 50 -40 -102 -426 -358 -905 -597 -1521 -597 -1540
0 -49 23 -55 206 -55 121 0 175 4 187 12 9 7 82 180 162 383 81 204 164 400
186 438 74 125 172 227 232 242 24 6 27 4 27 -17 0 -39 -31 -119 -123 -318
-128 -278 -164 -408 -147 -528 28 -203 216 -292 445 -212 159 55 347 241 500
495 63 104 203 376 251 488 27 62 42 86 52 82 7 -3 27 -5 44 -5 l30 0 -32 -52
c-49 -85 -148 -282 -180 -362 -151 -381 -61 -654 221 -674 114 -8 242 37 341
119 26 21 49 39 52 39 2 0 14 -17 26 -37 101 -175 397 -158 608 33 l60 54 22
-34 c33 -55 113 -121 177 -146 70 -28 212 -38 294 -21 147 31 279 136 345 276
31 64 37 89 42 163 7 135 -17 211 -138 429 -74 134 -97 196 -81 229 17 37 54
32 88 -13 35 -47 42 -53 71 -53 31 0 46 21 103 144 55 121 60 158 27 180 -43
28 -184 49 -292 44 -117 -6 -186 -28 -260 -85 -78 -60 -103 -100 -160 -254
-109 -295 -198 -460 -323 -601 -66 -74 -138 -128 -171 -128 -40 0 -54 -41 227
676 66 171 121 319 121 331 0 25 -30 53 -56 53 -10 0 -38 -7 -62 -15 -45 -16
-239 -49 -352 -61 -104 -11 -126 -49 -70 -119 39 -50 38 -56 -66 -324 -86
-223 -123 -290 -225 -406 -91 -104 -154 -147 -195 -131 -25 9 -13 113 26 228
50 150 230 494 341 652 53 76 61 112 29 141 -19 17 -23 17 -97 0 -95 -21 -423
-34 -423 -17 0 6 18 58 40 114 22 57 40 111 40 120 0 57 -38 74 -112 49 -61
-22 -284 -61 -343 -61 -84 0 -108 -51 -58 -123 26 -37 27 -46 27 -146 -1 -130
-34 -271 -103 -441 -108 -264 -303 -520 -398 -520 -24 0 -25 2 -18 37 9 51 56
164 114 282 65 128 127 279 146 351 44 170 -10 300 -155 368 -77 37 -197 37
-287 0 -35 -14 -63 -21 -63 -16 0 5 72 189 160 408 88 220 160 409 160 420 0
23 -33 60 -52 59 -7 0 -31 -7 -53 -15z m2415 -1585 c63 -137 49 -274 -33 -312
-66 -32 -121 -16 -152 43 -25 49 -18 77 50 185 36 57 70 115 76 129 7 14 15
26 19 26 4 0 22 -32 40 -71z"/>
<path d="M8874 3695 c-39 -17 -206 -35 -325 -35 -87 0 -89 0 -117 -32 -326
-368 -703 -753 -887 -904 l-40 -33 -111 44 c-119 47 -298 96 -429 116 -44 7
-154 12 -245 12 -135 0 -179 -4 -245 -22 -162 -43 -274 -121 -325 -226 -21
-41 -25 -65 -25 -135 0 -73 4 -92 27 -135 36 -66 54 -86 123 -134 92 -64 155
-50 155 35 0 73 81 139 215 175 65 17 111 22 245 23 162 1 300 -9 300 -22 0
-11 -274 -213 -386 -285 -271 -175 -487 -244 -606 -193 -30 13 -42 14 -63 4
-37 -17 -40 -47 -10 -129 37 -103 75 -287 82 -394 7 -116 17 -129 93 -122 218
19 571 275 1060 769 l236 237 69 -35 c86 -44 150 -92 192 -146 50 -62 55 -95
31 -191 -36 -143 -10 -301 65 -399 93 -120 273 -141 449 -52 28 14 49 20 53
14 4 -6 77 -10 184 -10 157 0 180 2 193 18 8 9 47 98 86 197 239 611 246 625
359 760 57 69 138 120 152 96 12 -20 -11 -95 -71 -226 -166 -363 -198 -455
-198 -576 0 -129 47 -217 143 -265 89 -46 226 -42 337 9 53 24 150 88 169 111
19 23 24 21 46 -20 11 -20 39 -51 63 -70 135 -103 354 -78 496 56 29 27 55 50
58 50 3 0 9 -11 12 -25 9 -35 62 -93 110 -118 61 -32 216 -30 306 4 119 45
228 132 350 279 60 73 169 236 202 304 20 42 20 46 5 69 -19 30 -118 87 -150
87 -30 0 -41 -14 -103 -119 -67 -114 -169 -239 -228 -278 -56 -38 -96 -43 -96
-13 0 11 108 296 241 633 132 336 290 736 349 887 59 151 109 282 110 290 5
34 -1 50 -25 66 -23 15 -28 15 -65 0 -52 -20 -239 -55 -359 -65 -73 -6 -97
-12 -108 -27 -22 -30 -15 -63 18 -94 29 -26 31 -32 26 -72 -4 -24 -43 -137
-87 -253 -44 -115 -97 -252 -116 -303 -33 -85 -38 -92 -53 -79 -46 41 -106 61
-181 61 -96 0 -173 -24 -264 -84 -219 -143 -416 -414 -511 -704 -25 -76 -44
-114 -79 -158 -74 -92 -159 -143 -181 -108 -11 17 45 163 135 350 49 102 98
213 109 246 72 216 25 360 -140 433 -115 51 -231 35 -400 -56 -4 -2 -9 8 -13
21 -3 14 -17 33 -30 41 -22 15 -28 15 -62 0 -50 -21 -211 -52 -309 -61 -49 -4
-87 -13 -97 -22 -27 -23 -22 -60 12 -99 17 -18 30 -42 30 -52 0 -56 -184 -512
-239 -591 -69 -100 -170 -197 -214 -205 -46 -9 -57 -1 -57 39 0 64 40 184 165
501 321 814 505 1287 505 1300 0 23 -37 55 -62 54 -13 0 -37 -7 -54 -14z
m-514 -532 c-8 -31 -318 -810 -329 -831 -5 -8 -31 11 -81 61 -41 40 -94 88
-117 107 l-43 35 71 80 c39 44 168 191 286 328 118 136 216 247 218 247 2 0 0
-12 -5 -27z m2308 -623 c6 -75 -27 -187 -90 -315 -132 -263 -247 -425 -303
-425 -24 0 -25 3 -25 53 0 194 200 586 364 715 39 30 50 24 54 -28z"/>
<path d="M17750 3688 c-59 -21 -287 -58 -358 -58 -32 0 -49 -6 -67 -25 -33
-33 -31 -49 11 -93 31 -32 35 -41 30 -72 -3 -19 -46 -138 -96 -265 -50 -126
-165 -419 -256 -650 -138 -353 -174 -434 -221 -505 -76 -113 -170 -207 -218
-216 -20 -3 -39 -4 -42 0 -11 11 46 164 113 304 136 282 166 370 166 479 -1
110 -52 192 -153 242 -124 62 -257 47 -419 -46 -3 -2 -11 10 -17 27 -16 43
-47 51 -108 29 -57 -20 -186 -45 -290 -55 -38 -3 -80 -12 -92 -20 -32 -20 -29
-59 8 -101 41 -47 38 -60 -72 -339 -95 -241 -139 -319 -248 -437 -57 -61 -96
-87 -131 -87 -19 0 -21 4 -14 32 3 18 87 238 185 489 99 252 179 468 179 482
0 13 -9 32 -20 42 -20 18 -31 18 -115 -3 -22 -6 -89 -14 -148 -17 -87 -6 -111
-11 -119 -25 -10 -16 -15 -15 -54 16 -264 200 -760 -197 -940 -753 -33 -104
-40 -116 -95 -172 -64 -66 -109 -94 -142 -89 -20 3 -22 8 -21 68 2 77 41 203
108 341 66 140 179 341 252 450 68 102 77 134 44 164 -19 17 -23 17 -97 1 -94
-21 -423 -35 -423 -18 0 6 18 57 40 113 22 57 40 111 40 120 0 58 -38 75 -112
50 -61 -22 -284 -61 -343 -61 -22 0 -51 -7 -63 -16 -29 -20 -29 -70 -1 -100
29 -30 40 -126 28 -233 -16 -139 -43 -231 -121 -414 -60 -139 -59 -148 26
-202 53 -34 89 -43 112 -27 20 14 86 133 163 295 42 89 83 176 91 192 14 28
18 30 58 25 l42 -5 -36 -60 c-176 -290 -271 -583 -244 -752 26 -162 127 -256
289 -270 112 -9 226 29 334 111 26 20 51 36 56 36 4 0 20 -18 35 -39 42 -60
129 -102 224 -108 124 -8 230 33 328 126 36 35 48 42 55 30 5 -8 9 -20 9 -27
0 -7 20 -32 44 -57 89 -89 260 -100 406 -25 l40 20 20 -20 c18 -18 33 -20 193
-20 153 0 176 2 189 18 8 9 47 98 86 197 39 99 105 268 148 375 78 198 128
288 220 396 51 60 130 107 143 85 13 -21 -12 -97 -81 -246 -149 -321 -188
-437 -188 -555 0 -100 23 -164 78 -219 94 -93 247 -107 408 -36 49 22 51 22
73 4 21 -17 42 -19 185 -19 127 0 166 3 183 15 13 9 43 70 79 162 32 82 61
152 65 157 4 5 13 -11 19 -35 25 -101 54 -189 87 -272 19 -48 34 -90 32 -91
-8 -7 -346 -106 -466 -135 -66 -17 -188 -43 -270 -58 -132 -24 -173 -27 -373
-28 -190 0 -236 3 -295 19 -94 25 -143 51 -158 84 -23 54 -67 67 -104 32 -57
-52 -56 -189 1 -305 111 -224 388 -325 736 -270 236 38 532 133 860 275 129
56 243 104 252 107 11 3 37 -12 70 -40 71 -61 186 -121 283 -148 105 -30 313
-32 420 -5 144 38 282 117 394 227 106 105 151 199 151 313 0 77 -24 131 -80
179 -131 112 -350 99 -827 -49 -78 -24 -147 -44 -152 -44 -30 0 -212 373 -211
433 0 7 33 25 73 41 225 90 393 245 449 414 21 63 24 175 6 234 -17 56 -79
123 -136 145 -96 37 -265 14 -355 -50 -16 -10 -30 -17 -33 -14 -3 3 64 178
150 388 85 211 162 403 171 426 21 52 14 86 -20 101 -30 14 -25 15 -95 -10z
m-2690 -1157 c0 -96 -21 -164 -97 -316 -140 -280 -237 -415 -296 -415 -25 0
-27 3 -27 43 1 165 147 487 301 661 45 51 97 88 111 80 4 -3 8 -27 8 -53z
m2600 6 c0 -87 -119 -235 -233 -288 -37 -17 -71 -29 -74 -26 -10 10 123 199
192 272 31 32 89 75 103 75 7 0 12 -13 12 -33z m821 -1057 c43 -23 13 -91 -63
-143 -69 -47 -127 -60 -236 -55 -72 3 -99 9 -157 37 -64 30 -68 34 -52 46 27
20 235 92 314 109 82 17 167 20 194 6z"/>
<path d="M4922 3386 c-61 -20 -103 -56 -137 -117 -88 -163 25 -359 207 -359
135 0 237 105 237 245 1 159 -159 279 -307 231z"/>
<path d="M18325 2285 c-5 -2 -22 -6 -37 -9 -41 -9 -122 -79 -156 -135 -60 -96
-76 -211 -40 -271 54 -88 215 -83 321 10 21 18 39 31 40 29 1 -2 9 -17 18 -34
21 -37 72 -65 122 -65 44 0 121 37 156 74 14 15 36 26 50 26 14 1 43 7 64 14
20 8 37 12 37 11 0 -1 -6 -18 -14 -36 -33 -81 -33 -79 26 -79 l53 0 29 78 c88
237 143 326 195 320 17 -2 27 -10 29 -23 1 -11 -29 -100 -67 -197 l-69 -178
53 0 53 0 52 133 c29 72 61 148 70 168 28 55 74 99 104 99 41 0 38 -32 -14
-150 -52 -117 -63 -156 -56 -195 12 -64 80 -84 155 -45 43 21 116 100 150 161
20 35 21 40 6 45 -9 4 -17 5 -19 3 -1 -2 -23 -34 -49 -70 -52 -75 -95 -100
-122 -72 -19 18 -16 28 42 155 54 119 62 158 39 193 -36 55 -109 55 -181 -1
l-43 -33 -11 30 c-23 66 -112 58 -180 -16 -22 -24 -41 -43 -41 -41 0 2 7 23
15 46 8 23 15 44 15 46 0 1 -15 -2 -32 -7 -18 -5 -45 -9 -60 -9 -25 0 -28 -3
-28 -35 0 -55 -56 -190 -91 -220 -30 -24 -75 -42 -85 -33 -2 3 5 26 17 53 81
184 -28 318 -191 235 -87 -44 -167 -146 -190 -240 -9 -38 -21 -57 -48 -79 -57
-44 -97 -61 -145 -61 -75 0 -99 49 -72 152 28 110 106 215 153 206 36 -7 20
-80 -30 -130 l-21 -21 44 6 c83 11 141 113 92 162 -27 28 -75 41 -108 30z
m460 -75 c4 -12 4 -40 0 -63 -9 -56 -55 -159 -69 -154 -52 17 -44 203 11 244
20 15 49 1 58 -27z m-135 -54 c-5 -15 -10 -53 -10 -85 0 -46 5 -66 26 -97 l26
-38 -32 -29 c-23 -21 -40 -27 -63 -25 -31 3 -32 5 -35 54 -3 60 25 155 65 215
29 44 39 46 23 5z"/>
<path d="M17890 1920 c-40 -40 -11 -110 45 -110 29 0 65 32 65 59 0 29 -39 71
-66 71 -13 0 -33 -9 -44 -20z"/>
<path d="M14990 1233 c-34 -13 -60 -47 -60 -79 0 -47 30 -76 101 -99 74 -24
92 -44 65 -74 -29 -32 -80 -28 -108 9 -37 51 -81 35 -58 -21 16 -38 57 -59
115 -59 56 0 97 20 113 55 30 66 0 117 -86 141 -31 9 -65 24 -75 34 -17 16
-17 18 -2 34 30 30 94 15 107 -25 2 -6 14 -8 31 -4 22 6 26 11 21 29 -12 41
-40 59 -96 62 -29 2 -60 1 -68 -3z"/>
<path d="M13638 1223 l-48 -4 0 -160 0 -159 115 0 115 0 0 25 c0 25 -1 25 -85
25 l-85 0 0 50 0 50 80 0 c79 0 80 0 80 25 0 25 -1 25 -80 25 l-80 0 0 35 c0
34 1 35 43 36 23 1 49 2 57 3 8 2 27 3 43 4 22 2 27 7 27 27 0 24 -2 25 -67
23 -38 -1 -89 -3 -115 -5z"/>
<path d="M14414 1164 l-37 -66 -18 23 c-10 13 -26 41 -35 62 -15 32 -22 37
-51 37 -18 0 -33 -3 -33 -7 0 -5 23 -44 50 -88 48 -77 50 -83 50 -152 l0 -73
30 0 30 0 0 68 c0 64 3 71 55 157 30 49 55 93 55 97 0 5 -13 8 -30 8 -25 0
-33 -8 -66 -66z"/>
<path d="M11540 1203 c-51 -27 -75 -75 -75 -153 0 -52 5 -72 23 -98 30 -42 70
-62 122 -62 94 0 150 62 150 164 0 62 -14 98 -54 135 -35 33 -117 40 -166 14z
m131 -62 c25 -26 29 -37 29 -86 0 -49 -4 -60 -29 -86 -55 -55 -131 -26 -147
56 -20 111 76 187 147 116z"/>
<path d="M12218 1213 c-16 -4 -18 -20 -18 -164 l0 -159 24 0 c29 0 36 16 36
86 0 42 3 54 16 54 29 0 51 -19 90 -80 35 -53 43 -60 72 -60 17 0 32 2 32 5 0
11 -53 91 -77 116 l-24 26 29 12 c48 20 67 85 37 128 -9 12 -32 27 -53 33 -37
10 -131 12 -164 3z m162 -73 c8 -14 8 -26 0 -40 -9 -16 -21 -20 -65 -20 l-55
0 0 40 0 40 55 0 c44 0 56 -4 65 -20z"/>
<path d="M12903 1213 c-10 -3 -13 -46 -13 -164 l0 -159 30 0 29 0 3 105 3 105
63 -105 c57 -95 66 -105 93 -105 l29 0 0 166 0 165 -27 -3 -28 -3 -5 -103 -5
-103 -59 98 c-71 116 -77 121 -113 106z"/>
<path d="M10233 1203 c-59 -4 -63 -5 -63 -28 0 -23 4 -25 45 -25 l45 0 0 -135
0 -135 30 0 30 0 0 134 c0 146 0 146 61 146 24 0 29 4 29 25 0 27 -2 28 -177
18z"/>
<path d="M10872 1203 c-59 -4 -63 -6 -60 -26 3 -19 10 -22 48 -23 l45 -1 3
-137 3 -137 27 3 27 3 3 138 3 137 44 0 c41 0 45 2 45 25 0 27 -6 28 -188 18z"/>
<path d="M8363 1193 c-16 -3 -23 -11 -23 -29 0 -22 4 -24 45 -24 l45 0 0 -135
0 -135 30 0 30 0 0 135 c0 121 2 135 18 136 9 1 24 3 32 4 8 1 21 3 28 4 6 0
12 12 12 26 l0 25 -97 -1 c-54 -1 -108 -4 -120 -6z"/>
<path d="M9583 1188 c-10 -13 -25 -49 -89 -225 l-34 -93 30 0 c26 0 32 6 46
40 l16 40 63 0 62 0 16 -41 c14 -35 19 -40 44 -37 19 2 27 8 25 18 -5 19 -101
270 -113 293 -11 20 -52 23 -66 5z m58 -133 c11 -28 19 -51 19 -52 0 -2 -21
-3 -46 -3 -35 0 -45 3 -41 14 3 8 11 33 18 55 7 23 17 40 22 38 5 -1 18 -25
28 -52z"/>
<path d="M6325 1182 c-11 -2 -22 -8 -25 -12 -4 -7 -5 -270 -1 -304 2 -16 167
-1 196 18 37 24 55 74 55 148 0 68 -21 117 -60 138 -21 11 -130 19 -165 12z
m148 -73 c12 -15 17 -39 17 -86 0 -55 -3 -67 -25 -89 -20 -20 -33 -25 -68 -22
l-42 3 -3 99 c-1 55 0 106 3 114 8 22 95 8 118 -19z"/>
<path d="M7000 1182 c-6 -2 -10 -65 -10 -163 l0 -160 118 3 c113 3 117 4 120
26 3 21 1 22 -87 22 l-91 0 0 50 0 50 80 0 c79 0 80 0 80 25 0 25 -1 25 -80
25 l-80 0 0 35 c0 30 3 35 25 36 14 1 30 3 35 4 6 1 33 3 60 4 47 1 50 3 50
27 l0 25 -105 -3 c-58 -2 -109 -4 -115 -6z"/>
<path d="M7683 1182 c-23 -3 -23 -5 -23 -163 l0 -159 30 0 29 0 3 105 3 105
64 -105 c57 -94 66 -105 92 -105 l29 0 0 165 c0 157 -1 165 -19 165 -11 0 -22
-4 -25 -9 -3 -4 -6 -51 -7 -105 -1 -53 -5 -96 -9 -96 -4 0 -34 45 -66 100 -33
55 -63 101 -69 103 -5 2 -20 1 -32 -1z"/>
<path d="M4459 1157 c-123 -82 -74 -307 67 -307 58 0 97 21 117 62 16 33 16
33 -10 44 -24 10 -29 9 -48 -20 -56 -83 -144 -19 -132 97 3 39 11 56 31 74 35
30 57 29 95 -3 23 -19 38 -24 56 -20 25 6 25 7 10 36 -31 61 -124 79 -186 37z"/>
<path d="M5180 1172 c-64 -30 -90 -78 -90 -164 0 -105 49 -158 146 -158 39 0
51 5 80 34 40 40 43 63 12 75 -17 7 -26 5 -33 -6 -37 -58 -80 -68 -120 -28
-21 20 -25 34 -25 80 0 112 64 162 127 99 19 -19 32 -24 49 -20 32 8 30 26 -6
61 -22 21 -41 29 -77 31 -26 2 -55 0 -63 -4z"/>
<path d="M5790 1013 l0 -163 30 0 30 0 0 163 0 163 -30 -1 -30 0 0 -162z"/>
<path d="M3809 1163 c-11 -3 -38 -60 -77 -164 l-60 -159 33 0 c29 0 33 4 44
40 l12 40 64 0 65 0 16 -40 c14 -34 21 -40 45 -40 16 0 29 3 29 7 0 3 -28 78
-62 165 -62 160 -64 163 -109 151z m56 -170 c6 -22 3 -23 -40 -23 -41 0 -46 2
-40 18 4 9 14 37 23 62 l16 45 17 -40 c9 -22 20 -50 24 -62z"/>
</g>
</svg>
