<?xml version="1.0" standalone="no"?>
<!DOCTYPE svg PUBLIC "-//W3C//DTD SVG 20010904//EN"
 "http://www.w3.org/TR/2001/REC-SVG-20010904/DTD/svg10.dtd">
<svg version="1.0" xmlns="http://www.w3.org/2000/svg"
 width="2484.000000pt" height="668.000000pt" viewBox="0 0 2484.000000 668.000000"
 preserveAspectRatio="xMidYMid meet">

<g transform="translate(0.000000,668.000000) scale(0.100000,-0.100000)"
fill="#000000" stroke="none">
<path d="M1743 5608 l-933 -542 -2 -1075 c-2 -707 0 -1078 7 -1084 6 -4 424
-253 929 -553 l919 -544 171 100 c94 55 518 304 941 554 l770 453 3 1081 2
1080 -931 534 c-513 293 -935 534 -938 535 -3 2 -426 -241 -938 -539z m855 43
l-3 -246 -75 -6 c-364 -30 -727 -220 -955 -499 -53 -65 -57 -73 -43 -87 21
-20 29 -14 56 40 48 96 330 333 352 297 6 -9 3 -19 -8 -27 -15 -12 -14 -13 6
-3 12 6 20 15 18 19 -7 10 70 73 121 100 28 14 43 17 45 9 3 -7 13 -5 31 7 15
10 38 19 50 21 12 2 33 6 46 10 20 6 22 4 17 -14 -4 -11 -2 -23 4 -27 7 -4 9
-18 5 -32 -4 -16 0 -31 10 -43 23 -25 9 -51 -24 -44 -21 5 -24 4 -13 -7 6 -7
12 -24 12 -37 0 -20 -4 -22 -22 -16 -20 6 -21 5 -9 -10 14 -17 9 -19 -26 -10
-11 3 -23 14 -26 24 -3 14 -11 17 -28 14 -23 -5 -23 -5 -5 10 11 9 22 16 25
16 16 1 41 52 36 73 -5 19 -11 23 -36 19 -36 -5 -37 10 -3 37 15 12 22 21 16
21 -15 0 -92 -81 -86 -91 2 -4 0 -10 -6 -14 -5 -3 -10 -11 -10 -16 0 -6 14 4
32 20 18 17 34 28 37 25 7 -7 -34 -58 -56 -69 -12 -6 -27 -16 -35 -23 -8 -6
-19 -8 -23 -4 -5 4 -5 2 -2 -5 4 -6 -15 -28 -45 -53 -71 -56 -107 -103 -100
-135 2 -14 10 -25 17 -25 7 0 18 -7 25 -15 7 -8 23 -15 37 -15 21 0 24 -4 20
-30 -6 -35 18 -63 34 -39 5 8 9 25 9 38 0 13 11 37 25 53 20 23 24 38 20 58
-3 16 -2 31 3 34 5 3 13 22 16 41 6 30 11 35 34 35 35 -1 62 -22 62 -48 0 -38
26 -37 47 3 10 17 13 14 35 -30 16 -33 31 -51 48 -56 14 -4 21 -8 15 -9 -5 -1
1 -6 14 -11 20 -8 23 -15 19 -49 -3 -36 -1 -40 18 -40 15 0 24 -8 28 -26 4
-15 5 -29 1 -32 -3 -3 -5 1 -5 8 0 9 -3 11 -10 4 -5 -5 -25 -8 -44 -6 l-34 4
15 35 c17 42 11 53 -17 28 -10 -9 -41 -21 -67 -26 -26 -5 -57 -19 -68 -30
l-20 -21 22 11 c35 18 49 13 48 -16 0 -21 5 -27 25 -28 14 -1 28 2 31 7 4 6 9
7 12 1 4 -5 -14 -24 -40 -42 -45 -32 -67 -35 -43 -6 19 23 3 18 -46 -15 -24
-17 -44 -39 -44 -49 0 -10 -12 -24 -26 -31 -35 -19 -50 -49 -32 -65 22 -21
595 -355 608 -355 13 0 241 127 293 162 15 11 27 29 27 41 1 30 37 107 61 130
10 10 19 31 19 47 0 45 37 109 60 103 10 -3 39 7 64 22 25 15 69 33 98 41 48
12 54 12 66 -3 6 -9 12 -25 12 -34 0 -13 11 -20 38 -24 20 -3 45 -10 54 -16
27 -14 36 -11 60 16 11 13 25 22 29 19 5 -3 30 7 56 22 66 38 73 44 66 60 -4
10 -17 12 -52 8 -45 -5 -50 -3 -79 30 -17 20 -36 36 -42 36 -14 0 -13 -27 3
-37 13 -8 20 -43 8 -43 -3 0 -27 20 -52 44 -43 41 -137 96 -162 96 -20 -1 55
-59 84 -65 28 -6 42 -38 32 -76 -4 -15 -9 -17 -26 -7 l-21 11 23 8 c12 5 20
13 17 17 -3 5 -40 26 -82 46 -68 34 -78 37 -86 22 -5 -9 -17 -16 -26 -16 -12
0 -22 -14 -30 -43 -7 -24 -12 -48 -11 -53 7 -38 -39 -66 -94 -57 -35 5 -42 13
-67 80 -15 41 -7 53 38 53 57 0 69 12 48 45 -10 15 -31 31 -48 37 l-30 11 24
21 c30 25 48 58 48 84 0 11 7 23 17 26 14 6 11 12 -16 40 -19 19 -28 36 -23
40 6 4 17 -3 25 -15 9 -12 18 -16 21 -10 4 5 -10 22 -29 37 -34 25 -36 26 -49
9 -12 -16 -15 -15 -52 16 -21 18 -40 34 -42 35 -1 1 -5 17 -7 35 -4 33 -13 43
-109 126 -11 9 -15 18 -10 20 22 7 219 -37 230 -52 11 -14 64 -39 70 -32 2 2
-13 16 -33 30 -128 91 207 -56 357 -156 74 -50 252 -219 322 -307 26 -32 39
-42 47 -34 17 16 -34 82 -163 209 -190 188 -382 297 -642 365 -61 16 -145 32
-188 36 l-76 7 0 267 0 268 783 -442 c430 -243 790 -447 800 -452 15 -9 -131
-95 -818 -483 -538 -304 -842 -471 -852 -467 -9 4 -376 217 -816 473 -773 452
-799 468 -777 482 13 9 361 212 774 453 689 400 752 435 759 416 4 -11 6 -131
5 -267z m-44 -322 c24 -16 31 -25 21 -27 -25 -6 -17 -22 11 -22 31 0 28 -20
-5 -36 -12 -6 -22 -14 -22 -18 3 -28 -2 -39 -19 -43 -22 -6 -22 -7 -22 -78 0
-57 -10 -68 -47 -52 -42 18 -62 39 -83 86 -17 40 -17 46 -3 67 20 31 20 51 0
34 -18 -15 -20 1 -3 18 9 9 9 12 -1 12 -22 0 -10 74 14 82 40 14 122 2 159
-23z m-268 -14 c-19 -15 -46 -20 -46 -10 0 6 40 24 55 24 6 0 1 -6 -9 -14z
m479 -99 c24 -17 13 -46 -18 -46 -14 0 -30 7 -37 15 -7 8 -19 15 -27 15 -8 0
-11 5 -8 10 4 6 11 8 16 5 5 -4 17 -1 26 4 23 14 26 13 48 -3z m-580 -56 c-3
-5 -11 -10 -16 -10 -6 0 -7 5 -4 10 3 6 11 10 16 10 6 0 7 -4 4 -10z m-111
-86 c9 -23 8 -24 -12 -24 -10 0 -23 -5 -30 -12 -19 -19 -15 12 5 34 20 22 29
23 37 2z m849 -10 c9 -4 17 -10 17 -14 0 -10 86 -70 99 -70 5 0 11 -9 14 -21
4 -13 0 -22 -11 -25 -9 -3 -25 -10 -34 -15 -23 -12 -31 -11 -23 1 3 6 -1 17
-10 26 -9 9 -14 23 -11 31 4 8 -4 17 -18 23 -13 5 -34 19 -45 31 -23 25 -28
54 -8 45 6 -3 20 -9 30 -12z m15 -113 c-5 -24 -35 -25 -48 -2 -8 16 -8 27 1
43 l12 22 19 -24 c10 -13 17 -30 16 -39z m1472 -961 l0 -930 -237 145 c-131
79 -237 150 -236 157 1 7 16 47 33 88 116 277 135 644 48 928 -41 137 -78 221
-94 215 -7 -3 -14 -11 -14 -19 0 -8 -6 -11 -15 -8 -10 4 -15 0 -15 -11 0 -9 4
-14 9 -11 14 9 38 -26 51 -73 13 -49 7 -102 -17 -137 -20 -31 -10 -62 13 -43
13 10 17 10 25 -2 15 -21 3 -144 -20 -216 -16 -49 -20 -86 -18 -172 2 -99 0
-112 -19 -133 -31 -33 -44 -62 -44 -96 0 -16 -9 -41 -20 -55 -11 -14 -20 -31
-20 -38 0 -17 -54 -100 -83 -127 -30 -28 -107 -56 -108 -39 -1 7 -2 26 -4 42
-7 83 -24 184 -34 203 -16 29 -14 88 4 122 22 42 3 121 -40 169 -27 30 -31 42
-27 74 5 43 -12 70 -39 62 -10 -3 -30 2 -44 11 -24 16 -28 16 -76 -10 -28 -14
-60 -26 -72 -26 -11 0 -34 -5 -51 -11 -26 -9 -39 -7 -83 12 -29 12 -53 26 -53
31 0 17 -27 5 -166 -77 l-144 -86 0 -49 c0 -45 2 -50 23 -50 13 0 27 -4 33 -9
5 -5 23 -11 39 -13 44 -5 46 -50 6 -116 -23 -36 -31 -61 -31 -96 0 -58 -23
-116 -50 -123 -20 -5 -20 -13 -20 -408 l0 -404 33 -26 32 -27 -32 6 c-30 5
-33 3 -33 -20 0 -26 1 -26 48 -20 382 54 739 269 958 578 l60 85 233 -139
c128 -77 229 -144 224 -148 -11 -10 -1539 -899 -1558 -906 -13 -5 -15 106 -15
949 l0 955 822 486 c452 267 826 486 830 486 4 0 8 -418 8 -930z m-2640 430
c426 -249 783 -460 793 -469 16 -16 17 -72 15 -964 l-3 -947 -783 456 -783
457 208 125 c115 68 215 127 223 129 10 2 38 -27 80 -83 164 -218 400 -390
663 -483 96 -34 264 -71 321 -71 l36 0 0 138 -1 137 -40 30 c-21 17 -46 45
-54 63 -8 17 -20 32 -27 32 -10 0 -10 2 0 8 10 7 9 16 -2 48 -8 21 -15 32 -16
24 -3 -29 -39 65 -39 104 -1 21 -8 59 -16 85 -8 25 -22 82 -31 126 -9 44 -21
85 -26 91 -4 6 -30 17 -56 24 -38 10 -61 27 -125 93 -62 64 -78 86 -74 104 2
13 0 23 -4 23 -16 0 -9 49 11 82 24 40 25 50 4 94 -17 36 -41 45 -50 19 -10
-26 -93 4 -120 44 -10 14 -26 21 -47 21 -18 0 -45 8 -62 18 -20 12 -42 17 -66
14 -36 -4 -128 28 -130 45 -3 34 -14 60 -45 109 -20 31 -40 69 -44 83 -8 24
-8 24 -9 4 -1 -13 8 -46 19 -75 24 -63 24 -64 5 -48 -8 7 -15 19 -15 26 0 8
-4 22 -10 32 -5 9 -14 43 -20 74 -6 32 -16 60 -21 63 -16 11 -10 114 11 176
11 33 18 64 15 70 -4 5 -24 18 -45 29 l-39 20 -15 -27 c-7 -16 -26 -62 -41
-103 -119 -329 -111 -702 21 -1020 20 -47 36 -94 37 -104 2 -15 -44 -46 -211
-143 -118 -67 -216 -123 -218 -123 -6 0 -5 672 3 1278 l6 542 21 -13 c12 -8
370 -218 796 -467z m1540 315 c0 -17 -28 19 -35 45 -6 23 -5 23 14 -5 12 -16
21 -34 21 -40z m656 -1006 c-27 -100 -53 -145 -42 -74 15 96 19 112 39 155 31
66 33 28 3 -81z m-736 -1004 c-14 -8 -29 -14 -35 -14 -5 0 1 6 15 14 14 8 30
14 35 14 6 0 -1 -6 -15 -14z m-65 -24 c-13 -13 -151 -58 -200 -66 l-40 -6 35
20 c19 11 57 23 84 26 28 4 66 13 85 21 45 16 47 16 36 5z"/>
<path d="M3026 5214 c21 -25 50 -52 66 -60 15 -8 28 -19 28 -24 0 -5 9 -18 21
-29 17 -16 19 -23 10 -40 -7 -12 -17 -21 -24 -21 -8 0 -7 -3 2 -9 8 -5 21 -7
30 -4 16 5 62 25 70 30 3 2 -6 15 -20 30 -19 21 -20 25 -6 20 11 -4 16 -3 12
3 -3 6 -12 10 -20 10 -21 0 -26 28 -7 40 14 9 10 10 -16 6 -41 -7 -81 12 -124
59 -47 53 -66 43 -22 -11z"/>
<path d="M2063 5208 c-21 -19 -51 -42 -66 -52 -36 -22 -29 -30 14 -17 19 5 28
10 21 10 -7 1 -10 6 -7 11 4 6 10 8 14 6 10 -7 77 62 69 70 -4 3 -23 -10 -45
-28z"/>
<path d="M1809 5053 c-13 -17 -13 -17 6 -3 11 8 22 16 24 17 2 2 0 3 -6 3 -6
0 -17 -8 -24 -17z"/>
<path d="M1736 4945 c-11 -8 -15 -15 -9 -15 6 0 16 7 23 15 16 19 11 19 -14 0z"/>
<path d="M3610 4941 c0 -13 142 -172 148 -166 8 7 -48 83 -73 99 -13 9 -30 28
-37 43 -13 27 -38 43 -38 24z"/>
<path d="M3530 4926 c0 -9 5 -16 10 -16 6 0 10 4 10 9 0 6 -4 13 -10 16 -5 3
-10 -1 -10 -9z"/>
<path d="M3493 4878 c15 -50 38 -68 67 -51 11 7 32 10 50 7 19 -4 30 -2 30 5
0 15 -77 64 -89 56 -6 -3 -21 1 -33 9 -34 24 -38 20 -25 -26z"/>
<path d="M1843 4663 c-34 -23 -28 -32 19 -27 51 6 55 9 38 29 -16 19 -29 18
-57 -2z"/>
<path d="M1910 4630 c-10 -6 -11 -10 -2 -10 6 0 12 -9 12 -20 0 -26 17 -26 25
0 4 11 11 18 16 15 5 -4 9 -2 9 3 0 9 -23 22 -38 22 -4 0 -14 -5 -22 -10z"/>
<path d="M1870 4609 c0 -5 5 -7 10 -4 6 3 10 8 10 11 0 2 -4 4 -10 4 -5 0 -10
-5 -10 -11z"/>
<path d="M2000 4600 c-13 -8 -13 -10 2 -10 9 0 20 5 23 10 8 13 -5 13 -25 0z"/>
<path d="M3780 4506 c0 -12 83 -145 100 -161 23 -21 25 -17 8 22 -26 59 -108
165 -108 139z"/>
<path d="M3545 4270 c3 -5 11 -10 16 -10 6 0 7 5 4 10 -3 6 -11 10 -16 10 -6
0 -7 -4 -4 -10z"/>
<path d="M3840 4045 c0 -14 5 -25 10 -25 6 0 10 11 10 25 0 14 -4 25 -10 25
-5 0 -10 -11 -10 -25z"/>
<path d="M1813 4292 c-13 -2 -23 -9 -23 -17 0 -9 -12 -13 -36 -12 -29 1 -42
-5 -61 -28 -21 -26 -24 -38 -21 -93 3 -45 9 -68 23 -82 27 -26 73 -17 81 16 6
24 31 44 54 44 10 0 7 -42 -6 -92 -4 -14 3 -16 43 -15 l48 2 3 -42 c4 -52 18
-61 91 -58 44 1 56 5 62 22 7 19 79 70 79 55 0 -11 132 -12 146 -1 13 10 45 9
54 -2 14 -16 115 -56 132 -51 10 2 17 6 16 7 -2 2 -70 42 -152 90 -120 70
-153 86 -175 80 -75 -18 -84 -18 -78 -1 4 10 7 20 7 22 0 2 9 4 20 4 37 0 21
15 -70 67 -76 44 -90 49 -90 33 0 -10 -4 -21 -9 -25 -12 -7 -41 34 -41 57 0
10 -3 18 -7 19 -51 4 -71 4 -90 1z m232 -142 l30 -12 -27 -10 c-22 -8 -31 -6
-45 7 -13 13 -29 16 -71 13 -49 -4 -53 -3 -36 9 22 17 101 13 149 -7z m-10
-60 c-3 -5 -10 -10 -16 -10 -5 0 -9 5 -9 10 0 6 7 10 16 10 8 0 12 -4 9 -10z"/>
<path d="M6795 5353 c-301 -24 -518 -79 -740 -188 -390 -192 -650 -524 -720
-920 -21 -118 -21 -351 0 -468 101 -568 562 -1003 1199 -1132 203 -41 326 -45
1337 -45 l959 0 0 240 0 239 -1032 4 c-1007 3 -1035 4 -1128 25 -244 54 -416
145 -561 298 -216 229 -283 540 -180 841 97 283 363 510 692 592 154 38 237
41 1237 41 l972 0 0 240 0 240 -997 -2 c-549 -1 -1016 -3 -1038 -5z"/>
<path d="M9393 4523 c3 -723 6 -850 20 -928 47 -257 130 -428 282 -581 89 -90
161 -142 280 -201 194 -98 437 -161 755 -195 184 -20 840 -16 1020 5 532 65
871 219 1077 491 57 76 134 236 163 338 46 170 50 240 50 1101 l0 807 -284 0
-285 0 -4 -827 c-4 -928 -1 -897 -77 -1051 -106 -213 -309 -327 -680 -379
-101 -14 -196 -17 -495 -17 -403 0 -517 9 -711 59 -269 70 -437 223 -511 465
-15 49 -17 143 -20 903 l-4 847 -290 0 -290 0 4 -837z"/>
<path d="M13860 3985 l0 -1375 1278 0 c1053 0 1298 3 1392 14 373 47 642 165
833 366 271 283 224 680 -109 932 -30 22 -54 43 -54 47 1 3 31 29 67 56 181
136 283 346 270 552 -11 163 -82 308 -210 430 -201 191 -475 303 -839 342 -63
7 -541 11 -1363 11 l-1265 0 0 -1375z m2751 872 c158 -39 276 -105 331 -185
43 -62 51 -157 20 -218 -45 -88 -177 -174 -328 -214 -133 -34 -304 -40 -1266
-40 l-928 0 0 340 0 341 1053 -4 c933 -3 1059 -5 1118 -20z m-176 -1137 c206
-16 376 -74 468 -160 57 -52 77 -94 77 -162 0 -126 -128 -228 -359 -285 -59
-15 -185 -17 -1123 -20 l-1058 -4 0 321 0 320 938 0 c515 0 991 -5 1057 -10z"/>
<path d="M18280 3980 l0 -1380 285 0 285 0 0 1380 0 1380 -285 0 -285 0 0
-1380z"/>
<path d="M21117 5349 c-623 -55 -1096 -344 -1313 -803 -126 -268 -149 -611
-60 -917 111 -381 445 -734 841 -888 192 -75 351 -111 575 -131 67 -6 522 -10
1083 -10 l967 0 0 240 0 239 -1032 4 c-1114 4 -1083 2 -1263 58 -327 100 -582
362 -641 658 -20 102 -15 303 11 396 83 303 356 553 698 640 171 43 224 45
1250 45 l977 0 0 240 0 240 -1002 -1 c-552 -1 -1043 -5 -1091 -10z"/>
<path d="M23280 3035 c0 -24 3 -25 55 -25 l55 0 0 -195 0 -195 25 0 25 0 0
195 0 194 58 3 c50 3 57 6 60 26 3 22 3 22 -137 22 l-141 0 0 -25z"/>
<path d="M23590 2840 l0 -220 30 0 30 0 1 188 1 187 47 -185 47 -185 29 0 29
0 47 185 47 185 1 -187 1 -188 30 0 30 0 0 220 0 220 -48 0 -48 0 -38 -157
c-21 -87 -42 -165 -46 -172 -9 -17 -11 -12 -61 192 l-33 137 -48 0 -48 0 0
-220z"/>
</g>
</svg>
