<svg id="svg" version="1.1" xmlns="http://www.w3.org/2000/svg" xmlns:xlink="http://www.w3.org/1999/xlink" width="400" height="100" viewBox="0, 0, 400,100"><g id="svgg"><path id="path0" d="M27.333 39.929 C 25.896 40.308,24.614 40.680,24.250 40.823 C 17.278 43.559,15.363 52.284,21.369 53.953 C 22.026 54.136,22.460 54.366,22.641 54.629 C 23.909 56.464,24.722 56.917,26.501 56.780 C 27.626 56.693,27.785 56.717,27.963 57.003 C 28.275 57.502,29.142 57.880,29.713 57.766 C 30.123 57.684,30.310 57.760,30.749 58.190 C 32.255 59.662,35.101 59.831,36.801 58.550 C 37.401 58.098,38.325 56.746,38.330 56.313 C 38.332 56.145,38.527 56.003,38.842 55.940 C 39.775 55.753,41.098 54.224,41.325 53.070 C 41.432 52.527,41.631 51.596,41.767 51.000 C 42.022 49.881,41.974 49.495,41.362 47.750 C 41.266 47.475,41.092 46.921,40.976 46.520 C 40.860 46.118,40.555 45.518,40.299 45.186 C 40.042 44.855,39.596 44.220,39.308 43.775 C 38.795 42.984,37.652 42.000,37.245 42.000 C 37.133 42.000,36.939 41.877,36.815 41.727 C 35.566 40.223,30.128 39.191,27.333 39.929 M35.102 41.437 C 35.907 41.819,36.568 42.634,36.318 42.935 C 36.045 43.264,35.924 43.231,35.302 42.661 C 34.744 42.149,34.489 42.045,33.583 41.962 C 33.209 41.928,33.070 41.822,33.030 41.542 C 32.963 41.067,34.192 41.005,35.102 41.437 M27.402 41.604 C 27.564 42.027,27.202 42.332,26.667 42.225 C 26.078 42.107,25.134 42.409,24.744 42.840 C 24.368 43.255,23.833 43.270,23.833 42.865 C 23.833 42.555,24.487 41.857,25.083 41.527 C 25.629 41.227,27.278 41.281,27.402 41.604 M31.050 41.838 C 31.031 42.065,30.966 42.500,30.904 42.805 C 30.842 43.111,30.870 43.523,30.965 43.722 C 31.240 44.295,31.484 45.515,31.378 45.790 C 31.324 45.931,31.403 46.109,31.558 46.196 C 32.306 46.615,31.882 47.102,30.792 47.074 C 29.662 47.045,29.309 46.610,30.125 46.252 C 30.578 46.053,30.622 45.387,30.250 44.333 C 29.928 43.421,29.932 42.449,30.260 41.815 C 30.578 41.199,31.101 41.215,31.050 41.838 M26.546 43.958 C 26.744 44.137,27.136 44.250,27.560 44.250 C 28.470 44.250,28.688 44.896,27.840 45.082 C 26.806 45.309,26.462 47.359,27.208 48.840 C 27.665 49.745,28.269 49.797,29.703 49.057 C 30.465 48.663,30.818 48.595,32.333 48.546 C 34.203 48.487,35.149 48.287,35.859 47.802 C 36.425 47.416,36.833 47.416,36.833 47.803 C 36.833 48.677,35.151 49.333,32.911 49.333 C 31.416 49.334,31.146 49.383,30.204 49.828 C 29.629 50.100,28.767 50.368,28.288 50.424 C 27.451 50.520,26.001 50.757,25.204 50.927 C 24.622 51.052,23.522 52.136,23.150 52.954 C 22.720 53.896,22.231 53.895,22.287 52.952 C 22.316 52.450,22.266 52.333,22.018 52.333 C 21.550 52.333,20.213 51.063,19.999 50.413 C 19.872 50.028,19.703 49.833,19.498 49.833 C 19.174 49.833,18.904 49.291,19.083 49.001 C 19.140 48.908,19.357 48.875,19.564 48.927 C 19.799 48.986,20.023 48.923,20.158 48.761 C 20.678 48.134,21.223 48.605,20.830 49.340 C 20.478 49.997,21.368 51.235,22.429 51.563 C 22.685 51.643,22.955 51.503,23.481 51.018 C 24.237 50.320,24.711 50.087,25.717 49.920 C 26.414 49.804,26.654 49.469,26.324 49.072 C 26.022 48.708,25.914 46.350,26.164 45.593 C 26.350 45.029,26.334 44.939,25.993 44.576 C 25.409 43.954,25.916 43.389,26.546 43.958 M34.342 43.927 C 34.469 44.080,34.703 44.152,34.906 44.101 C 35.097 44.053,35.365 44.084,35.501 44.169 C 35.833 44.375,35.523 44.896,35.025 44.970 C 34.698 45.019,34.667 45.124,34.667 46.178 C 34.667 47.211,34.632 47.333,34.343 47.333 C 33.872 47.333,33.784 47.088,33.784 45.773 C 33.784 45.004,33.706 44.515,33.559 44.368 C 33.435 44.244,33.333 44.036,33.333 43.905 C 33.333 43.582,34.069 43.598,34.342 43.927 M22.967 45.386 C 23.032 46.635,23.446 47.398,24.096 47.471 C 25.046 47.577,24.971 48.333,24.011 48.333 C 23.703 48.333,23.443 48.495,23.180 48.851 C 22.657 49.559,22.147 49.186,22.493 48.349 C 22.660 47.946,22.661 47.733,22.497 47.297 C 21.951 45.849,22.022 44.250,22.625 44.364 C 22.855 44.408,22.927 44.623,22.967 45.386 M38.771 45.462 C 39.917 46.394,40.130 49.681,39.030 49.465 C 38.790 49.418,38.759 49.225,38.809 48.131 C 38.868 46.857,38.867 46.851,38.268 46.234 C 37.362 45.302,37.782 44.658,38.771 45.462 M36.611 50.292 C 36.830 50.740,37.082 50.970,37.500 51.105 C 38.481 51.422,38.300 51.917,37.203 51.917 C 36.718 51.917,36.268 51.992,36.203 52.084 C 36.137 52.175,35.877 52.357,35.625 52.487 C 35.335 52.636,35.167 52.858,35.167 53.091 C 35.167 53.867,34.494 53.954,34.261 53.208 C 33.951 52.216,30.168 53.046,30.167 54.107 C 30.167 54.651,29.728 54.712,29.368 54.219 C 28.900 53.576,27.456 53.573,26.617 54.213 C 25.586 55.000,25.070 54.412,26.042 53.559 C 26.395 53.248,26.566 52.961,26.533 52.730 C 26.464 52.247,26.895 52.120,27.327 52.495 C 28.319 53.355,31.549 52.675,31.284 51.662 C 31.242 51.502,31.266 51.276,31.337 51.161 C 31.510 50.881,32.011 51.089,32.114 51.483 C 32.320 52.272,35.323 52.116,35.857 51.288 C 35.916 51.196,35.869 50.888,35.754 50.602 C 35.320 49.533,36.102 49.250,36.611 50.292 M40.167 52.592 C 40.167 53.520,39.036 54.833,38.237 54.833 C 37.632 54.833,37.718 54.265,38.385 53.853 C 38.901 53.534,39.172 53.161,39.396 52.458 C 39.549 51.981,40.167 52.087,40.167 52.592 M36.100 55.769 C 36.449 55.935,36.667 56.159,36.667 56.352 C 36.667 56.691,36.185 56.785,35.902 56.502 C 35.529 56.129,34.229 56.119,33.186 56.480 C 31.573 57.038,29.500 56.817,29.500 56.087 C 29.500 55.747,29.966 55.566,30.211 55.811 C 30.480 56.080,32.192 56.045,32.856 55.757 C 33.619 55.425,35.390 55.432,36.100 55.769 " stroke="none" fill="#f7f7f7" fill-rule="evenodd"></path><path id="path1" d="M27.019 29.767 C 26.871 29.868,26.295 29.997,25.738 30.053 C 25.182 30.109,24.507 30.270,24.238 30.410 C 23.970 30.550,23.619 30.665,23.458 30.666 C 23.298 30.666,23.167 30.742,23.167 30.833 C 23.167 30.925,22.998 31.000,22.792 31.001 C 22.585 31.002,22.202 31.114,21.939 31.251 C 21.677 31.388,21.362 31.500,21.239 31.500 C 21.117 31.500,20.943 31.631,20.853 31.792 C 20.764 31.952,20.629 32.077,20.553 32.068 C 20.288 32.039,19.833 32.207,19.833 32.335 C 19.833 32.406,19.659 32.508,19.445 32.561 C 19.232 32.615,18.853 32.848,18.603 33.079 C 18.354 33.311,18.097 33.502,18.033 33.504 C 17.926 33.507,16.465 34.758,16.083 35.173 C 15.992 35.273,15.673 35.593,15.375 35.884 C 15.077 36.176,14.833 36.491,14.833 36.584 C 14.833 36.677,14.680 36.849,14.494 36.965 C 14.307 37.082,14.199 37.250,14.253 37.339 C 14.308 37.427,14.236 37.500,14.093 37.500 C 13.950 37.500,13.833 37.604,13.833 37.732 C 13.833 37.860,13.716 38.009,13.573 38.064 C 13.429 38.119,13.355 38.234,13.408 38.319 C 13.460 38.404,13.404 38.573,13.284 38.695 C 13.163 38.817,13.015 39.048,12.954 39.208 C 12.893 39.369,12.766 39.500,12.672 39.500 C 12.577 39.500,12.500 39.594,12.499 39.708 C 12.499 39.823,12.313 40.283,12.086 40.730 C 11.859 41.177,11.714 41.608,11.763 41.688 C 11.813 41.768,11.791 41.833,11.716 41.833 C 11.553 41.833,11.000 43.059,11.000 43.420 C 11.000 43.558,10.935 43.801,10.856 43.961 C 10.553 44.568,10.377 45.318,10.448 45.694 C 10.489 45.908,10.410 46.303,10.271 46.570 C 9.947 47.194,9.961 52.301,10.287 52.695 C 10.399 52.830,10.490 53.160,10.488 53.428 C 10.484 54.155,10.683 55.157,10.852 55.261 C 10.933 55.312,11.000 55.536,11.000 55.760 C 11.000 55.984,11.075 56.167,11.167 56.167 C 11.258 56.167,11.333 56.350,11.333 56.575 C 11.333 56.800,11.440 57.043,11.570 57.117 C 11.700 57.190,11.835 57.475,11.869 57.750 C 11.944 58.342,12.454 59.363,12.766 59.546 C 12.887 59.617,12.944 59.786,12.892 59.921 C 12.835 60.070,12.896 60.167,13.047 60.167 C 13.185 60.167,13.344 60.354,13.402 60.583 C 13.459 60.813,13.580 61.000,13.670 61.000 C 13.760 61.000,13.833 61.097,13.833 61.216 C 13.833 61.335,14.055 61.616,14.326 61.841 C 14.597 62.066,14.822 62.344,14.826 62.460 C 14.839 62.828,17.749 65.546,18.510 65.900 C 18.688 65.983,18.833 66.114,18.833 66.192 C 18.833 66.270,18.937 66.333,19.063 66.333 C 19.189 66.333,19.382 66.441,19.491 66.573 C 19.600 66.704,19.910 66.860,20.178 66.919 C 20.447 66.978,20.667 67.096,20.667 67.180 C 20.667 67.264,20.779 67.333,20.917 67.333 C 21.054 67.333,21.167 67.416,21.167 67.518 C 21.167 67.619,21.279 67.659,21.417 67.606 C 21.554 67.554,21.667 67.583,21.667 67.672 C 21.667 67.761,21.746 67.833,21.842 67.833 C 21.939 67.833,22.368 67.993,22.796 68.187 C 23.223 68.382,23.744 68.542,23.953 68.542 C 24.162 68.542,24.333 68.607,24.333 68.688 C 24.333 68.768,24.526 68.833,24.761 68.833 C 24.996 68.833,25.352 68.921,25.553 69.028 C 26.802 69.697,33.072 69.722,34.367 69.063 C 34.614 68.936,35.008 68.833,35.242 68.833 C 35.475 68.833,35.667 68.754,35.667 68.656 C 35.667 68.559,35.798 68.496,35.958 68.516 C 36.370 68.568,37.167 68.326,37.167 68.149 C 37.167 68.067,37.317 68.000,37.501 68.000 C 37.684 68.000,38.114 67.850,38.456 67.667 C 38.799 67.483,39.173 67.333,39.289 67.333 C 39.405 67.333,39.500 67.266,39.500 67.185 C 39.500 67.103,39.702 66.985,39.950 66.923 C 40.197 66.861,40.570 66.626,40.779 66.401 C 40.987 66.176,41.197 65.992,41.244 65.991 C 41.398 65.990,41.915 65.777,42.000 65.679 C 42.046 65.626,42.571 65.171,43.166 64.667 C 44.471 63.562,44.962 63.052,45.253 62.500 C 45.373 62.271,45.628 61.973,45.819 61.838 C 46.010 61.703,46.167 61.514,46.167 61.417 C 46.167 61.320,46.317 61.112,46.500 60.955 C 46.683 60.798,46.833 60.557,46.833 60.418 C 46.833 60.280,46.900 60.167,46.981 60.167 C 47.062 60.167,47.172 59.998,47.226 59.792 C 47.280 59.585,47.312 59.417,47.298 59.417 C 47.284 59.417,47.472 59.201,47.716 58.938 C 47.960 58.675,48.209 58.187,48.270 57.855 C 48.331 57.522,48.427 57.212,48.482 57.167 C 48.734 56.959,49.163 55.775,49.265 55.009 C 49.326 54.546,49.432 54.167,49.500 54.167 C 49.929 54.167,49.967 46.051,49.543 45.000 C 49.488 44.862,49.349 44.375,49.235 43.917 C 48.950 42.769,48.607 41.833,48.472 41.833 C 48.411 41.833,48.311 41.609,48.250 41.335 C 48.190 41.061,48.072 40.794,47.987 40.742 C 47.903 40.690,47.833 40.505,47.833 40.332 C 47.833 40.158,47.726 39.957,47.595 39.883 C 47.464 39.810,47.349 39.675,47.339 39.583 C 47.309 39.317,46.113 37.500,45.966 37.500 C 45.893 37.500,45.833 37.425,45.833 37.334 C 45.833 37.243,45.515 36.841,45.125 36.440 C 44.735 36.039,44.306 35.551,44.172 35.355 C 44.037 35.160,43.868 35.000,43.796 35.000 C 43.725 35.000,43.375 34.700,43.019 34.333 C 42.663 33.967,42.305 33.667,42.223 33.667 C 42.141 33.667,41.946 33.517,41.789 33.333 C 41.632 33.150,41.398 33.000,41.269 33.000 C 41.141 33.000,40.992 32.887,40.940 32.750 C 40.887 32.612,40.729 32.500,40.589 32.500 C 40.448 32.500,40.332 32.444,40.331 32.375 C 40.329 32.306,39.936 32.071,39.456 31.853 C 38.976 31.634,38.384 31.353,38.141 31.228 C 37.898 31.102,37.549 31.000,37.367 31.000 C 37.185 31.000,36.993 30.889,36.941 30.753 C 36.888 30.615,36.735 30.548,36.596 30.602 C 36.459 30.654,36.101 30.575,35.801 30.425 C 35.501 30.276,34.804 30.107,34.253 30.051 C 33.701 29.995,33.203 29.878,33.146 29.790 C 32.994 29.559,27.356 29.537,27.019 29.767 M151.417 29.833 C 151.233 29.912,150.090 29.982,148.875 29.988 L 146.667 30.000 146.667 36.580 L 146.667 43.160 145.926 42.747 C 145.519 42.519,145.038 42.333,144.857 42.333 C 144.676 42.333,144.497 42.240,144.458 42.125 C 144.366 41.850,139.714 41.826,139.536 42.099 C 139.470 42.200,139.192 42.334,138.917 42.397 C 138.298 42.539,137.333 43.031,137.333 43.205 C 137.333 43.275,137.232 43.333,137.108 43.333 C 136.816 43.333,134.714 45.422,134.580 45.845 C 134.524 46.022,134.414 46.167,134.335 46.167 C 134.257 46.167,134.144 46.392,134.083 46.667 C 134.023 46.942,133.910 47.167,133.833 47.167 C 133.756 47.167,133.641 47.410,133.577 47.708 C 133.514 48.006,133.376 48.355,133.272 48.484 C 133.147 48.639,133.083 49.717,133.083 51.667 C 133.083 53.617,133.147 54.695,133.272 54.849 C 133.376 54.978,133.514 55.327,133.577 55.625 C 133.641 55.923,133.756 56.167,133.833 56.167 C 133.910 56.167,134.023 56.392,134.083 56.667 C 134.144 56.942,134.257 57.167,134.335 57.167 C 134.414 57.167,134.520 57.302,134.573 57.467 C 134.695 57.852,136.828 60.000,137.088 60.000 C 137.148 60.000,137.388 60.150,137.621 60.333 C 137.854 60.517,138.222 60.667,138.439 60.667 C 138.656 60.667,138.833 60.739,138.833 60.828 C 138.833 60.916,139.210 61.038,139.670 61.100 C 140.131 61.161,140.548 61.276,140.597 61.355 C 140.715 61.546,143.500 61.543,143.500 61.353 C 143.500 61.271,143.912 61.154,144.417 61.091 C 144.921 61.028,145.333 60.923,145.333 60.858 C 145.333 60.793,145.577 60.635,145.875 60.508 C 146.173 60.380,146.473 60.245,146.542 60.207 C 146.610 60.170,146.667 60.370,146.667 60.653 L 146.667 61.167 149.986 61.167 C 151.812 61.167,153.425 61.121,153.570 61.066 C 153.808 60.974,153.833 59.431,153.833 45.316 L 153.833 29.667 152.792 29.678 C 152.219 29.685,151.600 29.755,151.417 29.833 M160.875 32.107 C 160.669 32.153,160.500 32.260,160.500 32.345 C 160.500 32.430,160.398 32.500,160.274 32.500 C 159.714 32.500,158.500 34.032,158.500 34.739 C 158.500 35.029,158.408 35.359,158.296 35.471 C 158.135 35.632,158.135 35.744,158.296 36.002 C 158.408 36.182,158.500 36.500,158.500 36.709 C 158.500 37.905,160.106 39.500,161.311 39.500 C 161.598 39.500,161.833 39.575,161.833 39.667 C 161.833 39.871,162.446 39.889,162.569 39.689 C 162.618 39.610,162.959 39.505,163.326 39.455 C 164.200 39.338,165.157 38.568,165.647 37.588 C 166.084 36.711,166.127 34.181,165.706 34.041 C 165.593 34.003,165.500 33.881,165.500 33.769 C 165.500 33.517,164.469 32.500,164.214 32.500 C 164.112 32.500,164.001 32.419,163.968 32.320 C 163.904 32.129,161.519 31.965,160.875 32.107 M68.111 33.111 C 68.050 33.172,68.000 39.472,68.000 47.111 L 68.000 61.000 76.250 61.000 L 84.500 61.000 84.500 57.750 L 84.500 54.500 80.083 54.500 L 75.667 54.500 75.667 43.750 L 75.667 33.000 71.944 33.000 C 69.897 33.000,68.172 33.050,68.111 33.111 M230.167 47.000 L 230.167 61.000 238.417 61.000 L 246.667 61.000 246.667 57.750 L 246.667 54.500 242.250 54.500 L 237.833 54.500 237.833 43.750 L 237.833 33.000 234.000 33.000 L 230.167 33.000 230.167 47.000 M32.917 39.799 C 34.383 40.027,35.357 40.383,36.250 41.019 C 36.686 41.329,37.298 41.735,37.610 41.921 C 38.358 42.367,39.460 43.446,39.592 43.861 C 39.650 44.043,39.950 44.453,40.259 44.771 C 40.615 45.137,40.922 45.699,41.096 46.300 C 41.247 46.822,41.531 47.619,41.727 48.070 C 42.118 48.971,42.220 51.109,41.891 51.524 C 41.793 51.648,41.667 52.157,41.611 52.654 C 41.443 54.140,39.795 56.167,38.753 56.167 C 38.614 56.167,38.500 56.268,38.500 56.391 C 38.500 59.350,32.792 60.690,30.514 58.265 C 30.303 58.041,30.026 57.898,29.898 57.947 C 29.425 58.128,28.459 57.803,27.964 57.297 C 27.497 56.818,27.421 56.795,26.926 56.974 C 25.548 57.472,23.718 56.656,22.737 55.106 C 22.353 54.499,22.155 54.347,21.638 54.265 C 18.451 53.755,16.529 49.537,18.106 46.514 C 18.230 46.277,18.332 46.023,18.332 45.950 C 18.334 45.710,19.471 44.033,20.117 43.318 C 21.583 41.694,23.130 40.867,26.333 39.997 C 26.746 39.885,27.271 39.730,27.500 39.653 C 27.998 39.486,31.506 39.581,32.917 39.799 M33.207 41.542 C 33.245 41.656,33.570 41.773,33.930 41.802 C 34.346 41.834,34.807 42.031,35.199 42.343 C 35.999 42.981,36.487 43.024,36.049 42.419 C 35.474 41.623,32.981 40.853,33.207 41.542 M25.083 41.774 C 24.449 42.094,23.904 42.804,24.123 43.023 C 24.226 43.126,24.379 43.038,24.550 42.777 C 24.886 42.265,26.240 41.772,26.674 42.004 C 27.103 42.233,27.167 42.211,27.167 41.833 C 27.167 41.413,25.870 41.377,25.083 41.774 M30.479 41.776 C 30.202 42.109,30.204 44.104,30.481 44.381 C 30.869 44.769,30.708 46.155,30.250 46.364 C 29.615 46.653,29.749 46.877,30.483 46.753 C 30.882 46.685,31.175 46.712,31.243 46.822 C 31.303 46.920,31.424 47.000,31.510 47.000 C 31.748 47.000,31.697 46.534,31.442 46.383 C 31.312 46.307,31.171 45.804,31.110 45.201 C 31.051 44.624,30.928 44.010,30.835 43.837 C 30.618 43.431,30.617 42.384,30.833 42.250 C 31.039 42.123,31.056 41.500,30.854 41.500 C 30.773 41.500,30.605 41.624,30.479 41.776 M93.042 41.944 C 92.652 41.985,92.333 42.081,92.333 42.157 C 92.333 42.233,91.996 42.346,91.583 42.408 C 91.171 42.470,90.833 42.585,90.833 42.664 C 90.833 42.742,90.608 42.856,90.333 42.917 C 90.058 42.977,89.833 43.096,89.833 43.180 C 89.833 43.264,89.754 43.333,89.657 43.333 C 89.246 43.333,87.333 45.054,87.333 45.423 C 87.333 45.537,87.221 45.674,87.083 45.727 C 86.946 45.780,86.833 45.931,86.833 46.064 C 86.833 46.197,86.768 46.331,86.688 46.361 C 85.487 46.820,84.780 54.180,85.836 55.236 C 85.926 55.326,86.000 55.535,86.000 55.700 C 86.000 55.865,86.069 56.000,86.153 56.000 C 86.238 56.000,86.356 56.225,86.417 56.500 C 86.477 56.775,86.596 57.000,86.680 57.000 C 86.764 57.000,86.833 57.087,86.833 57.194 C 86.833 57.410,87.003 57.619,87.942 58.558 C 88.881 59.497,89.090 59.667,89.306 59.667 C 89.413 59.667,89.500 59.728,89.500 59.802 C 89.500 59.955,91.053 60.667,91.385 60.667 C 91.503 60.667,91.683 60.750,91.785 60.851 C 91.886 60.953,92.464 61.076,93.068 61.124 C 93.672 61.173,94.167 61.277,94.167 61.356 C 94.167 61.435,94.992 61.500,96.000 61.500 C 97.008 61.500,97.833 61.436,97.833 61.357 C 97.833 61.279,98.304 61.171,98.879 61.117 C 99.454 61.064,100.147 60.903,100.420 60.761 C 100.693 60.619,101.039 60.502,101.188 60.501 C 101.337 60.500,101.553 60.387,101.667 60.250 C 101.781 60.112,101.977 60.000,102.104 60.000 C 102.230 60.000,102.333 59.925,102.333 59.833 C 102.333 59.742,102.437 59.667,102.563 59.667 C 103.316 59.667,105.342 56.928,105.598 55.565 C 105.656 55.252,105.771 54.955,105.852 54.905 C 106.373 54.583,105.669 54.500,102.411 54.500 C 99.183 54.500,98.812 54.529,98.714 54.784 C 98.553 55.202,98.122 55.667,97.894 55.667 C 97.784 55.667,97.663 55.760,97.625 55.875 C 97.534 56.148,94.543 56.169,94.369 55.897 C 94.304 55.795,94.085 55.660,93.884 55.597 C 93.682 55.534,93.466 55.318,93.403 55.116 C 93.340 54.915,93.218 54.705,93.132 54.649 C 93.045 54.593,92.932 54.218,92.879 53.816 C 92.826 53.413,92.701 53.028,92.600 52.961 C 92.499 52.894,95.521 52.837,99.316 52.836 L 106.216 52.833 106.099 50.875 C 106.035 49.798,105.912 48.892,105.825 48.861 C 105.738 48.831,105.667 48.602,105.667 48.353 C 105.667 47.693,104.581 45.680,103.841 44.969 C 103.489 44.631,103.175 44.289,103.142 44.209 C 102.962 43.765,100.326 42.333,99.690 42.333 C 99.509 42.333,99.333 42.248,99.298 42.144 C 99.233 41.948,94.453 41.795,93.042 41.944 M115.417 41.976 C 114.115 42.291,113.333 42.551,113.333 42.668 C 113.333 42.739,113.146 42.844,112.917 42.902 C 112.688 42.959,112.500 43.080,112.500 43.170 C 112.500 43.260,112.385 43.333,112.245 43.333 C 112.104 43.333,111.946 43.446,111.894 43.583 C 111.841 43.721,111.725 43.833,111.636 43.833 C 111.416 43.833,110.500 44.764,110.500 44.987 C 110.500 45.086,110.436 45.167,110.357 45.167 C 110.196 45.167,109.000 46.911,109.000 47.145 C 109.000 47.228,108.888 47.510,108.751 47.773 C 108.614 48.035,108.502 48.450,108.501 48.694 C 108.500 48.939,108.417 49.167,108.315 49.201 C 108.190 49.242,108.129 50.049,108.129 51.667 C 108.129 53.284,108.190 54.091,108.315 54.133 C 108.417 54.167,108.500 54.392,108.500 54.634 C 108.500 55.164,109.562 57.339,110.109 57.929 C 110.324 58.161,110.500 58.390,110.500 58.438 C 110.500 58.584,111.464 59.500,111.617 59.500 C 111.695 59.500,111.888 59.650,112.045 59.833 C 112.202 60.017,112.443 60.167,112.582 60.167 C 112.720 60.167,112.833 60.234,112.833 60.315 C 112.833 60.397,113.039 60.515,113.290 60.578 C 113.541 60.642,113.792 60.766,113.847 60.856 C 113.903 60.945,114.372 61.062,114.891 61.116 C 115.409 61.170,115.833 61.278,115.833 61.357 C 115.833 61.545,118.620 61.543,118.736 61.355 C 118.786 61.276,119.203 61.161,119.663 61.100 C 120.123 61.038,120.500 60.924,120.500 60.846 C 120.500 60.767,120.688 60.656,120.917 60.598 C 121.146 60.541,121.333 60.420,121.333 60.330 C 121.333 60.240,121.440 60.167,121.570 60.167 C 121.700 60.167,122.145 59.829,122.557 59.417 C 122.970 59.004,123.352 58.667,123.406 58.667 C 123.461 58.667,123.829 59.004,124.224 59.417 C 124.619 59.829,125.031 60.167,125.138 60.167 C 125.245 60.167,125.333 60.240,125.333 60.330 C 125.333 60.420,125.540 60.544,125.792 60.606 C 126.044 60.668,126.293 60.783,126.346 60.863 C 126.399 60.943,126.830 61.055,127.304 61.111 C 127.779 61.167,128.167 61.278,128.167 61.357 C 128.167 61.570,130.113 61.530,130.544 61.307 C 130.749 61.202,131.029 61.062,131.167 60.998 C 131.374 60.900,131.417 60.405,131.417 58.067 L 131.417 55.254 130.609 55.139 C 129.088 54.921,129.167 55.287,129.167 48.391 L 129.167 42.333 125.500 42.333 L 121.833 42.333 121.833 42.752 L 121.833 43.170 120.958 42.738 C 120.477 42.500,119.938 42.227,119.759 42.131 C 119.370 41.922,116.122 41.806,115.417 41.976 M181.500 41.946 C 181.271 41.993,181.008 42.089,180.917 42.160 C 180.825 42.230,180.537 42.338,180.277 42.400 C 179.753 42.526,179.633 42.611,178.572 43.615 L 177.833 44.314 177.833 43.324 L 177.833 42.333 174.250 42.333 L 170.667 42.333 170.667 51.667 L 170.667 61.000 174.250 61.000 L 177.833 61.000 177.833 55.333 C 177.833 51.940,177.896 49.667,177.989 49.667 C 178.074 49.667,178.187 49.535,178.239 49.375 C 178.528 48.492,180.453 48.035,181.458 48.612 C 182.563 49.246,182.578 49.332,182.635 55.462 L 182.687 61.006 186.302 60.962 L 189.917 60.917 189.917 54.119 C 189.917 49.376,189.861 47.285,189.734 47.202 C 189.634 47.137,189.505 46.789,189.448 46.430 C 189.392 46.071,189.286 45.733,189.214 45.680 C 189.142 45.627,188.944 45.309,188.774 44.973 C 188.443 44.322,186.989 42.833,186.684 42.833 C 186.583 42.833,186.500 42.762,186.500 42.674 C 186.500 42.587,186.219 42.463,185.875 42.400 C 185.531 42.337,185.199 42.206,185.136 42.109 C 185.016 41.924,182.219 41.798,181.500 41.946 M199.958 41.944 C 199.615 41.986,199.333 42.091,199.333 42.177 C 199.333 42.263,199.216 42.333,199.073 42.333 C 198.691 42.333,197.167 43.016,197.167 43.187 C 197.167 43.268,197.073 43.333,196.958 43.334 C 196.844 43.334,196.546 43.540,196.296 43.792 C 194.935 45.166,194.667 45.464,194.667 45.605 C 194.667 45.690,194.519 45.866,194.339 45.996 C 194.160 46.125,193.966 46.442,193.910 46.699 C 193.853 46.956,193.744 47.167,193.667 47.167 C 193.590 47.167,193.474 47.410,193.411 47.708 C 193.347 48.006,193.210 48.355,193.106 48.484 C 192.981 48.639,192.917 49.717,192.917 51.667 C 192.917 53.617,192.981 54.695,193.106 54.849 C 193.210 54.978,193.347 55.327,193.411 55.625 C 193.474 55.923,193.587 56.167,193.662 56.167 C 193.736 56.167,193.845 56.355,193.902 56.586 C 193.960 56.816,194.137 57.167,194.295 57.364 C 194.799 57.992,196.794 60.000,196.915 60.000 C 196.979 60.000,197.221 60.150,197.455 60.333 C 197.688 60.517,198.056 60.667,198.272 60.667 C 198.489 60.667,198.667 60.739,198.667 60.828 C 198.667 60.916,199.043 61.038,199.504 61.100 C 199.964 61.161,200.381 61.276,200.430 61.355 C 200.547 61.545,203.333 61.544,203.333 61.355 C 203.333 61.275,203.716 61.172,204.184 61.127 C 204.653 61.082,205.085 60.966,205.144 60.869 C 205.204 60.772,205.459 60.642,205.710 60.578 C 205.961 60.515,206.167 60.397,206.167 60.315 C 206.167 60.234,206.274 60.167,206.405 60.167 C 206.536 60.167,206.769 60.040,206.924 59.885 C 207.188 59.621,207.202 59.719,207.142 61.476 C 207.106 62.506,207.004 63.402,206.914 63.466 C 206.824 63.531,206.606 63.866,206.430 64.212 C 206.106 64.850,205.268 65.500,204.772 65.500 C 204.622 65.500,204.500 65.575,204.500 65.667 C 204.500 65.874,202.056 65.892,201.928 65.685 C 201.878 65.604,201.642 65.488,201.403 65.428 C 200.945 65.313,199.897 64.283,199.738 63.792 C 199.639 63.483,198.833 63.372,198.833 63.667 C 198.833 63.758,198.702 63.834,198.542 63.834 C 198.381 63.835,198.041 63.945,197.785 64.078 C 197.529 64.212,197.060 64.370,196.743 64.429 C 196.426 64.488,196.167 64.598,196.167 64.672 C 196.167 64.746,195.937 64.857,195.655 64.919 C 195.374 64.981,194.943 65.136,194.697 65.265 C 194.451 65.393,194.168 65.498,194.067 65.499 C 193.769 65.501,192.833 66.012,192.833 66.174 C 192.833 66.397,193.548 67.741,193.701 67.806 C 193.774 67.836,193.833 67.939,193.833 68.033 C 193.833 68.219,196.004 70.333,196.194 70.333 C 196.258 70.333,196.409 70.430,196.530 70.548 C 196.812 70.824,197.897 71.333,198.200 71.333 C 198.328 71.333,198.513 71.413,198.610 71.510 C 198.707 71.607,199.211 71.730,199.731 71.783 C 200.251 71.837,200.716 71.945,200.765 72.024 C 200.891 72.228,205.790 72.205,205.917 72.000 C 205.973 71.908,206.240 71.833,206.509 71.833 C 207.074 71.833,209.056 71.187,209.139 70.975 C 209.169 70.897,209.301 70.833,209.431 70.833 C 209.560 70.833,209.667 70.766,209.667 70.685 C 209.667 70.603,209.854 70.489,210.083 70.432 C 210.313 70.374,210.500 70.253,210.500 70.163 C 210.500 70.074,210.585 70.000,210.689 70.000 C 210.926 70.000,212.500 68.415,212.500 68.176 C 212.500 68.079,212.574 68.000,212.663 68.000 C 212.848 68.000,213.751 66.149,213.929 65.405 C 213.993 65.136,214.129 64.811,214.231 64.683 C 214.362 64.518,214.431 61.186,214.466 53.391 L 214.515 42.333 210.841 42.333 L 207.167 42.333 207.167 42.922 L 207.167 43.510 206.459 43.130 C 206.069 42.921,205.712 42.700,205.665 42.638 C 205.618 42.577,205.356 42.473,205.082 42.407 C 204.808 42.341,204.490 42.214,204.375 42.124 C 204.152 41.947,200.986 41.819,199.958 41.944 M255.125 41.945 C 254.781 41.986,254.500 42.081,254.500 42.155 C 254.500 42.229,254.183 42.332,253.795 42.384 C 253.408 42.436,253.064 42.558,253.031 42.656 C 252.999 42.753,252.856 42.833,252.714 42.833 C 252.432 42.833,251.284 43.489,251.194 43.701 C 251.164 43.774,251.051 43.834,250.944 43.834 C 250.704 43.835,249.167 45.409,249.167 45.655 C 249.167 45.753,249.093 45.833,249.003 45.833 C 248.913 45.833,248.793 46.021,248.735 46.250 C 248.678 46.479,248.564 46.667,248.482 46.667 C 248.400 46.667,248.333 46.760,248.332 46.875 C 248.332 46.990,248.214 47.308,248.070 47.583 C 247.926 47.858,247.766 48.442,247.714 48.880 C 247.662 49.318,247.555 49.716,247.476 49.765 C 247.398 49.813,247.333 50.669,247.333 51.667 C 247.333 52.664,247.398 53.520,247.476 53.569 C 247.555 53.617,247.662 54.015,247.714 54.453 C 247.766 54.892,247.926 55.475,248.070 55.750 C 248.214 56.025,248.332 56.344,248.332 56.458 C 248.333 56.573,248.408 56.667,248.500 56.667 C 248.592 56.667,248.667 56.764,248.667 56.883 C 248.667 57.225,249.819 58.571,250.696 59.255 C 251.212 59.657,252.688 60.500,252.878 60.501 C 252.991 60.502,253.307 60.619,253.580 60.761 C 253.853 60.903,254.546 61.064,255.121 61.117 C 255.696 61.171,256.167 61.279,256.167 61.357 C 256.167 61.553,259.601 61.539,259.961 61.341 C 260.120 61.254,260.681 61.136,261.208 61.080 C 261.735 61.023,262.167 60.916,262.167 60.843 C 262.167 60.769,262.467 60.661,262.833 60.603 C 263.200 60.544,263.500 60.430,263.500 60.349 C 263.500 60.269,263.702 60.152,263.950 60.090 C 264.197 60.028,264.569 59.795,264.775 59.572 C 264.982 59.349,265.223 59.167,265.311 59.167 C 265.400 59.167,265.720 58.848,266.023 58.458 C 266.327 58.069,266.614 57.712,266.662 57.667 C 266.711 57.621,266.930 57.208,267.150 56.750 C 267.370 56.292,267.613 55.786,267.691 55.627 C 267.769 55.468,267.833 55.149,267.833 54.919 L 267.833 54.500 264.325 54.500 L 260.816 54.500 260.654 54.964 C 259.953 56.977,255.438 56.299,255.065 54.125 C 255.006 53.781,254.892 53.500,254.812 53.500 C 254.732 53.500,254.667 53.350,254.667 53.167 C 254.667 52.839,254.778 52.833,261.355 52.833 L 268.043 52.833 267.967 50.569 C 267.923 49.293,267.815 48.256,267.719 48.194 C 267.625 48.133,267.496 47.802,267.433 47.458 C 267.370 47.115,267.253 46.833,267.172 46.833 C 267.092 46.833,266.977 46.608,266.917 46.333 C 266.856 46.058,266.735 45.833,266.648 45.833 C 266.561 45.833,266.442 45.702,266.384 45.542 C 266.031 44.572,263.816 43.021,261.667 42.239 C 260.915 41.966,256.581 41.771,255.125 41.945 M277.500 41.944 C 277.179 41.988,276.845 42.093,276.758 42.179 C 276.671 42.264,276.495 42.333,276.367 42.333 C 275.404 42.333,272.167 44.718,272.167 45.427 C 272.167 45.539,272.054 45.674,271.917 45.727 C 271.779 45.780,271.667 45.938,271.667 46.078 C 271.667 46.218,271.598 46.333,271.513 46.333 C 271.429 46.333,271.310 46.558,271.250 46.833 C 271.190 47.108,271.078 47.333,271.001 47.333 C 270.925 47.333,270.809 47.652,270.744 48.042 C 270.679 48.431,270.541 48.804,270.438 48.869 C 270.168 49.040,270.180 54.031,270.451 54.358 C 270.562 54.491,270.702 54.915,270.764 55.300 C 270.826 55.685,270.935 56.000,271.008 56.000 C 271.081 56.000,271.190 56.225,271.250 56.500 C 271.310 56.775,271.429 57.000,271.513 57.000 C 271.598 57.000,271.667 57.115,271.667 57.255 C 271.667 57.396,271.779 57.554,271.917 57.606 C 272.054 57.659,272.167 57.789,272.167 57.896 C 272.167 58.172,273.634 59.667,273.905 59.667 C 274.029 59.667,274.174 59.779,274.227 59.917 C 274.280 60.054,274.438 60.167,274.578 60.167 C 274.718 60.167,274.833 60.242,274.833 60.333 C 274.833 60.425,274.927 60.500,275.042 60.501 C 275.156 60.502,275.475 60.620,275.750 60.763 C 276.025 60.907,276.608 61.067,277.047 61.119 C 277.485 61.172,277.883 61.279,277.931 61.357 C 278.047 61.544,280.667 61.544,280.667 61.357 C 280.667 61.278,281.055 61.167,281.529 61.111 C 282.003 61.055,282.435 60.943,282.487 60.863 C 282.540 60.783,282.790 60.668,283.042 60.606 C 283.294 60.544,283.500 60.420,283.500 60.330 C 283.500 60.240,283.588 60.167,283.695 60.167 C 283.803 60.167,284.224 59.819,284.631 59.393 L 285.372 58.620 285.861 59.143 C 286.130 59.431,286.451 59.667,286.574 59.667 C 286.697 59.667,286.835 59.763,286.880 59.880 C 286.925 59.997,287.251 60.241,287.606 60.422 C 287.960 60.602,288.293 60.808,288.346 60.879 C 288.399 60.951,288.830 61.055,289.304 61.111 C 289.779 61.167,290.167 61.278,290.167 61.357 C 290.167 61.435,290.692 61.500,291.333 61.500 C 292.000 61.500,292.500 61.429,292.500 61.333 C 292.500 61.242,292.688 61.167,292.917 61.167 L 293.333 61.167 293.333 58.188 L 293.333 55.210 292.461 55.094 C 291.276 54.937,291.339 55.309,291.336 48.458 L 291.333 42.333 287.667 42.333 L 284.000 42.333 284.000 42.859 C 284.000 43.358,283.984 43.371,283.695 43.109 C 283.528 42.957,283.303 42.833,283.195 42.833 C 283.088 42.833,283.000 42.764,283.000 42.680 C 283.000 42.596,282.756 42.474,282.458 42.411 C 282.160 42.347,281.824 42.220,281.711 42.130 C 281.488 41.950,278.443 41.816,277.500 41.944 M306.625 41.953 C 306.373 41.991,306.167 42.092,306.167 42.178 C 306.167 42.263,306.022 42.333,305.845 42.333 C 305.668 42.333,305.411 42.446,305.274 42.583 C 305.136 42.721,304.959 42.833,304.879 42.833 C 304.799 42.833,304.550 43.055,304.326 43.326 C 303.770 43.996,303.667 43.958,303.667 43.083 L 303.667 42.333 300.000 42.333 L 296.333 42.333 296.333 51.667 L 296.333 61.000 299.993 61.000 L 303.653 61.000 303.702 55.722 C 303.739 51.683,303.799 50.428,303.958 50.375 C 304.073 50.337,304.167 50.233,304.167 50.144 C 304.167 49.852,305.407 48.821,305.878 48.721 C 306.132 48.668,306.381 48.558,306.430 48.478 C 306.479 48.399,307.303 48.333,308.260 48.333 L 310.000 48.333 310.000 45.186 C 310.000 42.063,309.997 42.038,309.625 41.938 C 309.222 41.830,307.375 41.839,306.625 41.953 M322.917 41.937 C 322.733 41.984,322.347 42.130,322.058 42.261 C 321.769 42.393,321.451 42.500,321.350 42.500 C 321.249 42.500,321.167 42.575,321.167 42.667 C 321.167 42.758,321.066 42.833,320.942 42.833 C 320.721 42.833,320.362 43.101,319.458 43.937 L 319.000 44.362 319.000 43.347 L 319.000 42.333 315.417 42.333 L 311.833 42.333 311.833 51.667 L 311.833 61.000 315.417 61.000 L 319.000 61.000 319.000 55.583 C 319.000 52.395,319.063 50.167,319.153 50.167 C 319.238 50.167,319.353 49.956,319.410 49.699 C 319.466 49.442,319.669 49.123,319.860 48.991 C 320.051 48.858,320.305 48.656,320.425 48.542 C 320.685 48.293,322.667 48.256,322.667 48.500 C 322.667 48.592,322.762 48.667,322.880 48.667 C 323.693 48.667,323.747 49.054,323.798 55.208 L 323.846 61.000 327.514 61.000 L 331.183 61.000 331.133 53.875 C 331.088 47.457,331.054 46.700,330.793 46.250 C 330.633 45.975,330.502 45.656,330.501 45.542 C 330.500 45.427,330.425 45.333,330.333 45.333 C 330.242 45.333,330.167 45.255,330.167 45.160 C 330.167 44.996,329.611 44.137,329.250 43.744 C 328.898 43.360,327.241 42.333,326.974 42.333 C 326.820 42.333,326.666 42.248,326.631 42.143 C 326.565 41.944,323.543 41.776,322.917 41.937 M342.000 41.940 C 341.160 42.105,339.071 42.880,338.641 43.185 C 338.398 43.358,338.144 43.500,338.077 43.500 C 338.010 43.500,337.781 43.688,337.569 43.917 C 337.356 44.146,337.104 44.333,337.008 44.333 C 336.912 44.333,336.833 44.393,336.833 44.465 C 336.833 44.538,336.568 44.878,336.245 45.221 C 335.508 46.002,334.724 47.435,334.572 48.276 C 334.509 48.628,334.383 49.009,334.294 49.122 C 334.064 49.412,334.087 54.057,334.319 54.134 C 334.418 54.167,334.500 54.373,334.500 54.591 C 334.500 55.162,335.099 56.600,335.629 57.300 C 336.316 58.208,337.840 59.667,338.102 59.667 C 338.229 59.667,338.333 59.736,338.333 59.820 C 338.333 59.904,338.558 60.023,338.833 60.083 C 339.108 60.144,339.333 60.256,339.333 60.333 C 339.333 60.410,339.577 60.526,339.875 60.591 C 340.173 60.656,340.460 60.776,340.512 60.858 C 340.564 60.940,341.111 61.054,341.726 61.111 C 342.341 61.169,342.884 61.280,342.932 61.358 C 343.047 61.544,346.620 61.543,346.735 61.358 C 346.783 61.279,347.262 61.169,347.798 61.113 C 348.334 61.057,348.993 60.897,349.262 60.757 C 349.530 60.617,349.881 60.502,350.042 60.501 C 350.202 60.500,350.333 60.433,350.333 60.351 C 350.333 60.270,350.521 60.156,350.750 60.098 C 350.979 60.041,351.167 59.920,351.167 59.830 C 351.167 59.740,351.250 59.667,351.351 59.667 C 351.584 59.667,353.333 57.930,353.333 57.699 C 353.333 57.605,353.390 57.503,353.458 57.472 C 353.665 57.381,354.493 55.624,354.605 55.042 L 354.708 54.500 351.188 54.500 C 348.838 54.500,347.667 54.558,347.667 54.675 C 347.667 55.084,346.409 55.993,345.696 56.100 C 343.835 56.379,341.833 55.460,341.833 54.327 C 341.833 54.147,341.758 54.000,341.667 54.000 C 341.575 54.000,341.500 53.737,341.500 53.417 L 341.500 52.833 348.262 52.833 L 355.024 52.833 354.948 51.458 C 354.831 49.347,354.336 47.167,353.973 47.167 C 353.911 47.167,353.810 46.942,353.750 46.667 C 353.690 46.392,353.571 46.167,353.487 46.167 C 353.402 46.167,353.333 46.061,353.333 45.933 C 353.333 45.686,351.481 43.729,350.915 43.377 C 350.182 42.922,349.291 42.517,348.785 42.409 C 348.491 42.346,348.151 42.215,348.030 42.117 C 347.804 41.935,342.777 41.787,342.000 41.940 M368.750 41.944 C 368.130 42.079,366.739 42.835,366.191 43.336 C 365.496 43.971,365.500 43.972,365.500 43.083 L 365.500 42.333 361.833 42.333 L 358.167 42.333 358.167 51.667 L 358.167 61.000 361.833 61.000 L 365.500 61.000 365.500 56.083 C 365.500 52.917,365.559 51.167,365.667 51.167 C 365.758 51.167,365.833 51.003,365.833 50.802 C 365.833 49.452,367.802 48.333,370.178 48.333 L 371.833 48.333 371.833 45.186 C 371.833 42.063,371.830 42.038,371.458 41.938 C 371.043 41.827,369.272 41.831,368.750 41.944 M378.542 41.943 C 378.244 41.986,378.000 42.082,378.000 42.156 C 378.000 42.230,377.700 42.339,377.333 42.397 C 376.967 42.456,376.667 42.570,376.667 42.651 C 376.667 42.731,376.474 42.846,376.239 42.905 C 375.713 43.037,373.921 44.794,373.748 45.347 C 373.678 45.568,373.538 45.803,373.436 45.869 C 373.160 46.045,373.181 50.198,373.458 50.291 C 373.573 50.330,373.667 50.468,373.667 50.599 C 373.667 50.730,373.817 50.965,374.000 51.122 C 374.183 51.279,374.333 51.503,374.333 51.620 C 374.333 51.738,374.412 51.833,374.507 51.833 C 374.603 51.833,374.884 52.023,375.132 52.255 C 375.380 52.487,375.752 52.720,375.958 52.773 C 376.165 52.826,376.333 52.936,376.333 53.018 C 376.333 53.100,376.427 53.167,376.542 53.168 C 376.656 53.168,376.951 53.274,377.197 53.402 C 377.443 53.530,377.874 53.686,378.155 53.748 C 378.437 53.809,378.667 53.929,378.667 54.013 C 378.667 54.098,378.854 54.167,379.083 54.167 C 379.313 54.167,379.500 54.234,379.500 54.315 C 379.500 54.397,379.705 54.515,379.957 54.578 C 380.208 54.642,380.469 54.781,380.537 54.888 C 381.300 56.088,378.967 55.993,377.802 54.777 C 377.084 54.028,376.167 53.782,376.167 54.338 C 376.167 54.413,375.942 54.523,375.667 54.583 C 375.392 54.644,375.167 54.756,375.167 54.833 C 375.167 54.910,374.942 55.023,374.667 55.083 C 374.392 55.144,374.165 55.243,374.163 55.305 C 374.161 55.366,373.750 55.604,373.250 55.833 C 372.750 56.063,372.339 56.306,372.337 56.375 C 372.335 56.444,372.221 56.500,372.083 56.500 C 371.807 56.500,371.746 56.760,371.987 56.909 C 372.072 56.961,372.189 57.222,372.247 57.488 C 372.306 57.754,372.462 58.014,372.594 58.064 C 372.725 58.115,372.833 58.253,372.833 58.372 C 372.833 58.490,373.069 58.774,373.357 59.002 C 373.646 59.230,374.004 59.529,374.154 59.667 C 374.519 60.002,375.888 60.667,376.213 60.667 C 376.355 60.667,376.497 60.741,376.528 60.832 C 376.558 60.922,377.052 61.046,377.625 61.105 C 378.198 61.165,378.667 61.278,378.667 61.357 C 378.667 61.552,381.600 61.539,381.961 61.342 C 382.120 61.255,382.606 61.138,383.042 61.082 C 383.477 61.026,383.833 60.919,383.833 60.844 C 383.833 60.769,384.040 60.667,384.292 60.616 C 384.807 60.513,386.667 58.785,386.667 58.410 C 386.667 58.276,386.738 58.167,386.826 58.167 C 386.913 58.167,387.034 57.903,387.095 57.581 C 387.155 57.260,387.271 56.955,387.352 56.905 C 387.549 56.783,387.543 53.380,387.346 53.258 C 387.262 53.206,387.143 52.939,387.083 52.665 C 387.023 52.391,386.904 52.167,386.820 52.167 C 386.736 52.167,386.667 52.058,386.667 51.926 C 386.667 51.603,385.092 50.069,384.485 49.800 C 384.218 49.682,384.000 49.535,384.000 49.473 C 384.000 49.411,383.775 49.310,383.500 49.250 C 383.225 49.190,383.000 49.071,383.000 48.987 C 383.000 48.902,382.906 48.833,382.792 48.832 C 382.677 48.832,382.391 48.731,382.156 48.608 C 381.920 48.485,381.517 48.332,381.260 48.268 C 380.408 48.054,380.000 47.350,380.708 47.315 C 381.678 47.267,383.151 47.737,383.426 48.181 C 383.597 48.458,384.503 48.353,384.622 48.042 C 384.683 47.881,384.906 47.563,385.118 47.333 C 385.330 47.104,385.545 46.785,385.596 46.625 C 385.647 46.465,385.753 46.333,385.831 46.333 C 385.909 46.333,386.144 46.052,386.352 45.708 C 386.561 45.365,386.830 45.023,386.949 44.950 C 387.265 44.756,387.215 44.113,386.862 43.829 C 386.068 43.190,384.359 42.333,383.877 42.333 C 383.706 42.333,383.484 42.251,383.383 42.150 C 383.192 41.958,379.518 41.801,378.542 41.943 M158.500 51.667 L 158.500 61.000 162.167 61.000 L 165.833 61.000 165.833 51.667 L 165.833 42.333 162.167 42.333 L 158.500 42.333 158.500 51.667 M33.667 44.073 C 33.667 44.206,33.742 44.360,33.833 44.417 C 33.925 44.473,34.000 44.997,34.000 45.580 C 34.000 46.724,34.104 47.167,34.374 47.167 C 34.481 47.167,34.507 46.887,34.443 46.418 C 34.320 45.521,34.524 44.901,34.990 44.753 C 35.493 44.593,35.408 44.333,34.854 44.333 C 34.590 44.333,34.281 44.221,34.167 44.083 C 33.904 43.767,33.667 43.762,33.667 44.073 M26.000 44.141 C 26.000 44.219,26.141 44.445,26.313 44.643 C 26.603 44.978,26.608 45.056,26.379 45.710 C 26.079 46.569,26.185 48.396,26.579 49.159 C 26.874 49.729,26.802 50.000,26.354 50.000 C 25.610 50.000,24.324 50.549,23.624 51.166 C 22.783 51.906,22.462 51.971,21.804 51.537 C 20.836 50.898,20.315 49.824,20.660 49.179 C 20.923 48.688,20.695 48.386,20.390 48.821 C 20.236 49.041,19.965 49.167,19.643 49.167 C 19.078 49.167,19.049 49.550,19.607 49.633 C 19.813 49.663,20.019 49.904,20.150 50.266 C 20.418 51.006,21.172 51.783,21.933 52.101 C 22.453 52.318,22.517 52.409,22.470 52.868 C 22.438 53.178,22.501 53.417,22.625 53.458 C 22.740 53.496,22.833 53.408,22.833 53.262 C 22.833 51.862,24.480 50.778,27.257 50.349 C 28.765 50.116,29.687 49.880,30.311 49.566 C 31.102 49.169,31.420 49.113,33.061 49.081 C 35.175 49.040,36.667 48.533,36.667 47.857 C 36.667 47.591,36.537 47.618,36.009 47.994 C 35.366 48.451,34.082 48.706,33.000 48.590 C 32.000 48.483,31.111 48.685,29.366 49.415 C 27.927 50.016,27.511 49.942,27.049 49.000 C 26.299 47.472,26.605 45.337,27.627 44.964 C 28.328 44.708,28.230 44.405,27.468 44.471 C 27.098 44.503,26.782 44.424,26.618 44.261 C 26.336 43.979,26.000 43.914,26.000 44.141 M22.369 45.626 C 22.413 46.246,22.577 46.998,22.732 47.298 C 22.997 47.811,22.997 47.871,22.724 48.333 C 22.334 48.993,22.563 49.160,23.127 48.627 C 23.378 48.389,23.765 48.170,23.987 48.139 C 24.614 48.052,24.601 47.697,23.969 47.636 C 23.292 47.571,22.911 46.896,22.738 45.458 C 22.575 44.091,22.269 44.230,22.369 45.626 M37.969 45.420 C 37.922 45.467,38.131 45.769,38.435 46.091 C 39.075 46.770,39.275 47.568,39.037 48.504 C 38.865 49.182,39.165 49.512,39.399 48.903 C 39.910 47.571,38.720 44.669,37.969 45.420 M97.167 47.500 C 97.167 47.592,97.256 47.667,97.364 47.667 C 97.593 47.667,98.333 48.325,98.333 48.529 C 98.333 48.605,97.208 48.667,95.833 48.667 C 94.458 48.667,93.335 48.610,93.336 48.542 C 93.341 48.317,94.124 47.667,94.389 47.667 C 94.531 47.667,94.693 47.592,94.750 47.500 C 94.807 47.408,95.374 47.333,96.010 47.333 C 96.670 47.333,97.167 47.405,97.167 47.500 M259.167 47.500 C 259.167 47.592,259.268 47.667,259.392 47.667 C 259.613 47.667,260.500 48.394,260.500 48.575 C 260.500 48.626,259.324 48.667,257.888 48.667 L 255.275 48.667 255.675 48.241 C 256.402 47.467,259.167 46.880,259.167 47.500 M345.833 47.482 C 345.833 47.564,346.035 47.681,346.282 47.743 C 346.653 47.836,347.333 48.396,347.333 48.609 C 347.333 48.641,346.122 48.667,344.642 48.667 L 341.951 48.667 342.474 48.167 C 342.762 47.892,343.110 47.667,343.248 47.667 C 343.387 47.667,343.500 47.592,343.500 47.500 C 343.500 47.405,344.000 47.333,344.667 47.333 C 345.308 47.333,345.833 47.400,345.833 47.482 M120.188 48.625 C 120.930 49.020,121.547 49.635,121.885 50.317 C 122.179 50.910,122.279 52.667,122.018 52.667 C 121.936 52.667,121.820 52.864,121.760 53.105 C 121.398 54.547,118.975 55.460,117.484 54.717 C 116.827 54.390,115.833 53.471,115.833 53.191 C 115.833 53.086,115.758 53.000,115.667 53.000 C 115.569 53.000,115.500 52.444,115.500 51.667 C 115.500 50.889,115.569 50.333,115.667 50.333 C 115.758 50.333,115.833 50.247,115.833 50.142 C 115.833 49.886,116.818 48.941,117.428 48.611 C 118.089 48.253,119.503 48.261,120.188 48.625 M144.988 48.602 C 145.745 48.980,146.644 49.922,146.761 50.462 C 146.815 50.712,146.941 51.085,147.041 51.292 C 147.173 51.563,147.173 51.771,147.041 52.042 C 146.941 52.248,146.815 52.621,146.761 52.872 C 146.644 53.411,145.745 54.353,144.988 54.731 C 144.416 55.016,142.500 55.109,142.500 54.851 C 142.500 54.770,142.311 54.655,142.079 54.597 C 141.127 54.358,140.333 53.026,140.333 51.667 C 140.333 50.308,141.127 48.975,142.079 48.736 C 142.311 48.678,142.500 48.564,142.500 48.482 C 142.500 48.224,144.416 48.317,144.988 48.602 M205.321 48.602 C 205.617 48.750,206.135 49.144,206.472 49.477 L 207.083 50.083 207.083 51.667 L 207.083 53.250 206.472 53.856 C 205.494 54.825,202.833 55.552,202.833 54.851 C 202.833 54.770,202.644 54.655,202.412 54.597 C 200.420 54.097,199.975 50.795,201.681 49.168 C 202.546 48.343,204.265 48.075,205.321 48.602 M282.000 48.482 C 282.000 48.564,282.194 48.679,282.431 48.739 C 282.903 48.857,283.667 49.591,283.667 49.927 C 283.667 50.044,283.760 50.170,283.875 50.209 C 284.019 50.257,284.083 50.704,284.083 51.667 C 284.083 52.630,284.019 53.077,283.875 53.125 C 283.760 53.163,283.667 53.298,283.667 53.424 C 283.667 53.732,282.842 54.487,282.375 54.607 C 282.169 54.660,282.000 54.770,282.000 54.851 C 282.000 54.933,281.475 55.000,280.833 55.000 C 280.167 55.000,279.667 54.929,279.667 54.833 C 279.667 54.742,279.557 54.667,279.423 54.667 C 279.026 54.667,277.834 53.380,277.725 52.833 C 277.669 52.554,277.558 52.286,277.478 52.237 C 277.399 52.187,277.333 51.931,277.333 51.667 C 277.333 51.402,277.399 51.146,277.478 51.097 C 277.558 51.047,277.669 50.779,277.725 50.500 C 277.834 49.953,279.026 48.667,279.423 48.667 C 279.557 48.667,279.667 48.592,279.667 48.500 C 279.667 48.405,280.167 48.333,280.833 48.333 C 281.475 48.333,282.000 48.400,282.000 48.482 M35.833 50.072 C 35.833 50.204,35.910 50.513,36.004 50.759 C 36.322 51.597,35.313 52.168,33.521 52.164 C 32.300 52.161,32.068 52.074,31.975 51.583 C 31.877 51.064,31.406 51.161,31.468 51.688 C 31.609 52.907,28.247 53.701,27.234 52.689 L 26.833 52.288 26.833 52.769 C 26.833 53.118,26.695 53.342,26.333 53.583 C 26.059 53.767,25.834 54.052,25.834 54.217 C 25.833 54.476,25.918 54.453,26.445 54.050 C 27.281 53.413,29.060 53.359,29.458 53.958 C 29.777 54.438,30.000 54.437,30.000 53.957 C 30.000 52.729,34.299 51.930,34.470 53.127 C 34.543 53.638,34.833 53.600,34.833 53.079 C 34.833 52.798,34.958 52.609,35.208 52.510 C 35.415 52.429,35.832 52.175,36.137 51.946 C 36.596 51.601,36.778 51.555,37.202 51.677 C 37.484 51.758,37.780 51.783,37.860 51.734 C 38.081 51.597,37.853 51.333,37.513 51.333 C 37.030 51.333,36.333 50.686,36.333 50.238 C 36.333 49.989,36.237 49.833,36.083 49.833 C 35.946 49.833,35.833 49.941,35.833 50.072 M39.494 52.708 C 39.488 53.143,39.103 53.649,38.457 54.073 C 37.963 54.396,37.978 54.685,38.482 54.553 C 39.308 54.337,40.465 52.333,39.763 52.333 C 39.603 52.333,39.498 52.480,39.494 52.708 M33.333 55.775 C 33.196 55.821,32.925 55.934,32.732 56.027 C 32.350 56.213,30.427 56.146,29.958 55.931 C 29.530 55.735,29.592 56.115,30.026 56.347 C 30.536 56.620,32.468 56.567,33.203 56.259 C 33.971 55.938,35.279 55.933,35.833 56.250 C 36.337 56.538,36.500 56.556,36.500 56.325 C 36.500 55.865,34.248 55.474,33.333 55.775 " stroke="none" fill="#040404" fill-rule="evenodd"></path><path id="path2" d="M28.798 39.624 C 29.375 39.656,30.275 39.656,30.798 39.623 C 31.322 39.590,30.850 39.563,29.750 39.564 C 28.650 39.564,28.222 39.591,28.798 39.624 M32.847 39.893 C 32.885 39.926,33.217 39.999,33.583 40.055 C 34.037 40.125,34.170 40.106,34.000 39.998 C 33.772 39.853,32.685 39.754,32.847 39.893 M33.460 41.285 C 33.668 41.324,33.968 41.323,34.127 41.281 C 34.286 41.239,34.117 41.207,33.750 41.209 C 33.383 41.211,33.253 41.245,33.460 41.285 M26.042 41.448 C 26.202 41.490,26.465 41.490,26.625 41.448 C 26.785 41.406,26.654 41.372,26.333 41.372 C 26.012 41.372,25.881 41.406,26.042 41.448 M20.980 42.513 L 20.250 43.192 21.042 42.561 C 21.477 42.214,21.833 41.908,21.833 41.881 C 21.833 41.753,21.651 41.887,20.980 42.513 M30.712 43.000 C 30.712 43.413,30.745 43.581,30.784 43.375 C 30.824 43.169,30.824 42.831,30.784 42.625 C 30.745 42.419,30.712 42.587,30.712 43.000 M33.611 43.778 C 33.550 43.839,33.501 43.970,33.503 44.069 C 33.504 44.169,33.574 44.140,33.659 44.007 C 33.792 43.797,33.856 43.802,34.128 44.048 C 34.301 44.205,34.637 44.333,34.874 44.333 C 35.111 44.333,35.344 44.410,35.390 44.504 C 35.437 44.598,35.456 44.579,35.433 44.462 C 35.410 44.346,35.159 44.227,34.875 44.199 C 34.591 44.170,34.268 44.039,34.159 43.907 C 33.940 43.644,33.782 43.607,33.611 43.778 M25.917 43.999 C 25.861 44.090,25.900 44.296,26.004 44.457 C 26.177 44.726,26.184 44.724,26.090 44.430 C 26.033 44.249,26.082 44.051,26.203 43.974 C 26.355 43.878,26.359 43.838,26.218 43.836 C 26.109 43.834,25.974 43.908,25.917 43.999 M22.709 45.083 C 22.711 45.450,22.745 45.580,22.785 45.373 C 22.824 45.166,22.823 44.866,22.781 44.706 C 22.739 44.547,22.707 44.717,22.709 45.083 M22.209 45.250 C 22.211 45.617,22.245 45.747,22.285 45.540 C 22.324 45.332,22.323 45.032,22.281 44.873 C 22.239 44.714,22.207 44.883,22.209 45.250 M31.205 45.500 C 31.205 45.821,31.240 45.952,31.282 45.792 C 31.323 45.631,31.323 45.369,31.282 45.208 C 31.240 45.048,31.205 45.179,31.205 45.500 M33.883 45.833 C 33.883 46.337,33.915 46.544,33.953 46.292 C 33.991 46.040,33.991 45.627,33.953 45.375 C 33.915 45.123,33.883 45.329,33.883 45.833 M26.045 47.167 C 26.045 47.579,26.078 47.748,26.118 47.542 C 26.157 47.335,26.157 46.998,26.118 46.792 C 26.078 46.585,26.045 46.754,26.045 47.167 M39.552 47.750 C 39.553 48.300,39.584 48.505,39.621 48.205 C 39.658 47.906,39.657 47.456,39.619 47.205 C 39.581 46.955,39.551 47.200,39.552 47.750 M23.312 47.375 C 23.453 47.555,23.740 47.657,24.062 47.642 L 24.583 47.617 24.083 47.544 C 23.808 47.503,23.471 47.383,23.333 47.277 C 23.116 47.108,23.113 47.121,23.312 47.375 M39.042 47.750 C 39.044 48.117,39.078 48.247,39.118 48.040 C 39.158 47.832,39.156 47.532,39.115 47.373 C 39.073 47.214,39.040 47.383,39.042 47.750 M36.150 47.786 C 35.935 48.059,35.941 48.064,36.221 47.844 C 36.486 47.636,36.547 47.636,36.692 47.844 C 36.837 48.052,36.850 48.052,36.794 47.844 C 36.696 47.480,36.410 47.455,36.150 47.786 M17.542 49.083 C 17.544 49.450,17.578 49.580,17.618 49.373 C 17.658 49.166,17.656 48.866,17.615 48.706 C 17.573 48.547,17.540 48.717,17.542 49.083 M31.000 48.674 C 30.817 48.798,30.885 48.813,31.250 48.732 C 31.863 48.595,31.996 48.499,31.569 48.503 C 31.394 48.504,31.137 48.581,31.000 48.674 M33.292 48.618 C 33.498 48.657,33.835 48.657,34.042 48.618 C 34.248 48.578,34.079 48.545,33.667 48.545 C 33.254 48.545,33.085 48.578,33.292 48.618 M20.250 48.833 C 20.193 48.925,19.931 49.000,19.667 49.000 C 19.118 49.000,18.870 49.271,19.158 49.556 C 19.307 49.704,19.327 49.681,19.242 49.458 C 19.152 49.221,19.224 49.167,19.628 49.167 C 19.902 49.167,20.219 49.054,20.333 48.917 C 20.447 48.779,20.499 48.667,20.447 48.667 C 20.395 48.667,20.307 48.742,20.250 48.833 M38.771 48.923 C 38.671 49.183,39.089 49.466,39.285 49.271 C 39.342 49.213,39.266 49.167,39.116 49.167 C 38.943 49.167,38.879 49.076,38.940 48.917 C 38.992 48.779,38.998 48.667,38.952 48.667 C 38.906 48.667,38.825 48.782,38.771 48.923 M32.042 49.115 C 32.202 49.157,32.465 49.157,32.625 49.115 C 32.785 49.073,32.654 49.039,32.333 49.039 C 32.012 49.039,31.881 49.073,32.042 49.115 M26.576 49.403 C 26.634 49.584,26.585 49.782,26.464 49.859 C 26.312 49.956,26.307 49.996,26.448 49.997 C 26.763 50.001,26.868 49.696,26.663 49.376 C 26.490 49.107,26.483 49.109,26.576 49.403 M25.000 50.174 C 24.817 50.298,24.885 50.313,25.250 50.232 C 25.863 50.095,25.996 49.999,25.569 50.003 C 25.394 50.004,25.137 50.081,25.000 50.174 M27.042 50.448 C 27.202 50.490,27.465 50.490,27.625 50.448 C 27.785 50.406,27.654 50.372,27.333 50.372 C 27.012 50.372,26.881 50.406,27.042 50.448 M36.346 50.446 C 36.331 50.670,37.118 51.334,37.397 51.333 C 37.500 51.332,37.348 51.189,37.060 51.013 C 36.772 50.838,36.497 50.594,36.448 50.472 C 36.392 50.331,36.355 50.322,36.346 50.446 M23.240 51.375 L 22.750 51.917 23.292 51.427 C 23.590 51.158,23.833 50.914,23.833 50.885 C 23.833 50.757,23.696 50.870,23.240 51.375 M32.963 52.122 C 33.355 52.157,33.955 52.157,34.296 52.121 C 34.637 52.085,34.317 52.057,33.583 52.057 C 32.850 52.058,32.571 52.087,32.963 52.122 M32.125 52.618 C 32.331 52.657,32.669 52.657,32.875 52.618 C 33.081 52.578,32.912 52.545,32.500 52.545 C 32.087 52.545,31.919 52.578,32.125 52.618 M34.897 52.740 C 34.847 52.872,34.835 53.116,34.870 53.282 C 34.911 53.470,34.968 53.380,35.022 53.042 C 35.113 52.474,35.054 52.332,34.897 52.740 M33.948 52.775 C 34.149 52.818,34.346 53.000,34.387 53.179 C 34.445 53.433,34.456 53.421,34.439 53.128 C 34.423 52.850,34.306 52.743,34.000 52.723 C 33.653 52.700,33.644 52.709,33.948 52.775 M29.083 53.000 L 28.083 53.111 29.032 53.139 C 29.554 53.154,30.027 53.092,30.083 53.000 C 30.140 52.908,30.163 52.846,30.135 52.861 C 30.107 52.877,29.633 52.939,29.083 53.000 M27.042 53.672 C 26.484 53.896,26.588 54.010,27.167 53.808 C 27.442 53.712,27.667 53.604,27.667 53.567 C 27.667 53.468,27.464 53.502,27.042 53.672 M28.833 53.704 C 29.063 53.817,29.348 54.042,29.468 54.205 C 29.588 54.367,29.753 54.500,29.835 54.500 C 30.126 54.500,29.243 53.711,28.833 53.606 L 28.417 53.498 28.833 53.704 M38.168 54.132 C 37.728 54.488,38.046 54.967,38.506 54.641 C 38.711 54.496,38.706 54.483,38.475 54.556 C 38.021 54.700,37.958 54.450,38.367 54.135 C 38.578 53.973,38.702 53.839,38.643 53.837 C 38.585 53.835,38.371 53.968,38.168 54.132 M34.294 55.618 C 34.501 55.658,34.801 55.656,34.960 55.615 C 35.120 55.573,34.950 55.540,34.583 55.542 C 34.217 55.544,34.086 55.578,34.294 55.618 M31.708 56.615 C 31.869 56.657,32.131 56.657,32.292 56.615 C 32.452 56.573,32.321 56.539,32.000 56.539 C 31.679 56.539,31.548 56.573,31.708 56.615 M25.391 57.039 C 25.497 57.106,25.808 57.162,26.083 57.162 C 26.358 57.162,26.670 57.106,26.776 57.039 C 26.882 56.972,26.570 56.917,26.083 56.917 C 25.597 56.917,25.285 56.972,25.391 57.039 M29.208 57.948 C 29.369 57.990,29.631 57.990,29.792 57.948 C 29.952 57.906,29.821 57.872,29.500 57.872 C 29.179 57.872,29.048 57.906,29.208 57.948 " stroke="none" fill="#565656" fill-rule="evenodd"></path><path id="path3" d="M21.441 42.258 C 21.015 42.583,20.667 42.889,20.667 42.938 C 20.667 43.014,21.720 42.255,22.242 41.804 C 22.686 41.419,22.115 41.743,21.441 42.258 M24.240 42.208 L 23.750 42.750 24.292 42.260 C 24.797 41.804,24.910 41.667,24.781 41.667 C 24.752 41.667,24.509 41.910,24.240 42.208 M33.147 41.880 C 33.227 41.960,33.508 41.999,33.771 41.966 C 34.212 41.911,34.200 41.900,33.625 41.820 C 33.267 41.771,33.063 41.796,33.147 41.880 M30.023 43.500 C 30.023 43.637,30.088 43.900,30.167 44.083 C 30.257 44.293,30.310 44.324,30.310 44.167 C 30.310 44.029,30.245 43.767,30.167 43.583 C 30.076 43.373,30.023 43.342,30.023 43.500 M25.827 43.924 C 25.660 44.126,25.658 44.224,25.817 44.382 C 25.976 44.540,25.997 44.524,25.915 44.309 C 25.772 43.932,26.118 43.755,26.466 44.027 C 26.722 44.228,26.727 44.221,26.521 43.958 C 26.240 43.600,26.102 43.593,25.827 43.924 M39.485 44.139 C 39.575 44.307,39.779 44.550,39.939 44.680 C 40.119 44.827,40.079 44.710,39.834 44.375 C 39.396 43.777,39.232 43.666,39.485 44.139 M35.513 44.367 C 35.506 44.523,35.369 44.727,35.208 44.820 C 35.048 44.913,35.001 44.992,35.105 44.995 C 35.380 45.002,35.712 44.546,35.612 44.297 C 35.557 44.159,35.522 44.184,35.513 44.367 M22.532 44.437 C 22.712 44.490,22.840 44.745,22.885 45.135 L 22.956 45.750 22.937 45.085 C 22.921 44.549,22.852 44.413,22.583 44.386 C 22.342 44.362,22.327 44.376,22.532 44.437 M34.539 45.833 C 34.539 46.154,34.573 46.285,34.615 46.125 C 34.657 45.965,34.657 45.702,34.615 45.542 C 34.573 45.381,34.539 45.512,34.539 45.833 M29.835 46.415 C 29.597 46.701,29.723 47.168,30.036 47.164 C 30.185 47.162,30.174 47.113,30.000 47.003 C 29.793 46.871,29.786 46.785,29.960 46.505 C 30.205 46.110,30.132 46.057,29.835 46.415 M23.117 46.828 C 23.164 47.008,23.305 47.241,23.430 47.345 C 23.602 47.487,23.595 47.407,23.400 47.017 C 23.105 46.426,22.992 46.350,23.117 46.828 M38.881 47.750 C 38.882 48.208,38.915 48.376,38.953 48.123 C 38.991 47.869,38.990 47.494,38.951 47.289 C 38.911 47.084,38.880 47.292,38.881 47.750 M17.771 47.854 C 17.632 48.549,17.767 48.684,17.917 48.000 C 17.980 47.712,17.997 47.441,17.955 47.399 C 17.912 47.357,17.829 47.561,17.771 47.854 M24.557 47.768 C 24.575 47.979,24.431 48.106,24.083 48.183 C 23.600 48.290,23.598 48.295,24.021 48.314 C 24.542 48.337,24.978 47.911,24.708 47.642 C 24.583 47.516,24.539 47.553,24.557 47.768 M32.292 49.290 C 32.773 49.323,33.560 49.323,34.042 49.290 C 34.523 49.256,34.129 49.228,33.167 49.228 C 32.204 49.228,31.810 49.256,32.292 49.290 M17.695 49.833 C 17.703 50.266,17.966 50.978,17.972 50.583 C 17.974 50.400,17.912 50.100,17.833 49.917 C 17.746 49.712,17.692 49.680,17.695 49.833 M35.088 52.708 C 35.050 52.823,34.994 53.067,34.962 53.250 C 34.924 53.473,34.796 53.567,34.577 53.535 C 34.313 53.496,34.297 53.518,34.494 53.650 C 34.821 53.869,35.167 53.574,35.167 53.077 C 35.167 52.867,35.260 52.657,35.375 52.610 C 35.538 52.545,35.537 52.523,35.370 52.513 C 35.252 52.506,35.125 52.594,35.088 52.708 M27.500 52.836 C 27.637 52.923,27.969 52.996,28.236 52.997 C 28.881 53.001,28.741 52.905,27.917 52.778 C 27.463 52.709,27.330 52.727,27.500 52.836 M32.211 52.786 C 32.464 52.825,32.839 52.824,33.044 52.784 C 33.249 52.744,33.042 52.713,32.583 52.714 C 32.125 52.716,31.957 52.748,32.211 52.786 M22.223 53.165 C 22.241 53.447,22.357 53.591,22.583 53.614 C 22.823 53.638,22.838 53.624,22.635 53.564 C 22.480 53.517,22.318 53.315,22.275 53.115 C 22.208 52.809,22.200 52.817,22.223 53.165 M30.292 53.513 C 30.116 53.616,30.009 53.862,30.023 54.133 C 30.045 54.574,30.047 54.575,30.122 54.173 C 30.164 53.948,30.323 53.669,30.475 53.553 C 30.806 53.301,30.697 53.277,30.292 53.513 M21.583 54.167 C 21.767 54.245,22.029 54.310,22.167 54.310 C 22.324 54.310,22.293 54.257,22.083 54.167 C 21.900 54.088,21.637 54.023,21.500 54.023 C 21.342 54.023,21.373 54.076,21.583 54.167 M25.708 56.948 C 25.869 56.990,26.131 56.990,26.292 56.948 C 26.452 56.906,26.321 56.872,26.000 56.872 C 25.679 56.872,25.548 56.906,25.708 56.948 " stroke="none" fill="#848484" fill-rule="evenodd"></path><path id="path4" d="" stroke="none" fill="#7c7c7c" fill-rule="evenodd"></path></g></svg>