<svg width="336" height="869" viewBox="0 0 336 869" fill="none" xmlns="http://www.w3.org/2000/svg">
<path d="M78.5126 106.092L55.6199 114.464L78.5126 92.4187V106.092Z" fill="#474646"/>
<path d="M224.348 154.314L78.5126 106.019V92.4187L156.084 116.566V105.464L202.063 115.456L224.348 154.314Z" fill="#474646"/>
<path d="M35.5408 83.368L56.3417 116.039L78.8736 94.634L156.368 118.867V106.463L133.836 69.0039L35.5408 83.368Z" fill="#393744"/>
<path d="M85.111 2.81649L82.2946 0V12.6742L85.111 13.8008V2.81649Z" fill="#7D5845"/>
<path d="M69.902 1.68989V18.0255L74.7213 13.6013L82.2945 16.6642V0L69.902 1.68989Z" fill="#C5937A"/>
<path d="M34.9775 48.162L35.5408 83.3681L133.836 69.004L130.457 35.2061L74.9717 12.3926L34.9775 48.162Z" fill="#E9A98D"/>
<path d="M130.457 35.2061L131.583 35.7694L135.526 32.9529L161.72 77.1718L157.213 78.8617L130.457 35.2061Z" fill="#AAAAAA"/>
<path d="M32.7251 50.1335L29.908 46.1904L74.4092 7.88635L135.526 32.9529L131.584 35.7696L74.9799 12.7436L32.7251 50.1335Z" fill="#E6E5E5"/>
<path d="M133.662 68.142L156.517 105.137V76.4867L130.233 34.7631L133.662 68.142Z" fill="#D66440"/>
<path d="M248.588 347.877V228.927L143.799 304.145V817.116H220.151V367.556L248.588 347.877Z" fill="#81CB72"/>
<path d="M260.275 349.189L248.199 347.44V228.927L335.848 245.545V364.495L323.382 362.746V298.46L260.275 284.904V349.189Z" fill="#A0D98A"/>
<path d="M335.848 364.495L323.382 362.308L296.503 381.55H308.19L335.848 364.495Z" fill="#4C8241"/>
<path d="M220.151 817.303H296.503L296.114 381.988L323.772 362.309V298.023L260.664 284.904V349.189L248.588 347.44L220.151 367.556V817.303Z" fill="#A0D98A"/>
<path d="M229.435 491.009V427.331L287.091 438.265V501.944L229.435 491.009Z" fill="#44B5C5"/>
<path d="M229.435 459.668V426.483L287.091 437.544V471.42L229.435 459.668Z" fill="#6AD8D7"/>
<path d="M229.009 586.47V522.792L286.665 533.726V597.405L229.009 586.47Z" fill="#44B5C5"/>
<path d="M229.009 555.128V521.944L286.665 533.005V566.881L229.009 555.128Z" fill="#6AD8D7"/>
<path d="M228.009 681.931V618.252L285.665 629.187V692.866L228.009 681.931Z" fill="#44B5C5"/>
<path d="M228.009 650.589V617.405L285.665 628.466V662.342L228.009 650.589Z" fill="#6AD8D7"/>
<path d="M296.503 381.55L220.151 367.556L248.199 347.44L260.275 349.189V284.904L323.772 298.023V362.308L296.503 381.55Z" fill="#4C8241"/>
<path d="M253.736 129.225L253.736 791.781L79.3853 791.781L79.3853 90.4035L253.736 129.225Z" fill="#A0D98A"/>
<path d="M83.7181 791.781L83.7175 89.0012L5.64542 166.875L5.64542 791.781L83.7181 791.781Z" fill="#81CB72"/>
</svg>
