<svg width="1440" height="656" viewBox="0 0 1440 656" fill="none" xmlns="http://www.w3.org/2000/svg">
<path d="M-203 152.217L1535 31V653H1490.58V284.991C1464.79 124.328 1267.5 131.639 1267.5 253.5V653H1144L1136 253.5C1076.54 120.726 962.895 175.08 950 262.384V653H837.221V284.991C795.669 192.837 622.776 173.262 602 262.384V653H506.958V311.667C479.018 216.482 286.938 203.489 268.312 287.762L265.898 653H131.561V293.479C67.4933 251.103 -27.6525 240.924 -49.4267 284.991V653H-203V152.217Z" fill="#191826"/>
<ellipse rx="17.5636" ry="4.90697" transform="matrix(0.99863 -0.052336 0 1 50.324 110.217)" fill="#A4A4A4"/>
<rect width="288.469" height="63.8071" transform="matrix(0.99863 -0.052336 0 1 229.441 36.3135)" fill="#777E80"/>
<path d="M-47.3833 95.0269C-44.9843 69.7704 -35.196 58.5084 -11.2775 48.9295L229.493 36.3112V100.118L-28.3607 113.632C-39.2409 114.202 -48.4186 105.927 -47.3833 95.0269Z" fill="#F0F1F4"/>
<path d="M910.83 64.4114C910.83 46.4645 844.63 19.5462 805.085 7.73136C802.028 6.81789 798.822 6.47432 795.582 6.64413L510.077 21.6068V85.4139L910.83 64.4114Z" fill="#F0F1F4"/>
<rect width="266.115" height="63.8071" transform="matrix(0.99863 -0.052336 0 1 236.88 35.9241)" fill="#F0F1F4"/>
<path d="M-37.3711 66.2496L842.264 20.1499C847.579 22.8098 875.785 34.1147 883.19 39.8338L-46.4067 88.5519C-45.3437 83.4588 -42.1547 71.1179 -37.3711 66.2496Z" fill="#A0D98A"/>
<rect width="27.676" height="46.1762" rx="2" transform="matrix(0.99863 -0.052336 0 1 252.83 52.7188)" fill="#E8E8E8"/>
<rect width="27.676" height="46.1762" rx="2" transform="matrix(0.99863 -0.052336 0 1 -12.921 66.6418)" fill="#E8E8E8"/>
<rect width="27.676" height="46.1762" rx="2" transform="matrix(0.99863 -0.052336 0 1 186.924 56.1719)" fill="#E8E8E8"/>
<rect width="27.676" height="46.1762" rx="2" transform="matrix(0.99863 -0.052336 0 1 461.176 41.7979)" fill="#E8E8E8"/>
<rect width="27.676" height="46.1762" rx="2" transform="matrix(0.99863 -0.052336 0 1 524.954 38.4563)" fill="#E8E8E8"/>
<rect width="27.676" height="46.1762" rx="2" transform="matrix(0.99863 -0.052336 0 1 749.252 26.7012)" fill="#E8E8E8"/>
<path d="M-11.8584 48.9567L801.339 6.33887C807.187 7.25904 809.965 7.88803 816.752 11.4081L-24.6144 55.5022C-20.4587 52.4935 -17.775 51.0004 -11.8584 48.9567Z" fill="#A0D98A"/>
<rect width="7.45123" height="63.8071" transform="matrix(0.99863 -0.052336 0 1 229.441 36.3135)" fill="#777E80"/>
<rect width="7.45123" height="63.8071" transform="matrix(0.99863 -0.052336 0 1 502.632 21.9954)" fill="#777E80"/>
<rect width="26.6115" height="16.7914" rx="2" transform="matrix(0.99863 -0.052336 0 1 28.6985 65.2861)" fill="#213C51"/>
<rect width="26.6115" height="16.7914" rx="2" transform="matrix(0.99863 -0.052336 0 1 140.698 58.9541)" fill="#08043F"/>
<path d="M85.1226 64.3449C85.1226 63.2403 86.0168 62.2981 87.1199 62.2402L109.7 61.0568C110.804 60.999 111.698 61.8476 111.698 62.9522V75.7435C111.698 76.8481 110.804 77.7904 109.7 77.8482L87.1199 79.0316C86.0168 79.0894 85.1226 78.2408 85.1226 77.1363V64.3449Z" fill="#08043F"/>
<rect width="26.6115" height="16.7914" rx="2" transform="matrix(0.99863 -0.052336 0 1 296.864 51.0928)" fill="#08043F"/>
<rect width="26.6115" height="16.7914" rx="2" transform="matrix(0.99863 -0.052336 0 1 419.626 44.6421)" fill="#08043F"/>
<path d="M357.645 49.9294C357.645 48.8249 358.54 47.8826 359.643 47.8248L382.223 46.6414C383.326 46.5836 384.22 47.4321 384.22 48.5367V61.3281C384.22 62.4326 383.326 63.3749 382.223 63.4327L359.643 64.6161C358.54 64.6739 357.645 63.8254 357.645 62.7208L357.645 49.9294Z" fill="#08043F"/>
<rect width="26.6115" height="16.7914" rx="2" transform="matrix(0.99863 -0.052336 0 1 571.036 37.2529)" fill="#08043F"/>
<rect width="26.6115" height="16.7914" rx="2" transform="matrix(0.99863 -0.052336 0 1 706.933 30.4482)" fill="#08043F"/>
<rect width="26.6115" height="16.7914" rx="2" transform="matrix(0.99863 -0.052336 0 1 638.946 33.3818)" fill="#08043F"/>
<path d="M784.327 13.0731C789.597 7.08057 792.637 3.50931 809.839 7.99226C842.35 18.2261 858.505 25.5392 885.312 40.1041L822.275 43.4077L784.327 13.0731Z" fill="#08043F"/>
<path d="M23.7652 108.842C25.6584 106.329 28.5536 104.768 31.6187 104.608L68.6031 102.669C71.3224 102.527 73.9241 103.501 75.8072 105.367L78.4935 108.028L22.1543 110.98L23.7652 108.842Z" fill="#D5D3D3"/>
<ellipse rx="17.5636" ry="4.19784" transform="matrix(0.99863 -0.052336 0 1 326.704 95.0225)" fill="#A4A4A4"/>
<path d="M300.145 94.357C302.038 91.844 304.934 90.2828 307.999 90.1222L344.983 88.1839C347.702 88.0414 350.304 89.0155 352.187 90.8812L354.873 93.5425L298.534 96.4951L300.145 94.357Z" fill="#D5D3D3"/>
<ellipse rx="17.5636" ry="4.19784" transform="matrix(0.99863 -0.052336 0 1 605.212 80.4263)" fill="#A4A4A4"/>
<path d="M578.653 79.7666C580.546 77.2537 583.441 75.6925 586.506 75.5318L623.491 73.5936C626.21 73.451 628.812 74.4251 630.695 76.2908L633.381 78.9522L577.042 81.9048L578.653 79.7666Z" fill="#D5D3D3"/>
<ellipse rx="17.5636" ry="4.19784" transform="matrix(0.99863 -0.052336 0 1 816.754 69.3387)" fill="#A4A4A4"/>
<path d="M790.195 68.679C792.088 66.166 794.983 64.6048 798.048 64.4442L835.033 62.5059C837.752 62.3634 840.353 63.3375 842.237 65.2032L844.923 67.8646L788.584 70.8172L790.195 68.679Z" fill="#D5D3D3"/>
<ellipse rx="17.5636" ry="4.19784" transform="matrix(0.99863 -0.052336 0 1 411.745 90.5631)" fill="#A4A4A4"/>
<path d="M385.186 89.9033C387.079 87.3904 389.974 85.8292 393.039 85.6685L430.024 83.7303C432.743 83.5878 435.345 84.5619 437.228 86.4276L439.914 89.0889L383.575 92.0415L385.186 89.9033Z" fill="#D5D3D3"/>
<ellipse rx="17.5636" ry="4.66256" transform="matrix(0.99863 -0.052336 0 1 133.244 105.624)" fill="#A4A4A4"/>
<path d="M106.684 104.499C108.577 101.986 111.473 100.425 114.538 100.264L151.522 98.3262C154.241 98.1837 156.843 99.1578 158.726 101.024L161.413 103.685L105.073 106.637L106.684 104.499Z" fill="#D5D3D3"/>
<path d="M-285 132.962L1467.18 35V620.41H1407.42V240.183C1362 111.509 1246.57 142.507 1215.5 240.461V620.41H1090.69L1082.32 240.461C1033.32 133.24 894.896 165.058 882.126 250.037V620.41H745.111V250.037C703.963 160.337 551.905 163.287 531.331 250.037V620.41H381.929V261.627C344.008 175.705 222.368 201.349 200.259 270.462V620.41H70V284.605C70 275.358 67.7664 265.954 61.2922 259.351C23.0435 220.346 -64.7242 227.854 -104.372 258.713C-112.921 265.367 -116.153 276.32 -116.153 287.154V620.41H-285V132.962Z" fill="#44B5C5"/>
<path d="M70 620.41H198.464L265.5 653.5H127L70 620.41Z" fill="#21393F"/>
<path d="M381.929 620.41H531.331L602 653H443L381.929 620.41Z" fill="#21393F"/>
<path d="M745.055 620.41H882.126L950.5 653H798.5L745.055 620.41Z" fill="#21393F"/>
<path d="M1090.69 620.41H1215.5L1269 654.481L1139 653L1090.69 620.41Z" fill="#21393F"/>
<path d="M1407.42 620.41H1518.2L1527.76 655.514H1419L1407.42 620.41Z" fill="#21393F"/>
<path d="M-7.5 99L1439 18" stroke="#44B5C5" stroke-width="10"/>
</svg>
